SplineFontDB: 3.0
FontName: Nobile
FullName: Nobile
FamilyName: Nobile
Weight: Book
Copyright: Copyright (c) 2010 by vernon adams. All rights reserved.
Version: 001.000
ItalicAngle: 0
UnderlinePosition: -292
UnderlineWidth: 40
Ascent: 1638
Descent: 410
sfntRevision: 0x00010000
LayerCount: 2
Layer: 0 1 "Back"  1
Layer: 1 1 "Fore"  0
NeedsXUIDChange: 1
XUID: [1021 740 1454621373 8415213]
FSType: 0
OS2Version: 2
OS2_WeightWidthSlopeOnly: 0
OS2_UseTypoMetrics: 1
CreationTime: 1291284648
ModificationTime: 1300547545
PfmFamily: 17
TTFWeight: 400
TTFWidth: 5
LineGap: 66
VLineGap: 0
Panose: 2 0 5 3 5 0 0 2 0 4
OS2TypoAscent: -24
OS2TypoAOffset: 1
OS2TypoDescent: -92
OS2TypoDOffset: 1
OS2TypoLinegap: 130
OS2WinAscent: -993
OS2WinAOffset: 1
OS2WinDescent: -61
OS2WinDOffset: 1
HheadAscent: -993
HheadAOffset: 1
HheadDescent: 61
HheadDOffset: 1
OS2SubXSize: 1331
OS2SubYSize: 1433
OS2SubXOff: 0
OS2SubYOff: 286
OS2SupXSize: 1331
OS2SupYSize: 1433
OS2SupXOff: 0
OS2SupYOff: 983
OS2StrikeYSize: 102
OS2StrikeYPos: 512
OS2Vendor: 'SIL '
OS2CodePages: 00000097.00000000
OS2UnicodeRanges: a00002ef.4000000a.00000000.00000000
DEI: 91125
ShortTable: maxp 16
  0
  0
  0
  0
  0
  0
  0
  2
  1
  2
  22
  0
  256
  0
  0
  0
EndShort
TtTable: prep
PUSHW_1
 511
SCANCTRL
PUSHB_1
 1
SCANTYPE
SVTCA[y-axis]
MPPEM
PUSHB_1
 8
LT
IF
PUSHB_2
 1
 1
INSTCTRL
EIF
PUSHB_2
 70
 6
CALL
IF
POP
PUSHB_1
 16
EIF
MPPEM
PUSHB_1
 20
GT
IF
POP
PUSHB_1
 128
EIF
SCVTCI
PUSHB_1
 6
CALL
NOT
IF
EIF
PUSHB_1
 20
CALL
EndTTInstrs
TtTable: fpgm
PUSHB_1
 0
FDEF
PUSHB_1
 0
SZP0
MPPEM
PUSHB_1
 42
LT
IF
PUSHB_1
 74
SROUND
EIF
PUSHB_1
 0
SWAP
MIAP[rnd]
RTG
PUSHB_1
 6
CALL
IF
RTDG
EIF
MPPEM
PUSHB_1
 42
LT
IF
RDTG
EIF
DUP
MDRP[rp0,rnd,grey]
PUSHB_1
 1
SZP0
MDAP[no-rnd]
RTG
ENDF
PUSHB_1
 1
FDEF
DUP
MDRP[rp0,min,white]
PUSHB_1
 12
CALL
ENDF
PUSHB_1
 2
FDEF
MPPEM
GT
IF
RCVT
SWAP
EIF
POP
ENDF
PUSHB_1
 3
FDEF
ROUND[Black]
RTG
DUP
PUSHB_1
 64
LT
IF
POP
PUSHB_1
 64
EIF
ENDF
PUSHB_1
 4
FDEF
PUSHB_1
 6
CALL
IF
POP
SWAP
POP
ROFF
IF

StartChar: .notdef
Encoding: 65536 -1 0
Width: 748
Flags: MW
LayerCount: 2
Fore
SplineSet
544 68 m 1,0,-1
 544 1297 l 1,1,-1
 136 1297 l 1,2,-1
 136 68 l 1,3,-1
 544 68 l 1,0,-1
68 1365 m 1,4,-1
 612 1365 l 1,5,-1
 612 0 l 1,6,-1
 68 0 l 1,7,-1
 68 1365 l 1,4,-1
EndSplineSet
EndChar

StartChar: exclam
Encoding: 33 33 6
Width: 458
Flags: MW
LayerCount: 2
Fore
SplineSet
135 0 m 1,0,-1
 135 202 l 1,1,-1
 328 202 l 1,2,-1
 328 0 l 1,3,-1
 135 0 l 1,0,-1
279 399 m 1,4,-1
 176 399 l 1,5,-1
 136 1579 l 1,6,-1
 319 1579 l 1,7,-1
 279 399 l 1,4,-1
EndSplineSet
EndChar

StartChar: quotedbl
Encoding: 34 34 7
Width: 726
Flags: MW
LayerCount: 2
Fore
SplineSet
646 1579 m 1,0,-1
 646 1508 l 1,1,-1
 586 1058 l 1,2,-1
 478 1058 l 1,3,-1
 418 1508 l 1,4,-1
 418 1579 l 1,5,-1
 646 1579 l 1,0,-1
308 1579 m 1,6,-1
 308 1508 l 1,7,-1
 248 1058 l 1,8,-1
 140 1058 l 1,9,-1
 80 1508 l 1,10,-1
 80 1579 l 1,11,-1
 308 1579 l 1,6,-1
EndSplineSet
EndChar

StartChar: numbersign
Encoding: 35 35 8
Width: 1044
Flags: MW
LayerCount: 2
Fore
SplineSet
600 684 m 1,0,-1
 626 905 l 1,1,-1
 444 905 l 1,2,-1
 417 684 l 1,3,-1
 600 684 l 1,0,-1
405 561 m 1,4,-1
 372 295 l 1,5,-1
 231 295 l 1,6,-1
 264 561 l 1,7,-1
 98 561 l 1,8,-1
 98 684 l 1,9,-1
 274 684 l 1,10,-1
 301 905 l 1,11,-1
 126 905 l 1,12,-1
 126 1030 l 1,13,-1
 315 1030 l 1,14,-1
 346 1309 l 1,15,-1
 485 1309 l 1,16,-1
 454 1030 l 1,17,-1
 643 1030 l 1,18,-1
 671 1307 l 1,19,-1
 813 1307 l 1,20,-1
 782 1030 l 1,21,-1
 942 1030 l 1,22,-1
 942 905 l 1,23,-1
 770 905 l 1,24,-1
 743 684 l 1,25,-1
 919 684 l 1,26,-1
 919 561 l 1,27,-1
 731 561 l 1,28,-1
 700 295 l 1,29,-1
 559 295 l 1,30,-1
 591 561 l 1,31,-1
 405 561 l 1,4,-1
EndSplineSet
EndChar

StartChar: dollar
Encoding: 36 36 9
Width: 1061
Flags: MW
LayerCount: 2
Fore
SplineSet
595 134 m 1,0,1
 645 135 645 135 686 150 c 128,-1,2
 727 165 727 165 756 190.5 c 128,-1,3
 785 216 785 216 800.5 251.5 c 128,-1,4
 816 287 816 287 816 329 c 0,5,6
 816 367 816 367 806 395.5 c 128,-1,7
 796 424 796 424 771 447.5 c 128,-1,8
 746 471 746 471 703.5 492.5 c 128,-1,9
 661 514 661 514 595 539 c 1,10,-1
 595 134 l 1,0,1
492 1099 m 1,11,12
 417 1099 417 1099 369.5 1085 c 128,-1,13
 322 1071 322 1071 294.5 1047.5 c 128,-1,14
 267 1024 267 1024 256.5 994 c 128,-1,15
 246 964 246 964 246 932 c 0,16,17
 246 902 246 902 255.5 877.5 c 128,-1,18
 265 853 265 853 292 830.5 c 128,-1,19
 319 808 319 808 367 786 c 128,-1,20
 415 764 415 764 492 739 c 1,21,-1
 492 1099 l 1,11,12
492 1390 m 1,22,-1
 595 1390 l 1,23,-1
 595 1236 l 1,24,25
 653 1236 653 1236 711.5 1225.5 c 128,-1,26
 770 1215 770 1215 818 1203 c 0,27,28
 873 1189 873 1189 926 1171 c 1,29,-1
 887 1044 l 1,30,31
 841 1059 841 1059 792 1071 c 0,32,33
 750 1082 750 1082 698 1090.5 c 128,-1,34
 646 1099 646 1099 595 1099 c 1,35,-1
 595 709 l 1,36,37
 710 667 710 667 785 626.5 c 128,-1,38
 860 586 860 586 903.5 542.5 c 128,-1,39
 947 499 947 499 964 449.5 c 128,-1,40
 981 400 981 400 981 340 c 0,41,42
 981 248 981 248 950 183 c 128,-1,43
 919 118 919 118 866.5 76 c 128,-1,44
 814 34 814 34 743.5 11.5 c 128,-1,45
 673 -11 673 -11 595 -18 c 1,46,-1
 595 -178 l 1,47,-1
 492 -178 l 1,48,-1
 492 -20 l 1,49,50
 466 -20 466 -20 436.5 -16.5 c 128,-1,51
 407 -13 407 -13 376 -7.5 c 128,-1,52
 345 -2 345 -2 314 5.5 c 128,-1,53
 283 13 283 13 254 21 c 0,54,55
 186 39 186 39 118 63 c 1,56,-1
 167 207 l 1,57,58
 227 185 227 185 286 168 c 0,59,60
 337 153 337 153 392 141 c 128,-1,61
 447 129 447 129 492 129 c 1,62,-1
 492 568 l 1,63,64
 375 598 375 598 296 634 c 128,-1,65
 217 670 217 670 168.5 714 c 128,-1,66
 120 758 120 758 99.5 811 c 128,-1,67
 79 864 79 864 79 929 c 0,68,69
 79 1022 79 1022 109 1079.5 c 128,-1,70
 139 1137 139 1137 193 1170 c 128,-1,71
 247 1203 247 1203 323 1217.5 c 128,-1,72
 399 1232 399 1232 492 1240 c 1,73,-1
 492 1390 l 1,22,-1
EndSplineSet
EndChar

StartChar: percent
Encoding: 37 37 10
Width: 1825
Flags: MW
LayerCount: 2
Fore
SplineSet
1398 136 m 256,0,1
 1510 136 1510 136 1562.5 215 c 128,-1,2
 1615 294 1615 294 1615 453 c 256,3,4
 1615 612 1615 612 1564.5 697 c 128,-1,5
 1514 782 1514 782 1398 782 c 0,6,7
 1339 782 1339 782 1298.5 760.5 c 128,-1,8
 1258 739 1258 739 1232.5 697 c 128,-1,9
 1207 655 1207 655 1195.5 593.5 c 128,-1,10
 1184 532 1184 532 1184 453 c 0,11,12
 1184 294 1184 294 1235 215 c 128,-1,13
 1286 136 1286 136 1398 136 c 256,0,1
1400 11 m 0,14,15
 1304 11 1304 11 1235.5 49 c 128,-1,16
 1167 87 1167 87 1124 149 c 128,-1,17
 1081 211 1081 211 1061 290 c 128,-1,18
 1041 369 1041 369 1041 451 c 0,19,20
 1041 558 1041 558 1063.5 642 c 128,-1,21
 1086 726 1086 726 1131 783.5 c 128,-1,22
 1176 841 1176 841 1243 871.5 c 128,-1,23
 1310 902 1310 902 1400 902 c 0,24,25
 1494 902 1494 902 1562 871.5 c 128,-1,26
 1630 841 1630 841 1673.5 783.5 c 128,-1,27
 1717 726 1717 726 1738 642 c 128,-1,28
 1759 558 1759 558 1759 451 c 0,29,30
 1759 374 1759 374 1739.5 295.5 c 128,-1,31
 1720 217 1720 217 1677 154 c 128,-1,32
 1634 91 1634 91 1565.5 51 c 128,-1,33
 1497 11 1497 11 1400 11 c 0,14,15
423 729 m 256,34,35
 535 729 535 729 587.5 808 c 128,-1,36
 640 887 640 887 640 1046 c 256,37,38
 640 1205 640 1205 589.5 1290 c 128,-1,39
 539 1375 539 1375 423 1375 c 0,40,41
 364 1375 364 1375 323.5 1353.5 c 128,-1,42
 283 1332 283 1332 257.5 1290 c 128,-1,43
 232 1248 232 1248 220.5 1186.5 c 128,-1,44
 209 1125 209 1125 209 1046 c 0,45,46
 209 887 209 887 260 808 c 128,-1,47
 311 729 311 729 423 729 c 256,34,35
425 604 m 0,48,49
 329 604 329 604 260.5 642 c 128,-1,50
 192 680 192 680 149 742 c 128,-1,51
 106 804 106 804 86 883 c 128,-1,52
 66 962 66 962 66 1044 c 0,53,54
 66 1151 66 1151 88.5 1235 c 128,-1,55
 111 1319 111 1319 156 1376.5 c 128,-1,56
 201 1434 201 1434 268 1464.5 c 128,-1,57
 335 1495 335 1495 425 1495 c 0,58,59
 519 1495 519 1495 587 1464.5 c 128,-1,60
 655 1434 655 1434 698.5 1376.5 c 128,-1,61
 742 1319 742 1319 763 1235 c 128,-1,62
 784 1151 784 1151 784 1044 c 0,63,64
 784 967 784 967 764.5 888.5 c 128,-1,65
 745 810 745 810 702 747 c 128,-1,66
 659 684 659 684 590.5 644 c 128,-1,67
 522 604 522 604 425 604 c 0,48,49
1154 1497 m 1,68,-1
 1283 1430 l 1,69,-1
 602 -22 l 1,70,-1
 472 37 l 1,71,-1
 1154 1497 l 1,68,-1
EndSplineSet
EndChar

StartChar: ampersand
Encoding: 38 38 11
Width: 1529
Flags: MW
LayerCount: 2
Fore
SplineSet
268 418 m 0,0,1
 268 342 268 342 290.5 283 c 128,-1,2
 313 224 313 224 360.5 183.5 c 128,-1,3
 408 143 408 143 480.5 121.5 c 128,-1,4
 553 100 553 100 653 100 c 0,5,6
 756 100 756 100 829.5 109.5 c 128,-1,7
 903 119 903 119 955 138.5 c 128,-1,8
 1007 158 1007 158 1042 187.5 c 128,-1,9
 1077 217 1077 217 1102 256 c 1,10,-1
 514 726 l 1,11,12
 388 699 388 699 328 624.5 c 128,-1,13
 268 550 268 550 268 418 c 0,0,1
653 -39 m 0,14,15
 86 -39 86 -39 86 396 c 0,16,17
 86 565 86 565 169.5 669.5 c 128,-1,18
 253 774 253 774 420 822 c 1,19,20
 388 843 388 843 352.5 873 c 128,-1,21
 317 903 317 903 287 940.5 c 128,-1,22
 257 978 257 978 237.5 1021.5 c 128,-1,23
 218 1065 218 1065 218 1113 c 0,24,25
 218 1187 218 1187 244.5 1248 c 128,-1,26
 271 1309 271 1309 322 1353 c 128,-1,27
 373 1397 373 1397 447.5 1421 c 128,-1,28
 522 1445 522 1445 617 1445 c 0,29,30
 716 1445 716 1445 791 1419.5 c 128,-1,31
 866 1394 866 1394 916.5 1350 c 128,-1,32
 967 1306 967 1306 992.5 1245.5 c 128,-1,33
 1018 1185 1018 1185 1018 1115 c 0,34,35
 1018 1043 1018 1043 994 992 c 128,-1,36
 970 941 970 941 924 903 c 128,-1,37
 878 865 878 865 811 836.5 c 128,-1,38
 744 808 744 808 659 781 c 1,39,-1
 1154 391 l 1,40,41
 1159 419 1159 419 1162 453.5 c 128,-1,42
 1165 488 1165 488 1167 525.5 c 128,-1,43
 1169 563 1169 563 1169.5 601 c 128,-1,44
 1170 639 1170 639 1170 673 c 0,45,46
 1170 699 1170 699 1169.5 721.5 c 128,-1,47
 1169 744 1169 744 1169 761 c 0,48,49
 1168 780 1168 780 1168 796 c 1,50,-1
 1332 796 l 1,51,52
 1332 796 1332 796 1330 770 c 0,53,54
 1329 745 1329 745 1327.5 704 c 128,-1,55
 1326 663 1326 663 1322.5 612 c 128,-1,56
 1319 561 1319 561 1315.5 510.5 c 128,-1,57
 1312 460 1312 460 1307 415 c 128,-1,58
 1302 370 1302 370 1297 341 c 2,59,-1
 1285 277 l 1,60,-1
 1511 95 l 1,61,-1
 1425 -7 l 1,62,-1
 1214 170 l 1,63,64
 1157 60 1157 60 1020 10.5 c 128,-1,65
 883 -39 883 -39 653 -39 c 0,14,15
858 1119 m 0,66,67
 858 1165 858 1165 841 1200.5 c 128,-1,68
 824 1236 824 1236 792.5 1260.5 c 128,-1,69
 761 1285 761 1285 716.5 1297.5 c 128,-1,70
 672 1310 672 1310 617 1310 c 0,71,72
 384 1310 384 1310 384 1117 c 0,73,74
 384 1052 384 1052 432 989.5 c 128,-1,75
 480 927 480 927 563 873 c 1,76,77
 579 877 579 877 607 886 c 128,-1,78
 635 895 635 895 668 909 c 128,-1,79
 701 923 701 923 734.5 942.5 c 128,-1,80
 768 962 768 962 795.5 988 c 128,-1,81
 823 1014 823 1014 840.5 1046.5 c 128,-1,82
 858 1079 858 1079 858 1119 c 0,66,67
EndSplineSet
EndChar

StartChar: quotesingle
Encoding: 39 39 12
Width: 390
Flags: MW
LayerCount: 2
Fore
SplineSet
309 1579 m 1,0,-1
 309 1508 l 1,1,-1
 249 1058 l 1,2,-1
 141 1058 l 1,3,-1
 81 1508 l 1,4,-1
 81 1579 l 1,5,-1
 309 1579 l 1,0,-1
EndSplineSet
EndChar

StartChar: parenleft
Encoding: 40 40 13
Width: 581
Flags: MW
LayerCount: 2
Fore
SplineSet
80 696 m 0,0,1
 80 824 80 824 99 934.5 c 128,-1,2
 118 1045 118 1045 149.5 1137 c 128,-1,3
 181 1229 181 1229 221 1303.5 c 128,-1,4
 261 1378 261 1378 303 1435.5 c 128,-1,5
 345 1493 345 1493 385 1532.5 c 128,-1,6
 425 1572 425 1572 457 1595 c 1,7,-1
 568 1493 l 1,8,9
 527 1457 527 1457 475 1389 c 128,-1,10
 423 1321 423 1321 376.5 1221 c 128,-1,11
 330 1121 330 1121 298 989 c 128,-1,12
 266 857 266 857 266 694 c 256,13,14
 266 531 266 531 295.5 398.5 c 128,-1,15
 325 266 325 266 368.5 166.5 c 128,-1,16
 412 67 412 67 461.5 0.5 c 128,-1,17
 511 -66 511 -66 552 -97 c 1,18,-1
 469 -205 l 1,19,20
 444 -189 444 -189 405 -154.5 c 128,-1,21
 366 -120 366 -120 323 -67 c 128,-1,22
 280 -14 280 -14 236.5 59.5 c 128,-1,23
 193 133 193 133 158.5 228 c 128,-1,24
 124 323 124 323 102 439.5 c 128,-1,25
 80 556 80 556 80 696 c 0,0,1
EndSplineSet
EndChar

StartChar: parenright
Encoding: 41 41 14
Width: 574
Flags: MW
LayerCount: 2
Fore
SplineSet
494 710 m 0,0,1
 494 572 494 572 474.5 457 c 128,-1,2
 455 342 455 342 423 248 c 128,-1,3
 391 154 391 154 349.5 80.5 c 128,-1,4
 308 7 308 7 265 -49 c 128,-1,5
 222 -105 222 -105 180 -143.5 c 128,-1,6
 138 -182 138 -182 105 -205 c 1,7,-1
 5 -99 l 1,8,9
 47 -63 47 -63 99 6 c 128,-1,10
 151 75 151 75 197.5 175.5 c 128,-1,11
 244 276 244 276 275.5 406 c 128,-1,12
 307 536 307 536 307 694 c 0,13,14
 307 854 307 854 278.5 985.5 c 128,-1,15
 250 1117 250 1117 207 1217.5 c 128,-1,16
 164 1318 164 1318 114 1387 c 128,-1,17
 64 1456 64 1456 22 1491 c 1,18,-1
 105 1599 l 1,19,20
 118 1590 118 1590 152.5 1561.5 c 128,-1,21
 187 1533 187 1533 230 1483.5 c 128,-1,22
 273 1434 273 1434 319.5 1362 c 128,-1,23
 366 1290 366 1290 405 1194.5 c 128,-1,24
 444 1099 444 1099 469 978 c 128,-1,25
 494 857 494 857 494 710 c 0,0,1
EndSplineSet
EndChar

StartChar: asterisk
Encoding: 42 42 15
Width: 945
Flags: MW
LayerCount: 2
Fore
SplineSet
611 1567 m 1,0,-1
 714 1509 l 1,1,-1
 556 1237 l 1,2,-1
 867 1237 l 1,3,-1
 867 1145 l 1,4,-1
 558 1145 l 1,5,-1
 728 872 l 1,6,-1
 626 815 l 1,7,-1
 472 1090 l 1,8,-1
 318 815 l 1,9,-1
 216 872 l 1,10,-1
 386 1145 l 1,11,-1
 77 1145 l 1,12,-1
 77 1237 l 1,13,-1
 388 1237 l 1,14,-1
 230 1509 l 1,15,-1
 333 1567 l 1,16,-1
 472 1292 l 1,17,-1
 611 1567 l 1,0,-1
EndSplineSet
EndChar

StartChar: plus
Encoding: 43 43 16
Width: 932
Flags: MW
LayerCount: 2
Fore
SplineSet
536 518 m 1,0,-1
 536 174 l 1,1,-1
 395 174 l 1,2,-1
 395 518 l 1,3,-1
 82 518 l 1,4,-1
 82 651 l 1,5,-1
 395 651 l 1,6,-1
 395 995 l 1,7,-1
 536 995 l 1,8,-1
 536 651 l 1,9,-1
 850 651 l 1,10,-1
 850 518 l 1,11,-1
 536 518 l 1,0,-1
EndSplineSet
EndChar

StartChar: comma
Encoding: 44 44 17
Width: 497
Flags: MW
LayerCount: 2
Fore
SplineSet
118 293 m 1,0,-1
 379 293 l 1,1,-1
 379 44 l 2,2,3
 379 -71 379 -71 320.5 -146 c 128,-1,4
 262 -221 262 -221 150 -253 c 1,5,-1
 119 -159 l 1,6,7
 157 -146 157 -146 182 -131.5 c 128,-1,8
 207 -117 207 -117 222 -98.5 c 128,-1,9
 237 -80 237 -80 243 -56 c 128,-1,10
 249 -32 249 -32 249 0 c 1,11,-1
 118 0 l 1,12,-1
 118 293 l 1,0,-1
EndSplineSet
EndChar

StartChar: hyphen
Encoding: 45 45 18
Width: 916
Flags: MW
LayerCount: 2
Fore
SplineSet
120 508 m 1,0,-1
 120 645 l 1,1,-1
 796 645 l 1,2,-1
 796 508 l 1,3,-1
 120 508 l 1,0,-1
EndSplineSet
EndChar

StartChar: period
Encoding: 46 46 19
Width: 512
Flags: MW
LayerCount: 2
Fore
SplineSet
128 256 m 1,0,-1
 384 256 l 1,1,-1
 384 0 l 1,2,-1
 128 0 l 1,3,-1
 128 256 l 1,0,-1
EndSplineSet
EndChar

StartChar: slash
Encoding: 47 47 20
Width: 892
Flags: MW
LayerCount: 2
Fore
SplineSet
673 1731 m 1,0,-1
 842 1669 l 1,1,-1
 218 -179 l 1,2,-1
 48 -117 l 1,3,-1
 673 1731 l 1,0,-1
EndSplineSet
EndChar

StartChar: zero
Encoding: 48 48 21
Width: 1320
Flags: MW
LayerCount: 2
Fore
SplineSet
661 113 m 0,0,1
 758 113 758 113 830.5 146.5 c 128,-1,2
 903 180 903 180 951 242 c 128,-1,3
 999 304 999 304 1023 393 c 128,-1,4
 1047 482 1047 482 1047 592 c 0,5,6
 1047 645 1047 645 1039.5 701 c 128,-1,7
 1032 757 1032 757 1015 810.5 c 128,-1,8
 998 864 998 864 969 911 c 128,-1,9
 940 958 940 958 897 993.5 c 128,-1,10
 854 1029 854 1029 795.5 1049.5 c 128,-1,11
 737 1070 737 1070 661 1070 c 0,12,13
 559 1070 559 1070 486 1034 c 128,-1,14
 413 998 413 998 367 934 c 128,-1,15
 321 870 321 870 299.5 782.5 c 128,-1,16
 278 695 278 695 278 592 c 0,17,18
 278 536 278 536 285 478.5 c 128,-1,19
 292 421 292 421 309.5 368 c 128,-1,20
 327 315 327 315 355.5 268.5 c 128,-1,21
 384 222 384 222 426.5 187.5 c 128,-1,22
 469 153 469 153 527 133 c 128,-1,23
 585 113 585 113 661 113 c 0,0,1
657 1209 m 0,24,25
 762 1209 762 1209 845 1183 c 128,-1,26
 928 1157 928 1157 991.5 1112.5 c 128,-1,27
 1055 1068 1055 1068 1100.5 1009 c 128,-1,28
 1146 950 1146 950 1174.5 883.5 c 128,-1,29
 1203 817 1203 817 1216.5 746.5 c 128,-1,30
 1230 676 1230 676 1230 610 c 0,31,32
 1230 532 1230 532 1217.5 454.5 c 128,-1,33
 1205 377 1205 377 1177 305.5 c 128,-1,34
 1149 234 1149 234 1104.5 173 c 128,-1,35
 1060 112 1060 112 996.5 66.5 c 128,-1,36
 933 21 933 21 848.5 -4.5 c 128,-1,37
 764 -30 764 -30 657 -30 c 0,38,39
 525 -30 525 -30 420 15.5 c 128,-1,40
 315 61 315 61 242 143.5 c 128,-1,41
 169 226 169 226 130.5 340.5 c 128,-1,42
 92 455 92 455 92 593 c 0,43,44
 92 670 92 670 105.5 745.5 c 128,-1,45
 119 821 119 821 148 889.5 c 128,-1,46
 177 958 177 958 222 1016.5 c 128,-1,47
 267 1075 267 1075 330 1118 c 128,-1,48
 393 1161 393 1161 474 1185 c 128,-1,49
 555 1209 555 1209 657 1209 c 0,24,25
EndSplineSet
EndChar

StartChar: one
Encoding: 49 49 22
Width: 652
Flags: MW
LayerCount: 2
Fore
SplineSet
300 1057 m 1,0,-1
 93 957 l 1,1,-1
 40 1083 l 1,2,3
 83 1103 83 1103 125.5 1122.5 c 128,-1,4
 168 1142 168 1142 211 1162 c 2,5,-1
 297 1202 l 1,6,-1
 487 1202 l 1,7,-1
 487 0 l 1,8,-1
 300 0 l 1,9,-1
 300 1057 l 1,0,-1
EndSplineSet
EndChar

StartChar: two
Encoding: 50 50 23
Width: 992
Flags: MW
LayerCount: 2
Fore
SplineSet
722 846 m 0,0,1
 722 949 722 949 652.5 1004 c 128,-1,2
 583 1059 583 1059 446 1059 c 0,3,4
 419 1059 419 1059 386 1054 c 128,-1,5
 353 1049 353 1049 318 1040 c 128,-1,6
 283 1031 283 1031 247.5 1018.5 c 128,-1,7
 212 1006 212 1006 181 992 c 1,8,-1
 128 1108 l 1,9,10
 149 1123 149 1123 180 1139 c 128,-1,11
 211 1155 211 1155 253 1168 c 128,-1,12
 295 1181 295 1181 348.5 1189.5 c 128,-1,13
 402 1198 402 1198 468 1198 c 0,14,15
 551 1198 551 1198 614.5 1183.5 c 128,-1,16
 678 1169 678 1169 724 1143.5 c 128,-1,17
 770 1118 770 1118 801 1083.5 c 128,-1,18
 832 1049 832 1049 850.5 1010 c 128,-1,19
 869 971 869 971 876.5 928.5 c 128,-1,20
 884 886 884 886 884 845 c 0,21,22
 884 790 884 790 869.5 738 c 128,-1,23
 855 686 855 686 818.5 630.5 c 128,-1,24
 782 575 782 575 721 513 c 128,-1,25
 660 451 660 451 567 376 c 2,26,-1
 288 152 l 1,27,-1
 884 152 l 1,28,-1
 884 0 l 1,29,-1
 69 0 l 1,30,-1
 69 146 l 1,31,-1
 477 480 l 2,32,33
 553 542 553 542 601 590.5 c 128,-1,34
 649 639 649 639 676 681 c 128,-1,35
 703 723 703 723 712.5 762 c 128,-1,36
 722 801 722 801 722 846 c 0,0,1
EndSplineSet
EndChar

StartChar: three
Encoding: 51 51 24
Width: 1011
Flags: MW
LayerCount: 2
Fore
SplineSet
713 843 m 0,0,1
 713 958 713 958 642.5 1010.5 c 128,-1,2
 572 1063 572 1063 424 1063 c 0,3,4
 383 1063 383 1063 333 1052.5 c 128,-1,5
 283 1042 283 1042 238.5 1029 c 128,-1,6
 194 1016 194 1016 162.5 1004.5 c 128,-1,7
 131 993 131 993 127 992 c 1,8,-1
 81 1127 l 1,9,10
 85 1128 85 1128 117 1141 c 128,-1,11
 149 1154 149 1154 198 1168 c 128,-1,12
 247 1182 247 1182 307.5 1194 c 128,-1,13
 368 1206 368 1206 430 1206 c 0,14,15
 474 1206 474 1206 524 1200.5 c 128,-1,16
 574 1195 574 1195 624 1180.5 c 128,-1,17
 674 1166 674 1166 720 1141.5 c 128,-1,18
 766 1117 766 1117 801 1079 c 128,-1,19
 836 1041 836 1041 857 988.5 c 128,-1,20
 878 936 878 936 878 866 c 0,21,22
 878 806 878 806 863 759 c 128,-1,23
 848 712 848 712 823.5 676 c 128,-1,24
 799 640 799 640 768 615.5 c 128,-1,25
 737 591 737 591 705 575 c 128,-1,26
 673 559 673 559 642.5 552 c 128,-1,27
 612 545 612 545 589 545 c 1,28,29
 618 539 618 539 653.5 528 c 128,-1,30
 689 517 689 517 725.5 497.5 c 128,-1,31
 762 478 762 478 796.5 450 c 128,-1,32
 831 422 831 422 858 381.5 c 128,-1,33
 885 341 885 341 901 288 c 128,-1,34
 917 235 917 235 917 166 c 0,35,36
 917 71 917 71 875.5 2.5 c 128,-1,37
 834 -66 834 -66 767.5 -110.5 c 128,-1,38
 701 -155 701 -155 617 -176.5 c 128,-1,39
 533 -198 533 -198 449 -198 c 0,40,41
 374 -198 374 -198 302.5 -184 c 128,-1,42
 231 -170 231 -170 175 -152.5 c 128,-1,43
 119 -135 119 -135 83.5 -119.5 c 128,-1,44
 48 -104 48 -104 44 -102 c 1,45,-1
 98 31 l 1,46,47
 148 5 148 5 206 -14 c 0,48,49
 256 -31 256 -31 319.5 -45 c 128,-1,50
 383 -59 383 -59 453 -59 c 0,51,52
 597 -59 597 -59 667 3 c 128,-1,53
 737 65 737 65 737 186 c 0,54,55
 737 311 737 311 654.5 381.5 c 128,-1,56
 572 452 572 452 401 471 c 1,57,-1
 401 614 l 1,58,59
 459 614 459 614 515 625 c 128,-1,60
 571 636 571 636 615 662 c 128,-1,61
 659 688 659 688 686 732.5 c 128,-1,62
 713 777 713 777 713 843 c 0,0,1
EndSplineSet
EndChar

StartChar: four
Encoding: 52 52 25
Width: 1135
Flags: MW
LayerCount: 2
Fore
SplineSet
717 205 m 1,0,-1
 717 930 l 1,1,-1
 225 205 l 1,2,-1
 717 205 l 1,0,-1
886 1169 m 1,3,-1
 886 207 l 1,4,-1
 1072 207 l 1,5,-1
 1072 68 l 1,6,-1
 886 68 l 1,7,-1
 886 -260 l 1,8,-1
 717 -260 l 1,9,-1
 717 68 l 1,10,-1
 68 68 l 1,11,-1
 40 205 l 1,12,-1
 724 1208 l 1,13,-1
 886 1169 l 1,3,-1
EndSplineSet
EndChar

StartChar: five
Encoding: 53 53 26
Width: 1042
Flags: MW
LayerCount: 2
Fore
SplineSet
138 31 m 1,0,1
 212 -9 212 -9 296.5 -32.5 c 128,-1,2
 381 -56 381 -56 470 -56 c 0,3,4
 787 -56 787 -56 787 244 c 0,5,6
 787 400 787 400 713 474.5 c 128,-1,7
 639 549 639 549 490 549 c 0,8,9
 418 549 418 549 349.5 524.5 c 128,-1,10
 281 500 281 500 221 458 c 1,11,-1
 123 537 l 1,12,-1
 123 1169 l 1,13,-1
 871 1169 l 1,14,-1
 871 1018 l 1,15,-1
 268 1018 l 1,16,-1
 268 622 l 2,17,18
 268 621 268 621 281.5 633 c 128,-1,19
 295 645 295 645 324 659.5 c 128,-1,20
 353 674 353 674 398.5 686 c 128,-1,21
 444 698 444 698 508 698 c 0,22,23
 608 698 608 698 691 667.5 c 128,-1,24
 774 637 774 637 833.5 579 c 128,-1,25
 893 521 893 521 926 436.5 c 128,-1,26
 959 352 959 352 959 244 c 0,27,28
 959 139 959 139 925 55.5 c 128,-1,29
 891 -28 891 -28 827.5 -86.5 c 128,-1,30
 764 -145 764 -145 673 -176 c 128,-1,31
 582 -207 582 -207 468 -207 c 0,32,33
 370 -207 370 -207 273 -183.5 c 128,-1,34
 176 -160 176 -160 87 -115 c 1,35,-1
 138 31 l 1,0,1
EndSplineSet
EndChar

StartChar: six
Encoding: 54 54 27
Width: 1155
Flags: MW
LayerCount: 2
Fore
SplineSet
1087 335 m 0,0,1
 1087 234 1087 234 1054.5 145 c 128,-1,2
 1022 56 1022 56 959 -11 c 128,-1,3
 896 -78 896 -78 802.5 -117 c 128,-1,4
 709 -156 709 -156 587 -156 c 0,5,6
 463 -156 463 -156 368.5 -115 c 128,-1,7
 274 -74 274 -74 210.5 1.5 c 128,-1,8
 147 77 147 77 114.5 184.5 c 128,-1,9
 82 292 82 292 82 425 c 0,10,11
 82 555 82 555 109.5 665.5 c 128,-1,12
 137 776 137 776 185.5 868 c 128,-1,13
 234 960 234 960 301 1033.5 c 128,-1,14
 368 1107 368 1107 447.5 1163.5 c 128,-1,15
 527 1220 527 1220 616 1258.5 c 128,-1,16
 705 1297 705 1297 797 1319 c 1,17,-1
 840 1174 l 1,18,19
 761 1157 761 1157 673.5 1120.5 c 128,-1,20
 586 1084 586 1084 507.5 1024 c 128,-1,21
 429 964 429 964 368 879 c 128,-1,22
 307 794 307 794 281 680 c 1,23,24
 314 704 314 704 350.5 724.5 c 128,-1,25
 387 745 387 745 429 760 c 128,-1,26
 471 775 471 775 518.5 784 c 128,-1,27
 566 793 566 793 621 793 c 0,28,29
 729 793 729 793 815 759 c 128,-1,30
 901 725 901 725 961.5 664.5 c 128,-1,31
 1022 604 1022 604 1054.5 519.5 c 128,-1,32
 1087 435 1087 435 1087 335 c 0,0,1
260 401 m 0,33,34
 260 356 260 356 265 307.5 c 128,-1,35
 270 259 270 259 283.5 212.5 c 128,-1,36
 297 166 297 166 320.5 125 c 128,-1,37
 344 84 344 84 380.5 53 c 128,-1,38
 417 22 417 22 467.5 4 c 128,-1,39
 518 -14 518 -14 587 -14 c 0,40,41
 676 -14 676 -14 738 18 c 128,-1,42
 800 50 800 50 838.5 100.5 c 128,-1,43
 877 151 877 151 894 213 c 128,-1,44
 911 275 911 275 911 335 c 0,45,46
 911 417 911 417 888 477.5 c 128,-1,47
 865 538 865 538 825.5 578 c 128,-1,48
 786 618 786 618 733.5 637.5 c 128,-1,49
 681 657 681 657 621 657 c 0,50,51
 563 657 563 657 505.5 642 c 128,-1,52
 448 627 448 627 399.5 606 c 128,-1,53
 351 585 351 585 315.5 562 c 128,-1,54
 280 539 280 539 266 523 c 1,55,56
 260 485 260 485 260 401 c 0,33,34
EndSplineSet
EndChar

StartChar: seven
Encoding: 55 55 28
Width: 988
Flags: MW
LayerCount: 2
Fore
SplineSet
954 1107 m 1,0,-1
 382 -176 l 1,1,-1
 214 -100 l 1,2,-1
 739 1074 l 1,3,-1
 61 1074 l 1,4,-1
 61 1229 l 1,5,-1
 897 1229 l 1,6,-1
 954 1107 l 1,0,-1
EndSplineSet
EndChar

StartChar: eight
Encoding: 56 56 29
Width: 1192
Flags: MW
LayerCount: 2
Fore
SplineSet
891 964 m 0,0,1
 891 1032 891 1032 867 1077.5 c 128,-1,2
 843 1123 843 1123 802.5 1150 c 128,-1,3
 762 1177 762 1177 710 1188 c 128,-1,4
 658 1199 658 1199 602 1199 c 0,5,6
 549 1199 549 1199 495.5 1189 c 128,-1,7
 442 1179 442 1179 398.5 1153 c 128,-1,8
 355 1127 355 1127 328 1081.5 c 128,-1,9
 301 1036 301 1036 301 966 c 0,10,11
 301 907 301 907 325.5 856.5 c 128,-1,12
 350 806 350 806 391.5 769.5 c 128,-1,13
 433 733 433 733 487.5 712 c 128,-1,14
 542 691 542 691 602 691 c 0,15,16
 660 691 660 691 712.5 711.5 c 128,-1,17
 765 732 765 732 805 769 c 128,-1,18
 845 806 845 806 868 855.5 c 128,-1,19
 891 905 891 905 891 964 c 0,0,1
891 253 m 0,20,21
 891 322 891 322 869.5 380.5 c 128,-1,22
 848 439 848 439 809.5 482.5 c 128,-1,23
 771 526 771 526 718 550.5 c 128,-1,24
 665 575 665 575 602 575 c 0,25,26
 537 575 537 575 482 551 c 128,-1,27
 427 527 427 527 387 484.5 c 128,-1,28
 347 442 347 442 324 383 c 128,-1,29
 301 324 301 324 301 255 c 0,30,31
 301 191 301 191 316 142 c 128,-1,32
 331 93 331 93 366.5 59.5 c 128,-1,33
 402 26 402 26 459.5 8.5 c 128,-1,34
 517 -9 517 -9 602 -9 c 0,35,36
 689 -9 689 -9 745 9 c 128,-1,37
 801 27 801 27 833.5 61 c 128,-1,38
 866 95 866 95 878.5 143.5 c 128,-1,39
 891 192 891 192 891 253 c 0,20,21
1069 966 m 0,40,41
 1069 894 1069 894 1046.5 839.5 c 128,-1,42
 1024 785 1024 785 987 745 c 128,-1,43
 950 705 950 705 903 678 c 128,-1,44
 856 651 856 651 807 634 c 1,45,46
 936 595 936 595 1002.5 494.5 c 128,-1,47
 1069 394 1069 394 1069 231 c 0,48,49
 1069 137 1069 137 1034.5 66 c 128,-1,50
 1000 -5 1000 -5 938 -52.5 c 128,-1,51
 876 -100 876 -100 790.5 -124 c 128,-1,52
 705 -148 705 -148 602 -148 c 0,53,54
 503 -148 503 -148 416 -125 c 128,-1,55
 329 -102 329 -102 263.5 -55 c 128,-1,56
 198 -8 198 -8 160.5 63.5 c 128,-1,57
 123 135 123 135 123 233 c 0,58,59
 123 396 123 396 189.5 496.5 c 128,-1,60
 256 597 256 597 385 636 c 1,61,62
 337 652 337 652 290.5 678.5 c 128,-1,63
 244 705 244 705 206.5 745 c 128,-1,64
 169 785 169 785 146 840 c 128,-1,65
 123 895 123 895 123 968 c 0,66,67
 123 1056 123 1056 159.5 1124 c 128,-1,68
 196 1192 196 1192 260.5 1238.5 c 128,-1,69
 325 1285 325 1285 412.5 1309.5 c 128,-1,70
 500 1334 500 1334 602 1334 c 0,71,72
 702 1334 702 1334 788 1309.5 c 128,-1,73
 874 1285 874 1285 936 1238 c 128,-1,74
 998 1191 998 1191 1033.5 1122.5 c 128,-1,75
 1069 1054 1069 1054 1069 966 c 0,40,41
EndSplineSet
EndChar

StartChar: nine
Encoding: 57 57 30
Width: 1158
Flags: MW
LayerCount: 2
Fore
SplineSet
535 365 m 0,0,1
 427 365 427 365 340.5 398.5 c 128,-1,2
 254 432 254 432 193.5 493 c 128,-1,3
 133 554 133 554 101 638 c 128,-1,4
 69 722 69 722 69 823 c 0,5,6
 69 923 69 923 101.5 1012.5 c 128,-1,7
 134 1102 134 1102 197 1169 c 128,-1,8
 260 1236 260 1236 353.5 1275 c 128,-1,9
 447 1314 447 1314 569 1314 c 0,10,11
 693 1314 693 1314 787.5 1273 c 128,-1,12
 882 1232 882 1232 945.5 1156.5 c 128,-1,13
 1009 1081 1009 1081 1041.5 973.5 c 128,-1,14
 1074 866 1074 866 1074 733 c 0,15,16
 1074 605 1074 605 1047 495 c 128,-1,17
 1020 385 1020 385 972 293 c 128,-1,18
 924 201 924 201 857.5 126.5 c 128,-1,19
 791 52 791 52 711.5 -4.5 c 128,-1,20
 632 -61 632 -61 542.5 -100 c 128,-1,21
 453 -139 453 -139 359 -161 c 1,22,-1
 316 -16 l 1,23,24
 366 -6 366 -6 422 14 c 128,-1,25
 478 34 478 34 534.5 64 c 128,-1,26
 591 94 591 94 644.5 134.5 c 128,-1,27
 698 175 698 175 743 226.5 c 128,-1,28
 788 278 788 278 821 341.5 c 128,-1,29
 854 405 854 405 870 481 c 1,30,31
 818 430 818 430 731.5 397.5 c 128,-1,32
 645 365 645 365 535 365 c 0,0,1
245 823 m 0,33,34
 245 741 245 741 268 680.5 c 128,-1,35
 291 620 291 620 330.5 580 c 128,-1,36
 370 540 370 540 422.5 520.5 c 128,-1,37
 475 501 475 501 535 501 c 0,38,39
 593 501 593 501 650 515.5 c 128,-1,40
 707 530 707 530 756 551 c 128,-1,41
 805 572 805 572 840.5 595 c 128,-1,42
 876 618 876 618 890 635 c 1,43,44
 896 672 896 672 896 757 c 0,45,46
 896 802 896 802 891 850.5 c 128,-1,47
 886 899 886 899 872.5 945 c 128,-1,48
 859 991 859 991 835.5 1032.5 c 128,-1,49
 812 1074 812 1074 775.5 1105 c 128,-1,50
 739 1136 739 1136 688 1154 c 128,-1,51
 637 1172 637 1172 569 1172 c 0,52,53
 480 1172 480 1172 418.5 1140 c 128,-1,54
 357 1108 357 1108 318.5 1058 c 128,-1,55
 280 1008 280 1008 262.5 946 c 128,-1,56
 245 884 245 884 245 823 c 0,33,34
EndSplineSet
EndChar

StartChar: colon
Encoding: 58 58 31
Width: 510
Flags: MW
LayerCount: 2
Fore
SplineSet
120 281 m 1,0,-1
 390 281 l 1,1,-1
 390 0 l 1,2,-1
 120 0 l 1,3,-1
 120 281 l 1,0,-1
120 864 m 1,4,-1
 390 864 l 1,5,-1
 390 583 l 1,6,-1
 120 583 l 1,7,-1
 120 864 l 1,4,-1
EndSplineSet
EndChar

StartChar: semicolon
Encoding: 59 59 32
Width: 504
Flags: MW
LayerCount: 2
Fore
SplineSet
120 864 m 1,0,-1
 383 864 l 1,1,-1
 383 583 l 1,2,-1
 120 583 l 1,3,-1
 120 864 l 1,0,-1
122 293 m 1,4,-1
 383 293 l 1,5,-1
 383 44 l 2,6,7
 383 -71 383 -71 324.5 -146 c 128,-1,8
 266 -221 266 -221 154 -253 c 1,9,-1
 123 -159 l 1,10,11
 161 -146 161 -146 186 -131.5 c 128,-1,12
 211 -117 211 -117 226 -98.5 c 128,-1,13
 241 -80 241 -80 247 -56 c 128,-1,14
 253 -32 253 -32 253 0 c 1,15,-1
 122 0 l 1,16,-1
 122 293 l 1,4,-1
EndSplineSet
EndChar

StartChar: less
Encoding: 60 60 33
Width: 921
Flags: MW
LayerCount: 2
Fore
SplineSet
145 749 m 1,0,-1
 707 1266 l 1,1,-1
 809 1156 l 1,2,-1
 258 663 l 1,3,-1
 809 170 l 1,4,-1
 707 60 l 1,5,-1
 52 663 l 1,6,-1
 145 749 l 1,0,-1
EndSplineSet
EndChar

StartChar: equal
Encoding: 61 61 34
Width: 872
Flags: MW
LayerCount: 2
Fore
SplineSet
142 280 m 1,0,-1
 142 411 l 1,1,-1
 730 411 l 1,2,-1
 730 280 l 1,3,-1
 142 280 l 1,0,-1
142 508 m 1,4,-1
 142 639 l 1,5,-1
 730 639 l 1,6,-1
 730 508 l 1,7,-1
 142 508 l 1,4,-1
EndSplineSet
EndChar

StartChar: greater
Encoding: 62 62 35
Width: 921
Flags: MW
LayerCount: 2
Fore
SplineSet
214 60 m 1,0,-1
 112 170 l 1,1,-1
 663 663 l 1,2,-1
 112 1156 l 1,3,-1
 214 1266 l 1,4,-1
 869 663 l 1,5,-1
 214 60 l 1,0,-1
EndSplineSet
EndChar

StartChar: question
Encoding: 63 63 36
Width: 1016
Flags: MW
LayerCount: 2
Fore
SplineSet
429 218 m 1,0,-1
 429 0 l 1,1,-1
 229 0 l 1,2,-1
 229 218 l 1,3,-1
 429 218 l 1,0,-1
762 1195 m 0,4,5
 762 1312 762 1312 688 1365 c 128,-1,6
 614 1418 614 1418 468 1418 c 0,7,8
 396 1418 396 1418 333.5 1404.5 c 128,-1,9
 271 1391 271 1391 224 1375 c 0,10,11
 169 1356 169 1356 123 1332 c 1,12,-1
 62 1477 l 1,13,14
 117 1505 117 1505 182 1528 c 0,15,16
 238 1547 238 1547 311.5 1563 c 128,-1,17
 385 1579 385 1579 470 1579 c 0,18,19
 573 1579 573 1579 661 1556.5 c 128,-1,20
 749 1534 749 1534 814 1487 c 128,-1,21
 879 1440 879 1440 916 1368 c 128,-1,22
 953 1296 953 1296 953 1197 c 0,23,24
 953 1112 953 1112 928.5 1046 c 128,-1,25
 904 980 904 980 863 928.5 c 128,-1,26
 822 877 822 877 768 838 c 128,-1,27
 714 799 714 799 654.5 769 c 128,-1,28
 595 739 595 739 534.5 716.5 c 128,-1,29
 474 694 474 694 419 675 c 1,30,-1
 419 296 l 1,31,-1
 239 296 l 1,32,-1
 239 777 l 1,33,34
 372 822 372 822 470.5 864.5 c 128,-1,35
 569 907 569 907 633.5 955.5 c 128,-1,36
 698 1004 698 1004 730 1062 c 128,-1,37
 762 1120 762 1120 762 1195 c 0,4,5
EndSplineSet
EndChar

StartChar: at
Encoding: 64 64 37
Width: 1813
Flags: MW
LayerCount: 2
Fore
SplineSet
913 -155 m 0,0,1
 693 -155 693 -155 535 -96 c 128,-1,2
 377 -37 377 -37 275.5 63.5 c 128,-1,3
 174 164 174 164 126 297 c 128,-1,4
 78 430 78 430 78 578 c 0,5,6
 78 720 78 720 111.5 840 c 128,-1,7
 145 960 145 960 204 1057.5 c 128,-1,8
 263 1155 263 1155 344 1229.5 c 128,-1,9
 425 1304 425 1304 519.5 1354.5 c 128,-1,10
 614 1405 614 1405 718.5 1430.5 c 128,-1,11
 823 1456 823 1456 930 1456 c 0,12,13
 1038 1456 1038 1456 1140.5 1437.5 c 128,-1,14
 1243 1419 1243 1419 1333 1380.5 c 128,-1,15
 1423 1342 1423 1342 1497.5 1284.5 c 128,-1,16
 1572 1227 1572 1227 1625.5 1149.5 c 128,-1,17
 1679 1072 1679 1072 1709 973.5 c 128,-1,18
 1739 875 1739 875 1739 756 c 0,19,20
 1739 649 1739 649 1718 566 c 128,-1,21
 1697 483 1697 483 1661.5 421 c 128,-1,22
 1626 359 1626 359 1580.5 316.5 c 128,-1,23
 1535 274 1535 274 1486 248 c 128,-1,24
 1437 222 1437 222 1388 210.5 c 128,-1,25
 1339 199 1339 199 1298 199 c 0,26,27
 1263 199 1263 199 1243.5 208.5 c 128,-1,28
 1224 218 1224 218 1213.5 234 c 128,-1,29
 1203 250 1203 250 1200.5 271 c 128,-1,30
 1198 292 1198 292 1198 316 c 2,31,-1
 1198 548 l 1,32,33
 1186 489 1186 489 1155.5 427.5 c 128,-1,34
 1125 366 1125 366 1074 315 c 128,-1,35
 1023 264 1023 264 950.5 231.5 c 128,-1,36
 878 199 878 199 782 199 c 0,37,38
 696 199 696 199 628 226.5 c 128,-1,39
 560 254 560 254 513.5 305 c 128,-1,40
 467 356 467 356 442.5 428 c 128,-1,41
 418 500 418 500 418 590 c 0,42,43
 418 655 418 655 437.5 720 c 128,-1,44
 457 785 457 785 492.5 845 c 128,-1,45
 528 905 528 905 579 956.5 c 128,-1,46
 630 1008 630 1008 693 1046 c 128,-1,47
 756 1084 756 1084 829.5 1106 c 128,-1,48
 903 1128 903 1128 985 1128 c 0,49,50
 1001 1128 1001 1128 1030 1125.5 c 128,-1,51
 1059 1123 1059 1123 1092 1119.5 c 128,-1,52
 1125 1116 1125 1116 1158.5 1112 c 128,-1,53
 1192 1108 1192 1108 1216 1104 c 0,54,55
 1245 1099 1245 1099 1262 1088 c 128,-1,56
 1279 1077 1279 1077 1289.5 1061.5 c 128,-1,57
 1300 1046 1300 1046 1307 1027 c 128,-1,58
 1314 1008 1314 1008 1325 987 c 1,59,-1
 1325 317 l 1,60,61
 1386 317 1386 317 1433.5 341.5 c 128,-1,62
 1481 366 1481 366 1513 419.5 c 128,-1,63
 1545 473 1545 473 1562 556.5 c 128,-1,64
 1579 640 1579 640 1579 758 c 0,65,66
 1579 869 1579 869 1553 953.5 c 128,-1,67
 1527 1038 1527 1038 1481 1100 c 128,-1,68
 1435 1162 1435 1162 1373 1203.5 c 128,-1,69
 1311 1245 1311 1245 1239.5 1270.5 c 128,-1,70
 1168 1296 1168 1296 1090.5 1306.5 c 128,-1,71
 1013 1317 1013 1317 936 1317 c 0,72,73
 785 1317 785 1317 657 1267 c 128,-1,74
 529 1217 529 1217 435.5 1122 c 128,-1,75
 342 1027 342 1027 289.5 889.5 c 128,-1,76
 237 752 237 752 237 578 c 0,77,78
 237 440 237 440 281 329.5 c 128,-1,79
 325 219 325 219 411.5 142.5 c 128,-1,80
 498 66 498 66 626 25 c 128,-1,81
 754 -16 754 -16 923 -16 c 0,82,83
 1012 -16 1012 -16 1083 -4.5 c 128,-1,84
 1154 7 1154 7 1208.5 24 c 128,-1,85
 1263 41 1263 41 1302 61 c 128,-1,86
 1341 81 1341 81 1365.5 97.5 c 128,-1,87
 1390 114 1390 114 1400.5 124.5 c 128,-1,88
 1411 135 1411 135 1410 134 c 1,89,-1
 1501 42 l 1,90,91
 1460 -3 1460 -3 1400 -39.5 c 128,-1,92
 1340 -76 1340 -76 1264.5 -101.5 c 128,-1,93
 1189 -127 1189 -127 1100 -141 c 128,-1,94
 1011 -155 1011 -155 913 -155 c 0,0,1
1001 1008 m 0,95,96
 917 1008 917 1008 839.5 976.5 c 128,-1,97
 762 945 762 945 702.5 888 c 128,-1,98
 643 831 643 831 608 750.5 c 128,-1,99
 573 670 573 670 573 573 c 0,100,101
 573 330 573 330 798 330 c 0,102,103
 884 330 884 330 954 367.5 c 128,-1,104
 1024 405 1024 405 1073.5 485 c 128,-1,105
 1123 565 1123 565 1150 689 c 128,-1,106
 1177 813 1177 813 1177 987 c 1,107,108
 1178 987 1178 987 1161 990.5 c 128,-1,109
 1144 994 1144 994 1118 997.5 c 128,-1,110
 1092 1001 1092 1001 1060.5 1004.5 c 128,-1,111
 1029 1008 1029 1008 1001 1008 c 0,95,96
EndSplineSet
EndChar

StartChar: A
Encoding: 65 65 38
Width: 1280
Flags: MW
LayerCount: 2
Fore
SplineSet
344 288 m 1,0,-1
 256 0 l 1,1,-1
 64 0 l 1,2,-1
 512 1472 l 1,3,-1
 768 1472 l 1,4,-1
 1216 0 l 1,5,-1
 1024 0 l 1,6,-1
 936 288 l 1,7,-1
 344 288 l 1,0,-1
640 1344 m 1,8,-1
 384 448 l 1,9,-1
 896 448 l 1,10,-1
 640 1344 l 1,8,-1
EndSplineSet
EndChar

StartChar: B
Encoding: 66 66 39
Width: 1216
Flags: MW
LayerCount: 2
Fore
SplineSet
447 1472 m 2,0,1
 527 1472 527 1472 605.5 1468 c 128,-1,2
 684 1464 684 1464 755.5 1452 c 128,-1,3
 827 1440 827 1440 887.5 1416.5 c 128,-1,4
 948 1393 948 1393 992.5 1354 c 128,-1,5
 1037 1315 1037 1315 1062.5 1257.5 c 128,-1,6
 1088 1200 1088 1200 1088 1120 c 0,7,8
 1088 1036 1088 1036 1066 980 c 128,-1,9
 1044 924 1044 924 1008 888 c 128,-1,10
 972 852 972 852 926 832 c 128,-1,11
 880 812 880 812 832 800 c 1,12,13
 880 788 880 788 936 767.5 c 128,-1,14
 992 747 992 747 1040 708 c 128,-1,15
 1088 669 1088 669 1120 606.5 c 128,-1,16
 1152 544 1152 544 1152 448 c 0,17,18
 1152 328 1152 328 1106 243 c 128,-1,19
 1060 158 1060 158 976 104 c 128,-1,20
 892 50 892 50 774 25 c 128,-1,21
 656 0 656 0 512 0 c 2,22,-1
 128 0 l 1,23,-1
 128 1472 l 1,24,-1
 447 1472 l 2,0,1
513 160 m 2,25,26
 633 160 633 160 717.5 178 c 128,-1,27
 802 196 802 196 856 232 c 128,-1,28
 910 268 910 268 935 322 c 128,-1,29
 960 376 960 376 960 448 c 256,30,31
 960 520 960 520 935 569 c 128,-1,32
 910 618 910 618 856 648 c 128,-1,33
 802 678 802 678 717.5 691 c 128,-1,34
 633 704 633 704 513 704 c 2,35,-1
 320 704 l 1,36,-1
 320 160 l 1,37,-1
 513 160 l 2,25,26
320 864 m 1,38,-1
 513 864 l 2,39,40
 633 864 633 864 712.5 881.5 c 128,-1,41
 792 899 792 899 840 932 c 128,-1,42
 888 965 888 965 908 1012.5 c 128,-1,43
 928 1060 928 1060 928 1120 c 256,44,45
 928 1180 928 1180 898 1217.5 c 128,-1,46
 868 1255 868 1255 808 1276 c 128,-1,47
 748 1297 748 1297 658 1304.5 c 128,-1,48
 568 1312 568 1312 448 1312 c 2,49,-1
 320 1312 l 1,50,-1
 320 864 l 1,38,-1
EndSplineSet
EndChar

StartChar: C
Encoding: 67 67 40
Width: 1280
Flags: MW
LayerCount: 2
Fore
SplineSet
64 736 m 0,0,1
 64 916 64 916 110.5 1058.5 c 128,-1,2
 157 1201 157 1201 244 1300 c 128,-1,3
 331 1399 331 1399 455.5 1451.5 c 128,-1,4
 580 1504 580 1504 736 1504 c 0,5,6
 845 1504 845 1504 933.5 1479 c 128,-1,7
 1022 1454 1022 1454 1085 1424 c 0,8,9
 1159 1389 1159 1389 1216 1344 c 1,10,-1
 1152 1216 l 1,11,12
 1095 1252 1095 1252 1028 1280 c 0,13,14
 971 1304 971 1304 896 1324 c 128,-1,15
 821 1344 821 1344 737 1344 c 0,16,17
 629 1344 629 1344 540 1307.5 c 128,-1,18
 451 1271 451 1271 388 1196 c 128,-1,19
 325 1121 325 1121 290.5 1006.5 c 128,-1,20
 256 892 256 892 256 736 c 256,21,22
 256 580 256 580 290.5 465.5 c 128,-1,23
 325 351 325 351 388 276 c 128,-1,24
 451 201 451 201 540 164.5 c 128,-1,25
 629 128 629 128 737 128 c 0,26,27
 821 128 821 128 896 148 c 128,-1,28
 971 168 971 168 1028 192 c 0,29,30
 1095 220 1095 220 1152 256 c 1,31,-1
 1216 128 l 1,32,33
 1159 83 1159 83 1085 48 c 0,34,35
 1022 18 1022 18 933.5 -7 c 128,-1,36
 845 -32 845 -32 736 -32 c 0,37,38
 580 -32 580 -32 455.5 20 c 128,-1,39
 331 72 331 72 244 171 c 128,-1,40
 157 270 157 270 110.5 412.5 c 128,-1,41
 64 555 64 555 64 736 c 0,0,1
EndSplineSet
EndChar

StartChar: D
Encoding: 68 68 41
Width: 1408
Flags: MW
LayerCount: 2
Fore
SplineSet
1152 768 m 256,0,1
 1152 912 1152 912 1127 1015 c 128,-1,2
 1102 1118 1102 1118 1048 1184 c 128,-1,3
 994 1250 994 1250 909 1281 c 128,-1,4
 824 1312 824 1312 704 1312 c 2,5,-1
 320 1312 l 1,6,-1
 320 160 l 1,7,-1
 704 160 l 2,8,9
 824 160 824 160 909 201 c 128,-1,10
 994 242 994 242 1048 320 c 128,-1,11
 1102 398 1102 398 1127 511 c 128,-1,12
 1152 624 1152 624 1152 768 c 256,0,1
1344 768 m 256,13,14
 1344 672 1344 672 1332 578 c 128,-1,15
 1320 484 1320 484 1291.5 398.5 c 128,-1,16
 1263 313 1263 313 1216 240 c 128,-1,17
 1169 167 1169 167 1097.5 113.5 c 128,-1,18
 1026 60 1026 60 929 30 c 128,-1,19
 832 0 832 0 704 0 c 2,20,-1
 128 0 l 1,21,-1
 128 1472 l 1,22,-1
 704 1472 l 2,23,24
 832 1472 832 1472 929 1446.5 c 128,-1,25
 1026 1421 1026 1421 1097.5 1375 c 128,-1,26
 1169 1329 1169 1329 1216 1264 c 128,-1,27
 1263 1199 1263 1199 1291.5 1121 c 128,-1,28
 1320 1043 1320 1043 1332 953.5 c 128,-1,29
 1344 864 1344 864 1344 768 c 256,13,14
EndSplineSet
EndChar

StartChar: E
Encoding: 69 69 42
Width: 1152
Flags: MW
LayerCount: 2
Fore
SplineSet
128 0 m 1,0,-1
 128 1472 l 1,1,-1
 1088 1472 l 1,2,-1
 1088 1312 l 1,3,-1
 320 1312 l 1,4,-1
 320 832 l 1,5,-1
 1025 832 l 1,6,-1
 1025 672 l 1,7,-1
 320 672 l 1,8,-1
 320 160 l 1,9,-1
 1088 160 l 1,10,-1
 1088 0 l 1,11,-1
 128 0 l 1,0,-1
EndSplineSet
EndChar

StartChar: F
Encoding: 70 70 43
Width: 1024
Flags: MW
LayerCount: 2
Fore
SplineSet
320 0 m 1,0,-1
 128 0 l 1,1,-1
 128 1472 l 1,2,-1
 960 1472 l 1,3,-1
 960 1312 l 1,4,-1
 320 1312 l 1,5,-1
 320 896 l 1,6,-1
 896 896 l 1,7,-1
 896 736 l 1,8,-1
 320 736 l 1,9,-1
 320 0 l 1,0,-1
EndSplineSet
EndChar

StartChar: G
Encoding: 71 71 44
Width: 1408
Flags: MW
LayerCount: 2
Fore
SplineSet
1088 640 m 1,0,-1
 704 640 l 1,1,-1
 704 768 l 1,2,-1
 1279 768 l 1,3,-1
 1279 0 l 1,4,-1
 1152 0 l 1,5,-1
 1088 192 l 1,6,7
 1066 129 1066 129 1017 80 c 0,8,9
 996 59 996 59 967 39 c 128,-1,10
 938 19 938 19 900 3 c 128,-1,11
 862 -13 862 -13 813 -22.5 c 128,-1,12
 764 -32 764 -32 704 -32 c 0,13,14
 560 -32 560 -32 442 20 c 128,-1,15
 324 72 324 72 240 168 c 128,-1,16
 156 264 156 264 110 400 c 128,-1,17
 64 536 64 536 64 704 c 0,18,19
 64 897 64 897 110.5 1046 c 128,-1,20
 157 1195 157 1195 244 1297 c 128,-1,21
 331 1399 331 1399 455.5 1451.5 c 128,-1,22
 580 1504 580 1504 736 1504 c 0,23,24
 845 1504 845 1504 933.5 1479 c 128,-1,25
 1022 1454 1022 1454 1085 1424 c 0,26,27
 1159 1389 1159 1389 1216 1344 c 1,28,-1
 1152 1216 l 1,29,30
 1095 1252 1095 1252 1028 1280 c 0,31,32
 971 1304 971 1304 896 1324 c 128,-1,33
 821 1344 821 1344 736 1344 c 0,34,35
 628 1344 628 1344 539.5 1307 c 128,-1,36
 451 1270 451 1270 388 1192 c 128,-1,37
 325 1114 325 1114 290.5 993 c 128,-1,38
 256 872 256 872 256 704 c 0,39,40
 256 560 256 560 290 452 c 128,-1,41
 324 344 324 344 384 272 c 128,-1,42
 444 200 444 200 526 164 c 128,-1,43
 608 128 608 128 704 128 c 0,44,45
 752 128 752 128 794 136 c 128,-1,46
 836 144 836 144 872 157.5 c 128,-1,47
 908 171 908 171 938 188.5 c 128,-1,48
 968 206 968 206 992 224 c 0,49,50
 1048 266 1048 266 1088 320 c 1,51,-1
 1088 640 l 1,0,-1
EndSplineSet
EndChar

StartChar: H
Encoding: 72 72 45
Width: 1344
Flags: MW
LayerCount: 2
Fore
SplineSet
1024 704 m 1,0,-1
 320 704 l 1,1,-1
 320 0 l 1,2,-1
 128 0 l 1,3,-1
 128 1472 l 1,4,-1
 320 1472 l 1,5,-1
 320 864 l 1,6,-1
 1024 864 l 1,7,-1
 1024 1472 l 1,8,-1
 1216 1472 l 1,9,-1
 1216 0 l 1,10,-1
 1024 0 l 1,11,-1
 1024 704 l 1,0,-1
EndSplineSet
EndChar

StartChar: I
Encoding: 73 73 46
Width: 704
Flags: MW
LayerCount: 2
Fore
SplineSet
256 128 m 1,0,-1
 256 1344 l 1,1,-1
 64 1344 l 1,2,-1
 64 1472 l 1,3,-1
 640 1472 l 1,4,-1
 640 1344 l 1,5,-1
 448 1344 l 1,6,-1
 448 128 l 1,7,-1
 640 128 l 1,8,-1
 640 0 l 1,9,-1
 64 0 l 1,10,-1
 64 128 l 1,11,-1
 256 128 l 1,0,-1
EndSplineSet
EndChar

StartChar: J
Encoding: 74 74 47
Width: 640
Flags: MW
LayerCount: 2
Fore
SplineSet
-6 35 m 1,0,1
 105 55 105 55 169.5 88.5 c 128,-1,2
 234 122 234 122 267.5 175 c 128,-1,3
 301 228 301 228 310.5 302.5 c 128,-1,4
 320 377 320 377 320 479 c 2,5,-1
 320 1472 l 1,6,-1
 512 1472 l 1,7,-1
 512 514 l 2,8,9
 512 391 512 391 496.5 286 c 128,-1,10
 481 181 481 181 432 102.5 c 128,-1,11
 383 24 383 24 290.5 -26 c 128,-1,12
 198 -76 198 -76 45 -90 c 1,13,-1
 -6 35 l 1,0,1
EndSplineSet
EndChar

StartChar: K
Encoding: 75 75 48
Width: 1216
Flags: MW
LayerCount: 2
Fore
SplineSet
320 0 m 1,0,-1
 128 0 l 1,1,-1
 128 1472 l 1,2,-1
 320 1472 l 1,3,-1
 320 816 l 1,4,-1
 512 816 l 1,5,-1
 928 1472 l 1,6,-1
 1152 1472 l 1,7,-1
 704 736 l 1,8,-1
 1216 0 l 1,9,-1
 992 0 l 1,10,-1
 512 656 l 1,11,-1
 320 656 l 1,12,-1
 320 0 l 1,0,-1
EndSplineSet
EndChar

StartChar: L
Encoding: 76 76 49
Width: 1088
Flags: MW
LayerCount: 2
Fore
SplineSet
128 0 m 1,0,-1
 128 1472 l 1,1,-1
 320 1472 l 1,2,-1
 320 160 l 1,3,-1
 1024 160 l 1,4,-1
 1024 0 l 1,5,-1
 128 0 l 1,0,-1
EndSplineSet
EndChar

StartChar: M
Encoding: 77 77 50
Width: 1664
Flags: MW
LayerCount: 2
Fore
SplineSet
320 1280 m 1,0,-1
 320 0 l 1,1,-1
 128 0 l 1,2,-1
 128 1472 l 1,3,-1
 448 1472 l 1,4,-1
 832 320 l 1,5,-1
 1216 1472 l 1,6,-1
 1536 1472 l 1,7,-1
 1536 0 l 1,8,-1
 1344 0 l 1,9,-1
 1344 1280 l 1,10,-1
 896 0 l 1,11,-1
 768 0 l 1,12,-1
 320 1280 l 1,0,-1
EndSplineSet
EndChar

StartChar: N
Encoding: 78 78 51
Width: 1472
Flags: MW
LayerCount: 2
Fore
SplineSet
1088 0 m 1,0,-1
 320 1280 l 1,1,-1
 320 0 l 1,2,-1
 128 0 l 1,3,-1
 128 1472 l 1,4,-1
 384 1472 l 1,5,-1
 1152 192 l 1,6,-1
 1152 1472 l 1,7,-1
 1344 1472 l 1,8,-1
 1344 0 l 1,9,-1
 1088 0 l 1,0,-1
EndSplineSet
EndChar

StartChar: O
Encoding: 79 79 52
Width: 1472
Flags: MW
LayerCount: 2
Fore
SplineSet
736 1344 m 256,0,1
 628 1344 628 1344 539.5 1307.5 c 128,-1,2
 451 1271 451 1271 388 1196 c 128,-1,3
 325 1121 325 1121 290.5 1006.5 c 128,-1,4
 256 892 256 892 256 736 c 256,5,6
 256 580 256 580 290.5 465.5 c 128,-1,7
 325 351 325 351 388 276 c 128,-1,8
 451 201 451 201 539.5 164.5 c 128,-1,9
 628 128 628 128 736 128 c 256,10,11
 844 128 844 128 932.5 164.5 c 128,-1,12
 1021 201 1021 201 1084 276 c 128,-1,13
 1147 351 1147 351 1181.5 465.5 c 128,-1,14
 1216 580 1216 580 1216 736 c 256,15,16
 1216 892 1216 892 1181.5 1006.5 c 128,-1,17
 1147 1121 1147 1121 1084 1196 c 128,-1,18
 1021 1271 1021 1271 932.5 1307.5 c 128,-1,19
 844 1344 844 1344 736 1344 c 256,0,1
736 -32 m 256,20,21
 580 -32 580 -32 455.5 20 c 128,-1,22
 331 72 331 72 244 171 c 128,-1,23
 157 270 157 270 110.5 412.5 c 128,-1,24
 64 555 64 555 64 736 c 0,25,26
 64 916 64 916 110.5 1058.5 c 128,-1,27
 157 1201 157 1201 244 1300 c 128,-1,28
 331 1399 331 1399 455.5 1451.5 c 128,-1,29
 580 1504 580 1504 736 1504 c 256,30,31
 892 1504 892 1504 1016.5 1451.5 c 128,-1,32
 1141 1399 1141 1399 1228 1300 c 128,-1,33
 1315 1201 1315 1201 1361.5 1058.5 c 128,-1,34
 1408 916 1408 916 1408 736 c 0,35,36
 1408 555 1408 555 1361.5 412.5 c 128,-1,37
 1315 270 1315 270 1228 171 c 128,-1,38
 1141 72 1141 72 1016.5 20 c 128,-1,39
 892 -32 892 -32 736 -32 c 256,20,21
EndSplineSet
EndChar

StartChar: P
Encoding: 80 80 53
Width: 1216
Flags: MW
LayerCount: 2
Fore
SplineSet
1152 1024 m 256,0,1
 1152 904 1152 904 1115 814 c 128,-1,2
 1078 724 1078 724 1000 664 c 128,-1,3
 922 604 922 604 801 574 c 128,-1,4
 680 544 680 544 512 544 c 2,5,-1
 320 544 l 1,6,-1
 320 0 l 1,7,-1
 128 0 l 1,8,-1
 128 1472 l 1,9,-1
 512 1472 l 2,10,11
 656 1472 656 1472 774 1447 c 128,-1,12
 892 1422 892 1422 976 1368 c 128,-1,13
 1060 1314 1060 1314 1106 1229 c 128,-1,14
 1152 1144 1152 1144 1152 1024 c 256,0,1
512 704 m 2,15,16
 656 704 656 704 744 727 c 128,-1,17
 832 750 832 750 880.5 792 c 128,-1,18
 929 834 929 834 945 893 c 128,-1,19
 961 952 961 952 961 1024 c 256,20,21
 961 1096 961 1096 936 1150 c 128,-1,22
 911 1204 911 1204 856.5 1240 c 128,-1,23
 802 1276 802 1276 717 1294 c 128,-1,24
 632 1312 632 1312 512 1312 c 2,25,-1
 320 1312 l 1,26,-1
 320 704 l 1,27,-1
 512 704 l 2,15,16
EndSplineSet
EndChar

StartChar: Q
Encoding: 81 81 54
Width: 1472
Flags: MW
LayerCount: 2
Fore
SplineSet
1280 -256 m 1,0,-1
 1152 -384 l 1,1,-1
 680 -30 l 1,2,3
 536 -21 536 -21 422 35 c 128,-1,4
 308 91 308 91 228.5 189.5 c 128,-1,5
 149 288 149 288 106.5 425.5 c 128,-1,6
 64 563 64 563 64 736 c 0,7,8
 64 916 64 916 110.5 1058.5 c 128,-1,9
 157 1201 157 1201 244 1300 c 128,-1,10
 331 1399 331 1399 455.5 1451.5 c 128,-1,11
 580 1504 580 1504 736 1504 c 256,12,13
 892 1504 892 1504 1016.5 1451.5 c 128,-1,14
 1141 1399 1141 1399 1228 1300 c 128,-1,15
 1315 1201 1315 1201 1361.5 1058.5 c 128,-1,16
 1408 916 1408 916 1408 736 c 0,17,18
 1408 583 1408 583 1374.5 456.5 c 128,-1,19
 1341 330 1341 330 1277.5 235 c 128,-1,20
 1214 140 1214 140 1122 77.5 c 128,-1,21
 1030 15 1030 15 914 -12 c 1,22,-1
 1280 -256 l 1,0,-1
736 1344 m 256,23,24
 628 1344 628 1344 539.5 1307.5 c 128,-1,25
 451 1271 451 1271 388 1196 c 128,-1,26
 325 1121 325 1121 290.5 1006.5 c 128,-1,27
 256 892 256 892 256 736 c 256,28,29
 256 580 256 580 290.5 465.5 c 128,-1,30
 325 351 325 351 388 276 c 128,-1,31
 451 201 451 201 539.5 164.5 c 128,-1,32
 628 128 628 128 736 128 c 256,33,34
 844 128 844 128 932.5 164.5 c 128,-1,35
 1021 201 1021 201 1084 276 c 128,-1,36
 1147 351 1147 351 1181.5 465.5 c 128,-1,37
 1216 580 1216 580 1216 736 c 256,38,39
 1216 892 1216 892 1181.5 1006.5 c 128,-1,40
 1147 1121 1147 1121 1084 1196 c 128,-1,41
 1021 1271 1021 1271 932.5 1307.5 c 128,-1,42
 844 1344 844 1344 736 1344 c 256,23,24
EndSplineSet
EndChar

StartChar: R
Encoding: 82 82 55
Width: 1281
Flags: MW
LayerCount: 2
Fore
SplineSet
577 832 m 2,0,1
 697 832 697 832 772 845 c 128,-1,2
 847 858 847 858 889 888 c 128,-1,3
 931 918 931 918 946 967 c 128,-1,4
 961 1016 961 1016 961 1088 c 256,5,6
 961 1160 961 1160 928 1204 c 128,-1,7
 895 1248 895 1248 841 1272 c 128,-1,8
 787 1296 787 1296 718 1304 c 128,-1,9
 649 1312 649 1312 577 1312 c 2,10,-1
 321 1312 l 1,11,-1
 321 832 l 1,12,-1
 577 832 l 2,0,1
769 768 m 1,13,14
 889 768 889 768 964 743 c 128,-1,15
 1039 718 1039 718 1081 664 c 128,-1,16
 1123 610 1123 610 1138 525 c 128,-1,17
 1153 440 1153 440 1153 320 c 2,18,-1
 1153 0 l 1,19,-1
 961 0 l 1,20,-1
 961 416 l 2,21,22
 961 490 961 490 945.5 538 c 128,-1,23
 930 586 930 586 901.5 614.5 c 128,-1,24
 873 643 873 643 833 655.5 c 128,-1,25
 793 668 793 668 743 671.5 c 128,-1,26
 693 675 693 675 635 673.5 c 128,-1,27
 577 672 577 672 513 672 c 2,28,-1
 321 672 l 1,29,-1
 321 0 l 1,30,-1
 128 0 l 1,31,-1
 128 1472 l 1,32,-1
 577 1472 l 2,33,34
 1153 1472 1153 1472 1153 1088 c 0,35,36
 1153 992 1153 992 1120 930 c 128,-1,37
 1087 868 1087 868 1033 832 c 128,-1,38
 979 796 979 796 910 782 c 128,-1,39
 841 768 841 768 769 768 c 1,13,14
EndSplineSet
EndChar

StartChar: S
Encoding: 83 83 56
Width: 1280
Flags: MW
LayerCount: 2
Fore
SplineSet
1152 384 m 0,0,1
 1152 312 1152 312 1126 238 c 128,-1,2
 1100 164 1100 164 1039.5 104 c 128,-1,3
 979 44 979 44 880.5 6.5 c 128,-1,4
 782 -31 782 -31 637 -31 c 0,5,6
 517 -31 517 -31 423.5 -6.5 c 128,-1,7
 330 18 330 18 264 48 c 0,8,9
 187 83 187 83 128 128 c 1,10,-1
 192 256 l 1,11,12
 250 220 250 220 320 192 c 0,13,14
 380 168 380 168 461.5 148 c 128,-1,15
 543 128 543 128 640 128 c 0,16,17
 712 128 712 128 771 141 c 128,-1,18
 830 154 830 154 872 184 c 128,-1,19
 914 214 914 214 937 263 c 128,-1,20
 960 312 960 312 960 384 c 0,21,22
 960 432 960 432 947 468.5 c 128,-1,23
 934 505 934 505 904 535 c 128,-1,24
 874 565 874 565 825 590 c 128,-1,25
 776 615 776 615 704 640 c 2,26,-1
 384 752 l 2,27,28
 315 776 315 776 266.5 809.5 c 128,-1,29
 218 843 218 843 187.5 888 c 128,-1,30
 157 933 157 933 142.5 990.5 c 128,-1,31
 128 1048 128 1048 128 1120 c 0,32,33
 128 1197 128 1197 164 1266.5 c 128,-1,34
 200 1336 200 1336 267 1389 c 128,-1,35
 334 1442 334 1442 428.5 1473 c 128,-1,36
 523 1504 523 1504 640 1504 c 0,37,38
 761 1504 761 1504 855.5 1479 c 128,-1,39
 950 1454 950 1454 1016 1424 c 0,40,41
 1093 1389 1093 1389 1152 1344 c 1,42,-1
 1088 1216 l 1,43,44
 1030 1252 1030 1252 960 1280 c 0,45,46
 900 1304 900 1304 818.5 1324 c 128,-1,47
 737 1344 737 1344 640 1344 c 0,48,49
 558 1344 558 1344 498 1325 c 128,-1,50
 438 1306 438 1306 398.5 1275 c 128,-1,51
 359 1244 359 1244 339.5 1203.5 c 128,-1,52
 320 1163 320 1163 320 1120 c 0,53,54
 320 1072 320 1072 331 1040.5 c 128,-1,55
 342 1009 342 1009 365 987 c 128,-1,56
 388 965 388 965 424.5 948 c 128,-1,57
 461 931 461 931 512 912 c 2,58,-1
 896 768 l 2,59,60
 933 754 933 754 978 728 c 128,-1,61
 1023 702 1023 702 1061.5 657.5 c 128,-1,62
 1100 613 1100 613 1126 546.5 c 128,-1,63
 1152 480 1152 480 1152 384 c 0,0,1
EndSplineSet
EndChar

StartChar: T
Encoding: 84 84 57
Width: 1088
Flags: MW
LayerCount: 2
Fore
SplineSet
640 1312 m 1,0,-1
 640 0 l 1,1,-1
 448 0 l 1,2,-1
 448 1312 l 1,3,-1
 64 1312 l 1,4,-1
 64 1472 l 1,5,-1
 1024 1472 l 1,6,-1
 1024 1312 l 1,7,-1
 640 1312 l 1,0,-1
EndSplineSet
EndChar

StartChar: U
Encoding: 85 85 58
Width: 1408
Flags: MW
LayerCount: 2
Fore
SplineSet
704 -32 m 256,0,1
 536 -32 536 -32 425 20 c 128,-1,2
 314 72 314 72 248 168 c 128,-1,3
 182 264 182 264 155 400 c 128,-1,4
 128 536 128 536 128 704 c 2,5,-1
 128 1472 l 1,6,-1
 320 1472 l 1,7,-1
 320 704 l 2,8,9
 320 560 320 560 335 452 c 128,-1,10
 350 344 350 344 392 272 c 128,-1,11
 434 200 434 200 509 164 c 128,-1,12
 584 128 584 128 704 128 c 256,13,14
 824 128 824 128 899 164 c 128,-1,15
 974 200 974 200 1016 272 c 128,-1,16
 1058 344 1058 344 1073 452 c 128,-1,17
 1088 560 1088 560 1088 704 c 2,18,-1
 1088 1472 l 1,19,-1
 1280 1472 l 1,20,-1
 1280 704 l 2,21,22
 1280 536 1280 536 1253 400 c 128,-1,23
 1226 264 1226 264 1160 168 c 128,-1,24
 1094 72 1094 72 983 20 c 128,-1,25
 872 -32 872 -32 704 -32 c 256,0,1
EndSplineSet
EndChar

StartChar: V
Encoding: 86 86 59
Width: 1280
Flags: MW
LayerCount: 2
Fore
SplineSet
640 160 m 1,0,-1
 1008 1472 l 1,1,-1
 1216 1472 l 1,2,-1
 768 0 l 1,3,-1
 512 0 l 1,4,-1
 64 1472 l 1,5,-1
 272 1472 l 1,6,-1
 640 160 l 1,0,-1
EndSplineSet
EndChar

StartChar: W
Encoding: 87 87 60
Width: 1792
Flags: MW
LayerCount: 2
Fore
SplineSet
1024 1472 m 1,0,-1
 1280 144 l 1,1,-1
 1536 1472 l 1,2,-1
 1728 1472 l 1,3,-1
 1408 0 l 1,4,-1
 1152 0 l 1,5,-1
 896 1312 l 1,6,-1
 640 0 l 1,7,-1
 384 0 l 1,8,-1
 64 1472 l 1,9,-1
 256 1472 l 1,10,-1
 512 144 l 1,11,-1
 768 1472 l 1,12,-1
 1024 1472 l 1,0,-1
EndSplineSet
EndChar

StartChar: X
Encoding: 88 88 61
Width: 1280
Flags: MW
LayerCount: 2
Fore
SplineSet
640 656 m 1,0,-1
 272 0 l 1,1,-1
 64 0 l 1,2,-1
 512 768 l 1,3,-1
 64 1472 l 1,4,-1
 272 1472 l 1,5,-1
 640 880 l 1,6,-1
 1008 1472 l 1,7,-1
 1216 1472 l 1,8,-1
 768 768 l 1,9,-1
 1216 0 l 1,10,-1
 1008 0 l 1,11,-1
 640 656 l 1,0,-1
EndSplineSet
EndChar

StartChar: Y
Encoding: 89 89 62
Width: 1216
Flags: MW
LayerCount: 2
Fore
SplineSet
704 0 m 1,0,-1
 512 0 l 1,1,-1
 512 512 l 1,2,-1
 64 1472 l 1,3,-1
 256 1472 l 1,4,-1
 608 672 l 1,5,-1
 960 1472 l 1,6,-1
 1152 1472 l 1,7,-1
 704 512 l 1,8,-1
 704 0 l 1,0,-1
EndSplineSet
EndChar

StartChar: Z
Encoding: 90 90 63
Width: 1088
Flags: MW
LayerCount: 2
Fore
SplineSet
1024 1280 m 1,0,-1
 256 160 l 1,1,-1
 1024 160 l 1,2,-1
 1024 0 l 1,3,-1
 64 0 l 1,4,-1
 64 192 l 1,5,-1
 832 1312 l 1,6,-1
 64 1312 l 1,7,-1
 64 1472 l 1,8,-1
 1024 1472 l 1,9,-1
 1024 1280 l 1,0,-1
EndSplineSet
EndChar

StartChar: bracketleft
Encoding: 91 91 64
Width: 875
Flags: MW
LayerCount: 2
Fore
SplineSet
812 1579 m 1,0,-1
 812 1436 l 1,1,-1
 341 1436 l 1,2,-1
 341 143 l 1,3,-1
 812 143 l 1,4,-1
 812 0 l 1,5,-1
 148 0 l 1,6,-1
 148 1579 l 1,7,-1
 812 1579 l 1,0,-1
EndSplineSet
EndChar

StartChar: backslash
Encoding: 92 92 65
Width: 877
Flags: MW
LayerCount: 2
Fore
SplineSet
829 -114 m 1,0,-1
 669 -172 l 1,1,-1
 48 1679 l 1,2,-1
 206 1731 l 1,3,-1
 829 -114 l 1,0,-1
EndSplineSet
EndChar

StartChar: bracketright
Encoding: 93 93 66
Width: 875
Flags: MW
LayerCount: 2
Fore
SplineSet
727 1579 m 1,0,-1
 727 0 l 1,1,-1
 63 0 l 1,2,-1
 63 143 l 1,3,-1
 534 143 l 1,4,-1
 534 1436 l 1,5,-1
 63 1436 l 1,6,-1
 63 1579 l 1,7,-1
 727 1579 l 1,0,-1
EndSplineSet
EndChar

StartChar: asciicircum
Encoding: 94 94 67
Width: 1428
Flags: MW
LayerCount: 2
Fore
SplineSet
762 1011 m 1,0,-1
 1054 510 l 1,1,-1
 926 432 l 1,2,-1
 714 809 l 1,3,-1
 502 432 l 1,4,-1
 374 510 l 1,5,-1
 666 1011 l 1,6,-1
 762 1011 l 1,0,-1
EndSplineSet
EndChar

StartChar: underscore
Encoding: 95 95 68
Width: 1181
Flags: MW
LayerCount: 2
Fore
SplineSet
120 -111 m 1,0,-1
 120 33 l 1,1,-1
 1060 33 l 1,2,-1
 1060 -111 l 1,3,-1
 120 -111 l 1,0,-1
EndSplineSet
EndChar

StartChar: grave
Encoding: 96 96 69
Width: 640
Flags: MW
LayerCount: 2
Fore
SplineSet
384 1152 m 1,0,-1
 64 1600 l 1,1,-1
 320 1728 l 1,2,-1
 512 1216 l 1,3,-1
 384 1152 l 1,0,-1
EndSplineSet
EndChar

StartChar: a
Encoding: 97 97 70
Width: 1088
Flags: MW
LayerCount: 2
Fore
SplineSet
512 896 m 0,0,1
 440 896 440 896 381 886 c 128,-1,2
 322 876 322 876 280 864 c 0,3,4
 231 850 231 850 192 832 c 1,5,-1
 128 960 l 1,6,7
 168 987 168 987 224 1008 c 0,8,9
 272 1026 272 1026 343.5 1041 c 128,-1,10
 415 1056 415 1056 512 1056 c 0,11,12
 610 1056 610 1056 681.5 1038 c 128,-1,13
 753 1020 753 1020 803 985 c 128,-1,14
 853 950 853 950 883.5 900 c 128,-1,15
 914 850 914 850 931 786 c 128,-1,16
 948 722 948 722 954 645 c 128,-1,17
 960 568 960 568 960 480 c 2,18,-1
 960 0 l 1,19,-1
 832 0 l 1,20,-1
 768 128 l 1,21,22
 729 83 729 83 680 48 c 0,23,24
 638 18 638 18 579 -7 c 128,-1,25
 520 -32 520 -32 448 -32 c 0,26,27
 352 -32 352 -32 285 -4.5 c 128,-1,28
 218 23 218 23 175.5 68 c 128,-1,29
 133 113 133 113 114 170.5 c 128,-1,30
 95 228 95 228 95 288 c 0,31,32
 95 372 95 372 123.5 430 c 128,-1,33
 152 488 152 488 203 524 c 128,-1,34
 254 560 254 560 324.5 576 c 128,-1,35
 395 592 395 592 479 592 c 0,36,37
 538 592 538 592 590 584.5 c 128,-1,38
 642 577 642 577 682 568 c 0,39,40
 729 557 729 557 768 544 c 1,41,42
 768 628 768 628 764 693.5 c 128,-1,43
 760 759 760 759 736 804 c 128,-1,44
 712 849 712 849 660 872.5 c 128,-1,45
 608 896 608 896 512 896 c 0,0,1
479 128 m 0,46,47
 538 128 538 128 590 143 c 128,-1,48
 642 158 642 158 682 176 c 0,49,50
 729 197 729 197 768 224 c 1,51,-1
 768 416 l 1,52,53
 719 425 719 425 676 432 c 0,54,55
 639 438 639 438 601.5 443 c 128,-1,56
 564 448 564 448 543 448 c 0,57,58
 483 448 483 448 435.5 441 c 128,-1,59
 388 434 388 434 355 416 c 128,-1,60
 322 398 322 398 304.5 367 c 128,-1,61
 287 336 287 336 287 288 c 0,62,63
 287 228 287 228 308 195.5 c 128,-1,64
 329 163 329 163 359 148 c 128,-1,65
 389 133 389 133 422 130.5 c 128,-1,66
 455 128 455 128 479 128 c 0,46,47
EndSplineSet
EndChar

StartChar: b
Encoding: 98 98 71
Width: 1088
Flags: MW
LayerCount: 2
Fore
SplineSet
640 128 m 0,0,1
 688 128 688 128 721 147.5 c 128,-1,2
 754 167 754 167 775 199 c 128,-1,3
 796 231 796 231 808 272 c 128,-1,4
 820 313 820 313 825 355.5 c 128,-1,5
 830 398 830 398 831 439 c 128,-1,6
 832 480 832 480 832 512 c 256,7,8
 832 544 832 544 831 585 c 128,-1,9
 830 626 830 626 825 668.5 c 128,-1,10
 820 711 820 711 808 752 c 128,-1,11
 796 793 796 793 775 825 c 128,-1,12
 754 857 754 857 721 876.5 c 128,-1,13
 688 896 688 896 640 896 c 0,14,15
 568 896 568 896 509 876 c 128,-1,16
 450 856 450 856 408 832 c 0,17,18
 359 804 359 804 320 768 c 1,19,-1
 320 256 l 1,20,21
 359 220 359 220 408 192 c 0,22,23
 450 168 450 168 509 148 c 128,-1,24
 568 128 568 128 640 128 c 0,0,1
640 -32 m 0,25,26
 568 -32 568 -32 509 -7 c 128,-1,27
 450 18 450 18 408 48 c 0,28,29
 359 83 359 83 320 128 c 1,30,-1
 256 0 l 1,31,-1
 128 0 l 1,32,-1
 128 1472 l 1,33,-1
 320 1504 l 1,34,-1
 320 896 l 1,35,36
 359 941 359 941 408 976 c 0,37,38
 450 1006 450 1006 509 1031 c 128,-1,39
 568 1056 568 1056 640 1056 c 0,40,41
 720 1056 720 1056 779.5 1033.5 c 128,-1,42
 839 1011 839 1011 881.5 972 c 128,-1,43
 924 933 924 933 952 880 c 128,-1,44
 980 827 980 827 996 766.5 c 128,-1,45
 1012 706 1012 706 1018 641 c 128,-1,46
 1024 576 1024 576 1024 512 c 0,47,48
 1024 392 1024 392 1000 292 c 128,-1,49
 976 192 976 192 928 120 c 128,-1,50
 880 48 880 48 808 8 c 128,-1,51
 736 -32 736 -32 640 -32 c 0,25,26
EndSplineSet
EndChar

StartChar: c
Encoding: 99 99 72
Width: 896
Flags: MW
LayerCount: 2
Fore
SplineSet
256 512 m 256,0,1
 256 440 256 440 265 371 c 128,-1,2
 274 302 274 302 301.5 248 c 128,-1,3
 329 194 329 194 379.5 161 c 128,-1,4
 430 128 430 128 513 128 c 0,5,6
 555 128 555 128 600 138 c 128,-1,7
 645 148 645 148 683 160 c 0,8,9
 727 174 727 174 768 192 c 1,10,-1
 800 48 l 1,11,12
 765 26 765 26 721 8 c 0,13,14
 683 -7 683 -7 630 -19.5 c 128,-1,15
 577 -32 577 -32 513 -32 c 0,16,17
 425 -32 425 -32 357.5 -9.5 c 128,-1,18
 290 13 290 13 240 52 c 128,-1,19
 190 91 190 91 156.5 144 c 128,-1,20
 123 197 123 197 102.5 257.5 c 128,-1,21
 82 318 82 318 73 383 c 128,-1,22
 64 448 64 448 64 512 c 256,23,24
 64 576 64 576 73 641 c 128,-1,25
 82 706 82 706 102.5 766.5 c 128,-1,26
 123 827 123 827 157 880 c 128,-1,27
 191 933 191 933 241 972 c 128,-1,28
 291 1011 291 1011 358 1033.5 c 128,-1,29
 425 1056 425 1056 513 1056 c 0,30,31
 577 1056 577 1056 630 1043.5 c 128,-1,32
 683 1031 683 1031 721 1016 c 0,33,34
 765 998 765 998 800 976 c 1,35,-1
 768 832 l 1,36,37
 727 850 727 850 683 864 c 0,38,39
 645 876 645 876 600 886 c 128,-1,40
 555 896 555 896 513 896 c 0,41,42
 430 896 430 896 379.5 863 c 128,-1,43
 329 830 329 830 301.5 776 c 128,-1,44
 274 722 274 722 265 653 c 128,-1,45
 256 584 256 584 256 512 c 256,0,1
EndSplineSet
EndChar

StartChar: d
Encoding: 100 100 73
Width: 1088
Flags: MW
LayerCount: 2
Fore
SplineSet
448 128 m 0,0,1
 520 128 520 128 579 148 c 128,-1,2
 638 168 638 168 680 192 c 0,3,4
 729 220 729 220 768 256 c 1,5,-1
 768 800 l 1,6,7
 729 827 729 827 680 848 c 0,8,9
 638 866 638 866 579 881 c 128,-1,10
 520 896 520 896 448 896 c 0,11,12
 400 896 400 896 367 876.5 c 128,-1,13
 334 857 334 857 313 825 c 128,-1,14
 292 793 292 793 280 752 c 128,-1,15
 268 711 268 711 263 668.5 c 128,-1,16
 258 626 258 626 257 585 c 128,-1,17
 256 544 256 544 256 512 c 256,18,19
 256 480 256 480 257 439 c 128,-1,20
 258 398 258 398 263 355.5 c 128,-1,21
 268 313 268 313 280 272 c 128,-1,22
 292 231 292 231 313 199 c 128,-1,23
 334 167 334 167 367 147.5 c 128,-1,24
 400 128 400 128 448 128 c 0,0,1
448 -32 m 0,25,26
 352 -32 352 -32 280 8 c 128,-1,27
 208 48 208 48 160 120 c 128,-1,28
 112 192 112 192 88 292 c 128,-1,29
 64 392 64 392 64 512 c 0,30,31
 64 576 64 576 70 641 c 128,-1,32
 76 706 76 706 92 766.5 c 128,-1,33
 108 827 108 827 136 880 c 128,-1,34
 164 933 164 933 206.5 972 c 128,-1,35
 249 1011 249 1011 308.5 1033.5 c 128,-1,36
 368 1056 368 1056 448 1056 c 0,37,38
 520 1056 520 1056 579 1036 c 128,-1,39
 638 1016 638 1016 680 992 c 0,40,41
 729 964 729 964 768 928 c 1,42,-1
 768 1472 l 1,43,-1
 960 1504 l 1,44,-1
 960 0 l 1,45,-1
 832 0 l 1,46,-1
 768 128 l 1,47,48
 729 83 729 83 680 48 c 0,49,50
 638 18 638 18 579 -7 c 128,-1,51
 520 -32 520 -32 448 -32 c 0,25,26
EndSplineSet
EndChar

StartChar: e
Encoding: 101 101 74
Width: 990
Flags: MW
LayerCount: 2
Fore
SplineSet
896 64 m 1,0,1
 848 37 848 37 792 16 c 0,2,3
 744 -2 744 -2 680.5 -17 c 128,-1,4
 617 -32 617 -32 545 -32 c 0,5,6
 413 -32 413 -32 321.5 17 c 128,-1,7
 230 66 230 66 172.5 144 c 128,-1,8
 115 222 115 222 89.5 340 c 128,-1,9
 64 458 64 458 64 554 c 0,10,11
 64 618 64 618 72.5 683 c 128,-1,12
 81 748 81 748 101.5 808.5 c 128,-1,13
 122 869 122 869 156 921.5 c 128,-1,14
 190 974 190 974 239.5 1013.5 c 0,15,16
 288.683780797 1051.87415864 288.683780797 1051.87415864 356.5 1075.39990234 c 0,17,18
 421 1097 421 1097 512 1097.79980469 c 0,19,20
 608 1098 608 1098 684.5 1064.89990234 c 0,21,22
 761 1032 761 1032 815 969 c 128,-1,23
 869 906 869 906 897.5 813.5 c 128,-1,24
 926 721 926 721 926 602 c 1,25,-1
 912 522 l 1,26,-1
 256 522 l 1,27,28
 256 444 256 444 269.5 358 c 128,-1,29
 283 272 283 272 316.5 225.5 c 128,-1,30
 350 179 350 179 405.5 153.5 c 128,-1,31
 461 128 461 128 545 128 c 0,32,33
 617 128 617 128 675.5 140.5 c 128,-1,34
 734 153 734 153 776 168 c 0,35,36
 825 186 825 186 864 208 c 1,37,-1
 896 64 l 1,0,1
768 666 m 1,38,39
 763 720 763 720 749.5 769 c 128,-1,40
 736 818 736 818 707 855.5 c 128,-1,41
 678 893 678 893 631 915.5 c 128,-1,42
 584 938 584 938 512 938 c 256,43,44
 440 938 440 938 393.5 913 c 128,-1,45
 347 888 347 888 319 849 c 128,-1,46
 291 810 291 810 278 761.5 c 128,-1,47
 265 713 265 713 261 666 c 1,48,-1
 768 666 l 1,38,39
EndSplineSet
EndChar

StartChar: f
Encoding: 102 102 75
Width: 704
Flags: MW
LayerCount: 2
Fore
SplineSet
192 1023 m 2,0,1
 192 1144 192 1144 206.5 1234 c 128,-1,2
 221 1324 221 1324 257.5 1384 c 128,-1,3
 294 1444 294 1444 356 1474 c 128,-1,4
 418 1504 418 1504 512 1504 c 0,5,6
 560 1504 560 1504 606 1496 c 128,-1,7
 652 1488 652 1488 688 1479 c 0,8,9
 730 1468 730 1468 768 1455 c 1,10,-1
 736 1311 l 1,11,12
 707 1320 707 1320 672 1327 c 0,13,14
 642 1333 642 1333 601 1338.5 c 128,-1,15
 560 1344 560 1344 512 1344 c 0,16,17
 465 1344 465 1344 439 1321 c 128,-1,18
 413 1298 413 1298 401 1256 c 128,-1,19
 389 1214 389 1214 386.5 1155 c 128,-1,20
 384 1096 384 1096 384 1024 c 1,21,-1
 640 1024 l 1,22,-1
 640 880 l 1,23,-1
 384 880 l 1,24,-1
 384 0 l 1,25,-1
 192 0 l 1,26,-1
 192 880 l 1,27,-1
 0 880 l 1,28,-1
 0 1024 l 1,29,-1
 192 1024 l 1,30,-1
 192 1023 l 2,0,1
EndSplineSet
EndChar

StartChar: g
Encoding: 103 103 76
Width: 1088
Flags: MW
LayerCount: 2
Fore
SplineSet
512 -352 m 0,0,1
 608 -352 608 -352 670 -337.5 c 128,-1,2
 732 -323 732 -323 768 -297.5 c 128,-1,3
 804 -272 804 -272 818 -236.5 c 128,-1,4
 832 -201 832 -201 832 -160 c 0,5,6
 832 -112 832 -112 808 -81 c 128,-1,7
 784 -50 784 -50 736 -32 c 128,-1,8
 688 -14 688 -14 616 -7 c 128,-1,9
 544 0 544 0 448 0 c 2,10,-1
 320 0 l 1,11,12
 293 -28 293 -28 272 -60 c 0,13,14
 254 -87 254 -87 239 -121.5 c 128,-1,15
 224 -156 224 -156 224 -192 c 0,16,17
 224 -243 224 -243 242 -274.5 c 128,-1,18
 260 -306 260 -306 296 -323 c 128,-1,19
 332 -340 332 -340 386 -346 c 128,-1,20
 440 -352 440 -352 512 -352 c 0,0,1
384 464 m 1,21,22
 464 464 464 464 519 473.5 c 128,-1,23
 574 483 574 483 609.5 500 c 128,-1,24
 645 517 645 517 664 540 c 128,-1,25
 683 563 683 563 692 589.5 c 128,-1,26
 701 616 701 616 702.5 645 c 128,-1,27
 704 674 704 674 704 704 c 0,28,29
 704 896 704 896 512 896 c 0,30,31
 464 896 464 896 418 884 c 128,-1,32
 372 872 372 872 336 848 c 128,-1,33
 300 824 300 824 278 788 c 128,-1,34
 256 752 256 752 256 704 c 0,35,36
 256 615 256 615 276 566 c 128,-1,37
 296 517 296 517 320 495 c 0,38,39
 348 469 348 469 384 464 c 1,21,22
832 896 m 1,40,41
 850 876 850 876 864 848 c 0,42,43
 876 824 876 824 886 788 c 128,-1,44
 896 752 896 752 896 704 c 0,45,46
 896 628 896 628 871.5 558.5 c 128,-1,47
 847 489 847 489 793 436 c 128,-1,48
 739 383 739 383 654 351.5 c 128,-1,49
 569 320 569 320 448 320 c 0,50,51
 394 320 394 320 357.5 322 c 128,-1,52
 321 324 321 324 298.5 312 c 128,-1,53
 276 300 276 300 266 266 c 128,-1,54
 256 232 256 232 256 160 c 1,55,-1
 448 160 l 2,56,57
 592 160 592 160 700 146 c 128,-1,58
 808 132 808 132 880 96 c 128,-1,59
 952 60 952 60 988 -2 c 128,-1,60
 1024 -64 1024 -64 1024 -160 c 0,61,62
 1024 -248 1024 -248 989 -314 c 128,-1,63
 954 -380 954 -380 888 -424 c 128,-1,64
 822 -468 822 -468 727 -490 c 128,-1,65
 632 -512 632 -512 512 -512 c 0,66,67
 416 -512 416 -512 334 -499.5 c 128,-1,68
 252 -487 252 -487 192 -455 c 128,-1,69
 132 -423 132 -423 98 -367 c 128,-1,70
 64 -311 64 -311 64 -224 c 0,71,72
 64 -152 64 -152 84 -103 c 128,-1,73
 104 -54 104 -54 128 -24 c 0,74,75
 156 11 156 11 192 32 c 1,76,77
 165 52 165 52 144 80 c 0,78,79
 126 104 126 104 111 140 c 128,-1,80
 96 176 96 176 96 224 c 256,81,82
 96 272 96 272 112.5 306.5 c 128,-1,83
 129 341 129 341 153.5 364.5 c 128,-1,84
 178 388 178 388 205.5 400.5 c 128,-1,85
 233 413 233 413 256 416 c 1,86,87
 219 426 219 426 184.5 451.5 c 128,-1,88
 150 477 150 477 123 515 c 128,-1,89
 96 553 96 553 80 601 c 128,-1,90
 64 649 64 649 64 704 c 0,91,92
 64 776 64 776 98 840 c 128,-1,93
 132 904 132 904 192 952 c 128,-1,94
 252 1000 252 1000 334 1028 c 128,-1,95
 416 1056 416 1056 512 1056 c 0,96,97
 584 1056 584 1056 633 1041 c 128,-1,98
 682 1026 682 1026 712 1008 c 0,99,100
 747 987 747 987 768 960 c 1,101,102
 807 987 807 987 856 1008 c 0,103,104
 898 1026 898 1026 957 1041 c 128,-1,105
 1016 1056 1016 1056 1088 1056 c 1,106,-1
 1088 896 l 1,107,-1
 832 896 l 1,40,41
EndSplineSet
EndChar

StartChar: h
Encoding: 104 104 77
Width: 1088
Flags: MW
LayerCount: 2
Fore
SplineSet
320 896 m 1,0,1
 367 941 367 941 420 976 c 0,2,3
 465 1006 465 1006 522.5 1031 c 128,-1,4
 580 1056 580 1056 640 1056 c 0,5,6
 736 1056 736 1056 798 1026 c 128,-1,7
 860 996 860 996 896 936 c 128,-1,8
 932 876 932 876 946 786 c 128,-1,9
 960 696 960 696 960 576 c 2,10,-1
 960 0 l 1,11,-1
 768 0 l 1,12,-1
 768 576 l 2,13,14
 768 648 768 648 765.5 707 c 128,-1,15
 763 766 763 766 748 808 c 128,-1,16
 733 850 733 850 700.5 873 c 128,-1,17
 668 896 668 896 608 896 c 0,18,19
 560 896 560 896 509 876 c 128,-1,20
 458 856 458 856 416 832 c 0,21,22
 367 804 367 804 320 768 c 1,23,-1
 320 0 l 1,24,-1
 128 0 l 1,25,-1
 128 1472 l 1,26,-1
 320 1472 l 1,27,-1
 320 896 l 1,0,1
EndSplineSet
EndChar

StartChar: i
Encoding: 105 105 78
Width: 512
Flags: MW
LayerCount: 2
Fore
SplineSet
160 0 m 1,0,-1
 160 1024 l 1,1,-1
 352 1024 l 1,2,-1
 352 0 l 1,3,-1
 160 0 l 1,0,-1
128 1344 m 256,4,5
 128 1380 128 1380 139 1404.5 c 128,-1,6
 150 1429 150 1429 168 1444 c 128,-1,7
 186 1459 186 1459 209 1465.5 c 128,-1,8
 232 1472 232 1472 256 1472 c 256,9,10
 280 1472 280 1472 303 1465.5 c 128,-1,11
 326 1459 326 1459 344 1444 c 128,-1,12
 362 1429 362 1429 373 1404.5 c 128,-1,13
 384 1380 384 1380 384 1344 c 256,14,15
 384 1308 384 1308 372.5 1283.5 c 128,-1,16
 361 1259 361 1259 343 1244 c 128,-1,17
 325 1229 325 1229 302 1222.5 c 128,-1,18
 279 1216 279 1216 256 1216 c 0,19,20
 232 1216 232 1216 209 1222.5 c 128,-1,21
 186 1229 186 1229 168 1244 c 128,-1,22
 150 1259 150 1259 139 1283.5 c 128,-1,23
 128 1308 128 1308 128 1344 c 256,4,5
EndSplineSet
EndChar

StartChar: j
Encoding: 106 106 79
Width: 488
Flags: MW
LayerCount: 2
Fore
SplineSet
135 1462 m 0,0,1
 135 1486 135 1486 143.5 1506.5 c 128,-1,2
 152 1527 152 1527 167 1543 c 128,-1,3
 182 1559 182 1559 202 1568 c 128,-1,4
 222 1577 222 1577 245 1577 c 0,5,6
 269 1577 269 1577 289 1567.5 c 128,-1,7
 309 1558 309 1558 324 1542 c 128,-1,8
 339 1526 339 1526 347 1505 c 128,-1,9
 355 1484 355 1484 355 1462 c 0,10,11
 355 1438 355 1438 346.5 1417.5 c 128,-1,12
 338 1397 338 1397 323 1381 c 128,-1,13
 308 1365 308 1365 288 1356 c 128,-1,14
 268 1347 268 1347 245 1347 c 0,15,16
 221 1347 221 1347 201 1356.5 c 128,-1,17
 181 1366 181 1366 166 1382 c 128,-1,18
 151 1398 151 1398 143 1418.5 c 128,-1,19
 135 1439 135 1439 135 1462 c 0,0,1
-38 -258 m 1,20,21
 28 -216 28 -216 66 -166.5 c 128,-1,22
 104 -117 104 -117 122.5 -56 c 128,-1,23
 141 5 141 5 145.5 77.5 c 128,-1,24
 150 150 150 150 150 238 c 2,25,-1
 150 341 l 1,26,-1
 150 1169 l 1,27,-1
 340 1169 l 1,28,-1
 340 154 l 2,29,30
 340 51 340 51 317.5 -37.5 c 128,-1,31
 295 -126 295 -126 252 -194 c 128,-1,32
 209 -262 209 -262 148 -308 c 128,-1,33
 87 -354 87 -354 9 -373 c 1,34,-1
 -38 -258 l 1,20,21
EndSplineSet
EndChar

StartChar: k
Encoding: 107 107 80
Width: 1024
Flags: MW
LayerCount: 2
Fore
SplineSet
320 0 m 1,0,-1
 128 0 l 1,1,-1
 128 1472 l 1,2,-1
 320 1504 l 1,3,-1
 320 608 l 1,4,-1
 704 1024 l 1,5,-1
 960 1024 l 1,6,-1
 576 640 l 1,7,-1
 1024 0 l 1,8,-1
 800 0 l 1,9,-1
 448 544 l 1,10,-1
 320 416 l 1,11,-1
 320 0 l 1,0,-1
EndSplineSet
EndChar

StartChar: l
Encoding: 108 108 81
Width: 448
Flags: MW
LayerCount: 2
Fore
SplineSet
320 0 m 1,0,-1
 128 0 l 1,1,-1
 128 1472 l 1,2,-1
 320 1504 l 1,3,-1
 320 0 l 1,0,-1
EndSplineSet
EndChar

StartChar: m
Encoding: 109 109 82
Width: 1600
Flags: MW
LayerCount: 2
Fore
SplineSet
320 896 m 1,0,1
 363 941 363 941 411 976 c 0,2,3
 452 1006 452 1006 503.5 1031 c 128,-1,4
 555 1056 555 1056 610 1056 c 0,5,6
 674 1056 674 1056 714 1045.5 c 128,-1,7
 754 1035 754 1035 779.5 1013.5 c 128,-1,8
 805 992 805 992 821.5 960 c 128,-1,9
 838 928 838 928 856 885 c 1,10,11
 869 899 869 899 901 927.5 c 128,-1,12
 933 956 933 956 977 984.5 c 128,-1,13
 1021 1013 1021 1013 1074 1034.5 c 128,-1,14
 1127 1056 1127 1056 1184 1056 c 0,15,16
 1291 1056 1291 1056 1349.5 1026 c 128,-1,17
 1408 996 1408 996 1435 936 c 128,-1,18
 1462 876 1462 876 1467 786 c 128,-1,19
 1472 696 1472 696 1472 576 c 2,20,-1
 1472 0 l 1,21,-1
 1280 0 l 1,22,-1
 1280 576 l 2,23,24
 1280 648 1280 648 1278 707 c 128,-1,25
 1276 766 1276 766 1264 808 c 128,-1,26
 1252 850 1252 850 1226 873 c 128,-1,27
 1200 896 1200 896 1152 896 c 0,28,29
 1109 896 1109 896 1064 877.5 c 128,-1,30
 1019 859 1019 859 980.5 836.5 c 128,-1,31
 942 814 942 814 916 793.5 c 128,-1,32
 890 773 890 773 885 769 c 1,33,34
 891 727 891 727 893.5 678.5 c 128,-1,35
 896 630 896 630 896 576 c 2,36,-1
 896 0 l 1,37,-1
 704 0 l 1,38,-1
 704 576 l 2,39,40
 704 648 704 648 702 707 c 128,-1,41
 700 766 700 766 688 808 c 128,-1,42
 676 850 676 850 650 873 c 128,-1,43
 624 896 624 896 576 896 c 0,44,45
 532 896 532 896 486.5 876 c 128,-1,46
 441 856 441 856 404 832 c 0,47,48
 360 804 360 804 320 768 c 1,49,-1
 320 0 l 1,50,-1
 128 0 l 1,51,-1
 128 1024 l 1,52,-1
 256 1024 l 1,53,-1
 320 896 l 1,0,1
EndSplineSet
EndChar

StartChar: n
Encoding: 110 110 83
Width: 1267
Flags: HWO
HStem: 0 21G<98 293 781.233 975.233> 1032.25 153<448.207 723.175>
VStem: 98 195<0 936.999> 781.233 194<0 986.34>
LayerCount: 2
Fore
SplineSet
287 1042.25 m 5,0,1
 293 1053 293 1053 387 1115.25 c 4,2,3
 432 1145 432 1145 489.5 1170.25 c 4,4,5
 547 1195 547 1195 652.233398438 1195.25 c 4,6,7
 748 1195 748 1195 810.233398438 1165.25 c 4,8,9
 876 1133 876 1133 908.233398438 1075.25 c 4,10,11
 952 994 952 994 958.233398438 925.25 c 4,12,13
 975 724 975 724 975.233398438 722.25 c 6,14,-1
 975.233398438 0 l 5,15,-1
 781.233398438 0 l 5,16,-1
 781.233398438 722.25 l 6,17,18
 781 767 781 767 777.733398438 853.25 c 4,19,20
 775 912 775 912 760.233398438 954.25 c 4,21,22
 745 996 745 996 712.733398438 1019.25 c 4,23,24
 680 1042 680 1042 620.233398438 1042.25 c 4,25,26
 527 1042 527 1042 476 1022.25 c 4,27,28
 413 997 413 997 383 978.25 c 4,29,30
 300 923 300 923 293 914.25 c 5,31,-1
 293 0 l 5,32,-1
 98 0 l 5,33,-1
 98 1170.25 l 5,34,-1
 242 1170.25 l 5,35,-1
 287 1042.25 l 5,0,1
EndSplineSet
EndChar

StartChar: o
Encoding: 111 111 84
Width: 1024
Flags: MW
LayerCount: 2
Fore
SplineSet
512 903 m 260,0,1
 428 903 428 903 377.5 870 c 132,-1,2
 327 837 327 837 300 783 c 132,-1,3
 273 729 273 729 264.5 660 c 132,-1,4
 256 591 256 591 256 519 c 260,5,6
 256 447 256 447 264.5 378 c 132,-1,7
 273 309 273 309 300 255 c 132,-1,8
 327 201 327 201 377.5 168 c 132,-1,9
 428 135 428 135 512 135 c 260,10,11
 596 135 596 135 646.5 168 c 132,-1,12
 697 201 697 201 724 255 c 132,-1,13
 751 309 751 309 759.5 378 c 132,-1,14
 768 447 768 447 768 519 c 260,15,16
 768 591 768 591 759.5 660 c 132,-1,17
 751 729 751 729 724 783 c 132,-1,18
 697 837 697 837 646.5 870 c 132,-1,19
 596 903 596 903 512 903 c 260,0,1
512 -25 m 260,20,21
 426 -25 426 -25 359.5 -3.5 c 132,-1,22
 293 18 293 18 243 55.5 c 132,-1,23
 193 93 193 93 159 145 c 132,-1,24
 125 197 125 197 104 257.5 c 132,-1,25
 83 318 83 318 73.5 384.5 c 132,-1,26
 64 451 64 451 64 519 c 260,27,28
 64 587 64 587 73.5 653.5 c 132,-1,29
 83 720 83 720 104 780.5 c 132,-1,30
 125 841 125 841 159 893 c 132,-1,31
 193 945 193 945 243 982.5 c 132,-1,32
 293 1020 293 1020 359.5 1041.5 c 132,-1,33
 426 1063 426 1063 512 1063 c 260,34,35
 598 1063 598 1063 664.5 1041.5 c 132,-1,36
 731 1020 731 1020 781 982.5 c 132,-1,37
 831 945 831 945 865 893 c 132,-1,38
 899 841 899 841 920 780.5 c 132,-1,39
 941 720 941 720 950.5 653.5 c 132,-1,40
 960 587 960 587 960 519 c 260,41,42
 960 451 960 451 950.5 384.5 c 132,-1,43
 941 318 941 318 920 257.5 c 132,-1,44
 899 197 899 197 865 145 c 132,-1,45
 831 93 831 93 781 55.5 c 132,-1,46
 731 18 731 18 664.5 -3.5 c 132,-1,47
 598 -25 598 -25 512 -25 c 260,20,21
EndSplineSet
EndChar

StartChar: p
Encoding: 112 112 85
Width: 1088
Flags: MW
LayerCount: 2
Fore
SplineSet
640 896 m 0,0,1
 568 896 568 896 509 876 c 128,-1,2
 450 856 450 856 408 832 c 0,3,4
 359 804 359 804 320 768 c 1,5,-1
 320 192 l 1,6,7
 359 174 359 174 408 160 c 0,8,9
 450 148 450 148 509 138 c 128,-1,10
 568 128 568 128 640 128 c 0,11,12
 688 128 688 128 721 147.5 c 128,-1,13
 754 167 754 167 775 199 c 128,-1,14
 796 231 796 231 808 272 c 128,-1,15
 820 313 820 313 825 355.5 c 128,-1,16
 830 398 830 398 831 439 c 128,-1,17
 832 480 832 480 832 512 c 256,18,19
 832 544 832 544 831 585 c 128,-1,20
 830 626 830 626 825 668.5 c 128,-1,21
 820 711 820 711 808 752 c 128,-1,22
 796 793 796 793 775 825 c 128,-1,23
 754 857 754 857 721 876.5 c 128,-1,24
 688 896 688 896 640 896 c 0,0,1
640 1056 m 0,25,26
 736 1056 736 1056 808 1016 c 128,-1,27
 880 976 880 976 928 904 c 128,-1,28
 976 832 976 832 1000 732 c 128,-1,29
 1024 632 1024 632 1024 512 c 0,30,31
 1024 448 1024 448 1018 383 c 128,-1,32
 1012 318 1012 318 996 257.5 c 128,-1,33
 980 197 980 197 952 144 c 128,-1,34
 924 91 924 91 881.5 52 c 128,-1,35
 839 13 839 13 779.5 -9.5 c 128,-1,36
 720 -32 720 -32 640 -32 c 0,37,38
 568 -32 568 -32 509 -17 c 128,-1,39
 450 -2 450 -2 408 16 c 0,40,41
 359 37 359 37 320 64 c 1,42,-1
 320 -448 l 1,43,-1
 128 -448 l 1,44,-1
 128 1024 l 1,45,-1
 256 1024 l 1,46,-1
 320 896 l 1,47,48
 359 941 359 941 408 976 c 0,49,50
 450 1006 450 1006 509 1031 c 128,-1,51
 568 1056 568 1056 640 1056 c 0,25,26
EndSplineSet
EndChar

StartChar: q
Encoding: 113 113 86
Width: 1088
Flags: MW
LayerCount: 2
Fore
SplineSet
448 896 m 0,0,1
 400 896 400 896 367 876.5 c 128,-1,2
 334 857 334 857 313 825 c 128,-1,3
 292 793 292 793 280 752 c 128,-1,4
 268 711 268 711 263 668.5 c 128,-1,5
 258 626 258 626 257 585 c 128,-1,6
 256 544 256 544 256 512 c 256,7,8
 256 480 256 480 257 439 c 128,-1,9
 258 398 258 398 263 355.5 c 128,-1,10
 268 313 268 313 280 272 c 128,-1,11
 292 231 292 231 313 199 c 128,-1,12
 334 167 334 167 367 147.5 c 128,-1,13
 400 128 400 128 448 128 c 0,14,15
 520 128 520 128 579 138 c 128,-1,16
 638 148 638 148 680 160 c 0,17,18
 729 174 729 174 768 192 c 1,19,-1
 768 768 l 1,20,21
 729 804 729 804 680 832 c 0,22,23
 638 856 638 856 579 876 c 128,-1,24
 520 896 520 896 448 896 c 0,0,1
448 1056 m 0,25,26
 520 1056 520 1056 579 1031 c 128,-1,27
 638 1006 638 1006 680 976 c 0,28,29
 729 941 729 941 768 896 c 1,30,-1
 832 1024 l 1,31,-1
 960 1024 l 1,32,-1
 960 -448 l 1,33,-1
 768 -448 l 1,34,-1
 768 64 l 1,35,36
 729 37 729 37 680 16 c 0,37,38
 638 -2 638 -2 579 -17 c 128,-1,39
 520 -32 520 -32 448 -32 c 0,40,41
 368 -32 368 -32 308.5 -9.5 c 128,-1,42
 249 13 249 13 206.5 52 c 128,-1,43
 164 91 164 91 136 144 c 128,-1,44
 108 197 108 197 92 257.5 c 128,-1,45
 76 318 76 318 70 383 c 128,-1,46
 64 448 64 448 64 512 c 0,47,48
 64 632 64 632 88 732 c 128,-1,49
 112 832 112 832 160 904 c 128,-1,50
 208 976 208 976 280 1016 c 128,-1,51
 352 1056 352 1056 448 1056 c 0,25,26
EndSplineSet
EndChar

StartChar: r
Encoding: 114 114 87
Width: 704
Flags: MW
LayerCount: 2
Fore
SplineSet
320 832 m 1,0,1
 341 895 341 895 376 944 c 0,2,3
 391 965 391 965 410.5 985 c 128,-1,4
 430 1005 430 1005 455 1021 c 128,-1,5
 480 1037 480 1037 510 1046.5 c 128,-1,6
 540 1056 540 1056 576 1056 c 0,7,8
 600 1056 600 1056 623 1051 c 128,-1,9
 646 1046 646 1046 664 1040 c 0,10,11
 685 1033 685 1033 704 1024 c 1,12,-1
 704 881 l 1,13,14
 685 884 685 884 664 888 c 0,15,16
 646 891 646 891 623 893.5 c 128,-1,17
 600 896 600 896 576 896 c 256,18,19
 552 896 552 896 528 887.5 c 128,-1,20
 504 879 504 879 481.5 865.5 c 128,-1,21
 459 852 459 852 438.5 835 c 128,-1,22
 418 818 418 818 400 800 c 0,23,24
 358 758 358 758 320 704 c 1,25,-1
 320 0 l 1,26,-1
 128 0 l 1,27,-1
 128 1024 l 1,28,-1
 256 1024 l 1,29,-1
 320 832 l 1,0,1
EndSplineSet
EndChar

StartChar: s
Encoding: 115 115 88
Width: 896
Flags: MW
LayerCount: 2
Fore
SplineSet
255 513 m 2,0,1
 221 525 221 525 187 548 c 128,-1,2
 153 571 153 571 125.5 604 c 128,-1,3
 98 637 98 637 81 678.5 c 128,-1,4
 64 720 64 720 64 768 c 256,5,6
 64 816 64 816 79 867 c 128,-1,7
 94 918 94 918 136 960 c 128,-1,8
 178 1002 178 1002 253 1029 c 128,-1,9
 328 1056 328 1056 448 1056 c 0,10,11
 507 1056 507 1056 564.5 1046 c 128,-1,12
 622 1036 622 1036 667 1024 c 0,13,14
 720 1010 720 1010 768 992 c 1,15,-1
 736 834 l 1,16,17
 689 851 689 851 640 865 c 0,18,19
 598 876 598 876 547 886 c 128,-1,20
 496 896 496 896 448 896 c 0,21,22
 351 896 351 896 303.5 868 c 128,-1,23
 256 840 256 840 256 768 c 0,24,25
 256 720 256 720 285.5 691.5 c 128,-1,26
 315 663 315 663 384 640 c 2,27,-1
 576 576 l 2,28,29
 648 552 648 552 697 517 c 128,-1,30
 746 482 746 482 776 440 c 128,-1,31
 806 398 806 398 819 351 c 128,-1,32
 832 304 832 304 832 256 c 256,33,34
 832 208 832 208 817 157 c 128,-1,35
 802 106 802 106 760 64 c 128,-1,36
 718 22 718 22 643 -5 c 128,-1,37
 568 -32 568 -32 448 -32 c 0,38,39
 376 -32 376 -32 307 -17 c 128,-1,40
 238 -2 238 -2 184 16 c 0,41,42
 121 37 121 37 64 64 c 1,43,-1
 96 224 l 1,44,45
 161 197 161 197 224 176 c 0,46,47
 251 167 251 167 280.5 158.5 c 128,-1,48
 310 150 310 150 339 143 c 128,-1,49
 368 136 368 136 396 132 c 128,-1,50
 424 128 424 128 448 128 c 0,51,52
 496 128 496 128 532 139 c 128,-1,53
 568 150 568 150 592 168 c 128,-1,54
 616 186 616 186 628 209 c 128,-1,55
 640 232 640 232 640 256 c 256,56,57
 640 280 640 280 637 304 c 128,-1,58
 634 328 634 328 616 352 c 128,-1,59
 598 376 598 376 559 400 c 128,-1,60
 520 424 520 424 448 448 c 2,61,-1
 255 513 l 2,0,1
EndSplineSet
EndChar

StartChar: t
Encoding: 116 116 89
Width: 768
Flags: MW
LayerCount: 2
Fore
SplineSet
384 447 m 2,0,1
 384 375 384 375 386.5 316 c 128,-1,2
 389 257 389 257 401 215.5 c 128,-1,3
 413 174 413 174 439 151 c 128,-1,4
 465 128 465 128 512 128 c 0,5,6
 547 128 547 128 575.5 133 c 128,-1,7
 604 138 604 138 626 144 c 0,8,9
 651 151 651 151 672 160 c 1,10,-1
 704 16 l 1,11,12
 677 3 677 3 645 -8 c 0,13,14
 618 -17 618 -17 583.5 -24.5 c 128,-1,15
 549 -32 549 -32 512 -32 c 0,16,17
 418 -32 418 -32 356 -2.5 c 128,-1,18
 294 27 294 27 257.5 87 c 128,-1,19
 221 147 221 147 206.5 237 c 128,-1,20
 192 327 192 327 192 448 c 2,21,-1
 192 880 l 1,22,-1
 0 880 l 1,23,-1
 0 1025 l 1,24,-1
 192 1025 l 1,25,-1
 192 1472 l 1,26,-1
 384 1504 l 1,27,-1
 384 1025 l 1,28,-1
 640 1025 l 1,29,-1
 640 880 l 1,30,-1
 384 880 l 1,31,-1
 384 447 l 2,0,1
EndSplineSet
EndChar

StartChar: u
Encoding: 117 117 90
Width: 1088
Flags: MW
LayerCount: 2
Fore
SplineSet
768 128 m 1,0,1
 721 83 721 83 668 48 c 0,2,3
 623 18 623 18 565.5 -7 c 128,-1,4
 508 -32 508 -32 448 -32 c 0,5,6
 352 -32 352 -32 290 -2 c 128,-1,7
 228 28 228 28 192 88 c 128,-1,8
 156 148 156 148 142 238 c 128,-1,9
 128 328 128 328 128 448 c 2,10,-1
 128 1024 l 1,11,-1
 320 1024 l 1,12,-1
 320 448 l 2,13,14
 320 376 320 376 322.5 317 c 128,-1,15
 325 258 325 258 340 216 c 128,-1,16
 355 174 355 174 387.5 151 c 128,-1,17
 420 128 420 128 480 128 c 0,18,19
 528 128 528 128 579 148 c 128,-1,20
 630 168 630 168 672 192 c 0,21,22
 721 220 721 220 768 256 c 1,23,-1
 768 1024 l 1,24,-1
 960 1024 l 1,25,-1
 960 0 l 1,26,-1
 832 0 l 1,27,-1
 768 128 l 1,0,1
EndSplineSet
EndChar

StartChar: v
Encoding: 118 118 91
Width: 960
Flags: MW
LayerCount: 2
Fore
SplineSet
576 0 m 1,0,-1
 384 0 l 1,1,-1
 0 1024 l 1,2,-1
 192 1024 l 1,3,-1
 480 224 l 1,4,-1
 768 1024 l 1,5,-1
 960 1024 l 1,6,-1
 576 0 l 1,0,-1
EndSplineSet
EndChar

StartChar: w
Encoding: 119 119 92
Width: 1408
Flags: MW
LayerCount: 2
Fore
SplineSet
608 1024 m 1,0,-1
 800 1024 l 1,1,-1
 992 224 l 1,2,-1
 1184 1024 l 1,3,-1
 1376 1024 l 1,4,-1
 1088 0 l 1,5,-1
 896 0 l 1,6,-1
 704 768 l 1,7,-1
 512 0 l 1,8,-1
 320 0 l 1,9,-1
 32 1024 l 1,10,-1
 224 1024 l 1,11,-1
 416 224 l 1,12,-1
 608 1024 l 1,0,-1
EndSplineSet
EndChar

StartChar: x
Encoding: 120 120 93
Width: 1025
Flags: MW
LayerCount: 2
Fore
SplineSet
608 512 m 1,0,-1
 961 0 l 1,1,-1
 769 0 l 1,2,-1
 512 384 l 1,3,-1
 256 0 l 1,4,-1
 64 0 l 1,5,-1
 416 512 l 1,6,-1
 64 1024 l 1,7,-1
 256 1024 l 1,8,-1
 512 640 l 1,9,-1
 769 1024 l 1,10,-1
 961 1024 l 1,11,-1
 608 512 l 1,0,-1
EndSplineSet
EndChar

StartChar: y
Encoding: 121 121 94
Width: 1088
Flags: MW
LayerCount: 2
Fore
SplineSet
64 1024 m 1,0,-1
 256 1024 l 1,1,-1
 576 128 l 1,2,-1
 832 1024 l 1,3,-1
 1024 1024 l 1,4,-1
 704 0 l 1,5,6
 680 -72 680 -72 653 -142 c 128,-1,7
 626 -212 626 -212 584 -272 c 128,-1,8
 542 -332 542 -332 479 -378 c 128,-1,9
 416 -424 416 -424 320 -448 c 1,10,-1
 256 -320 l 1,11,12
 352 -296 352 -296 412 -244 c 128,-1,13
 472 -192 472 -192 496 -96 c 1,14,-1
 64 1024 l 1,0,-1
EndSplineSet
EndChar

StartChar: z
Encoding: 122 122 95
Width: 832
Flags: MW
LayerCount: 2
Fore
SplineSet
96 864 m 1,0,-1
 96 1024 l 1,1,-1
 768 1024 l 1,2,-1
 768 832 l 1,3,-1
 256 160 l 1,4,-1
 768 160 l 1,5,-1
 768 0 l 1,6,-1
 64 0 l 1,7,-1
 64 192 l 1,8,-1
 576 864 l 1,9,-1
 96 864 l 1,0,-1
EndSplineSet
EndChar

StartChar: braceleft
Encoding: 123 123 96
Width: 717
Flags: MW
LayerCount: 2
Fore
SplineSet
434 1096 m 0,0,1
 432 997 432 997 419.5 924 c 128,-1,2
 407 851 407 851 378.5 799.5 c 128,-1,3
 350 748 350 748 304.5 715.5 c 128,-1,4
 259 683 259 683 192 665 c 1,5,6
 258 647 258 647 303.5 615 c 128,-1,7
 349 583 349 583 377.5 531.5 c 128,-1,8
 406 480 406 480 419 407 c 128,-1,9
 432 334 432 334 434 234 c 0,10,11
 435 138 435 138 454.5 83 c 128,-1,12
 474 28 474 28 506 1 c 128,-1,13
 538 -26 538 -26 581 -33 c 128,-1,14
 624 -40 624 -40 672 -40 c 1,15,-1
 672 -209 l 1,16,17
 459 -209 459 -209 361 -91.5 c 128,-1,18
 263 26 263 26 263 263 c 0,19,20
 263 346 263 346 245.5 404.5 c 128,-1,21
 228 463 228 463 196.5 500 c 128,-1,22
 165 537 165 537 121 554 c 128,-1,23
 77 571 77 571 25 571 c 1,24,-1
 25 759 l 1,25,26
 79 759 79 759 123 776 c 128,-1,27
 167 793 167 793 198 830 c 128,-1,28
 229 867 229 867 246 925.5 c 128,-1,29
 263 984 263 984 263 1067 c 0,30,31
 263 1304 263 1304 361 1421.5 c 128,-1,32
 459 1539 459 1539 672 1539 c 1,33,-1
 672 1370 l 1,34,35
 624 1370 624 1370 581 1363 c 128,-1,36
 538 1356 538 1356 506 1329 c 128,-1,37
 474 1302 474 1302 454.5 1247 c 128,-1,38
 435 1192 435 1192 434 1096 c 0,0,1
EndSplineSet
EndChar

StartChar: bar
Encoding: 124 124 97
Width: 468
Flags: MW
LayerCount: 2
Fore
SplineSet
145 1696 m 1,0,-1
 323 1696 l 1,1,-1
 323 -111 l 1,2,-1
 145 -111 l 1,3,-1
 145 1696 l 1,0,-1
EndSplineSet
EndChar

StartChar: braceright
Encoding: 125 125 98
Width: 717
Flags: MW
LayerCount: 2
Fore
SplineSet
283 1096 m 1,0,1
 281 1192 281 1192 262 1247 c 128,-1,2
 243 1302 243 1302 211 1329 c 128,-1,3
 179 1356 179 1356 136 1363 c 128,-1,4
 93 1370 93 1370 45 1370 c 1,5,-1
 45 1539 l 1,6,7
 258 1539 258 1539 356 1421.5 c 128,-1,8
 454 1304 454 1304 454 1067 c 0,9,10
 454 984 454 984 471 925.5 c 128,-1,11
 488 867 488 867 519 830 c 128,-1,12
 550 793 550 793 594 776 c 128,-1,13
 638 759 638 759 692 759 c 1,14,-1
 692 571 l 1,15,16
 639 571 639 571 595.5 554 c 128,-1,17
 552 537 552 537 520.5 500 c 128,-1,18
 489 463 489 463 471.5 404.5 c 128,-1,19
 454 346 454 346 454 263 c 0,20,21
 454 26 454 26 356 -91.5 c 128,-1,22
 258 -209 258 -209 45 -209 c 1,23,-1
 45 -40 l 1,24,25
 93 -40 93 -40 136 -33 c 128,-1,26
 179 -26 179 -26 211 1 c 128,-1,27
 243 28 243 28 262 83 c 128,-1,28
 281 138 281 138 283 234 c 1,29,30
 284 334 284 334 297.5 407 c 128,-1,31
 311 480 311 480 339.5 531.5 c 128,-1,32
 368 583 368 583 413.5 615 c 128,-1,33
 459 647 459 647 525 665 c 1,34,35
 458 683 458 683 412.5 715.5 c 128,-1,36
 367 748 367 748 338.5 799.5 c 128,-1,37
 310 851 310 851 297 924 c 128,-1,38
 284 997 284 997 283 1096 c 1,0,1
EndSplineSet
EndChar

StartChar: asciitilde
Encoding: 126 126 99
Width: 981
Flags: MW
LayerCount: 2
Fore
SplineSet
674 390 m 0,0,1
 670 390 670 390 667 390 c 0,2,3
 632 390 632 390 598 399 c 0,4,5
 560 409 560 409 522 425 c 0,6,7
 481 442 481 442 451.5 457 c 128,-1,8
 422 472 422 472 400 483.5 c 128,-1,9
 378 495 378 495 362 502 c 128,-1,10
 346 509 346 509 333 509 c 0,11,12
 297 509 297 509 282 484.5 c 128,-1,13
 267 460 267 460 267 394 c 1,14,-1
 111 394 l 1,15,16
 111 468 111 468 126.5 518 c 128,-1,17
 142 568 142 568 169.5 598 c 128,-1,18
 197 628 197 628 235 641 c 128,-1,19
 273 654 273 654 318 654 c 0,20,21
 359 654 359 654 403 634.5 c 128,-1,22
 447 615 447 615 491 591.5 c 128,-1,23
 535 568 535 568 577.5 548.5 c 128,-1,24
 620 529 620 529 658 529 c 0,25,26
 679 529 679 529 690.5 540.5 c 128,-1,27
 702 552 702 552 707.5 569 c 128,-1,28
 713 586 713 586 714 605.5 c 128,-1,29
 715 625 715 625 715 640 c 1,30,-1
 871 640 l 1,31,32
 871 585 871 585 858.5 539 c 128,-1,33
 846 493 846 493 821 460 c 128,-1,34
 796 427 796 427 759 408.5 c 128,-1,35
 722 390 722 390 674 390 c 0,0,1
EndSplineSet
EndChar

StartChar: cent
Encoding: 162 162 102
Width: 1054
Flags: MW
LayerCount: 2
Fore
SplineSet
270 580 m 0,0,1
 270 480 270 480 287.5 400 c 128,-1,2
 305 320 305 320 340 262 c 128,-1,3
 375 204 375 204 428.5 170 c 128,-1,4
 482 136 482 136 554 129 c 1,5,-1
 554 1037 l 1,6,7
 480 1027 480 1027 426.5 990.5 c 128,-1,8
 373 954 373 954 338.5 894.5 c 128,-1,9
 304 835 304 835 287 755.5 c 128,-1,10
 270 676 270 676 270 580 c 0,0,1
554 -22 m 1,11,12
 440 -14 440 -14 352 31.5 c 128,-1,13
 264 77 264 77 203.5 154.5 c 128,-1,14
 143 232 143 232 111.5 340 c 128,-1,15
 80 448 80 448 80 580 c 0,16,17
 80 713 80 713 111.5 821 c 128,-1,18
 143 929 143 929 204 1007.5 c 128,-1,19
 265 1086 265 1086 353 1132.5 c 128,-1,20
 441 1179 441 1179 554 1189 c 1,21,-1
 554 1329 l 1,22,-1
 657 1329 l 1,23,-1
 657 1186 l 1,24,25
 695 1186 695 1186 738.5 1177 c 128,-1,26
 782 1168 782 1168 824.5 1152.5 c 128,-1,27
 867 1137 867 1137 907 1117.5 c 128,-1,28
 947 1098 947 1098 979 1077 c 1,29,-1
 922 944 l 1,30,31
 861 987 861 987 795 1011.5 c 128,-1,32
 729 1036 729 1036 657 1038 c 1,33,-1
 657 130 l 1,34,35
 729 132 729 132 794 151 c 128,-1,36
 859 170 859 170 922 205 c 1,37,-1
 968 68 l 1,38,39
 941 53 941 53 904 38 c 128,-1,40
 867 23 867 23 825 10 c 128,-1,41
 783 -3 783 -3 739.5 -11 c 128,-1,42
 696 -19 696 -19 657 -19 c 1,43,-1
 657 -159 l 1,44,-1
 554 -159 l 1,45,-1
 554 -22 l 1,11,12
EndSplineSet
EndChar

StartChar: sterling
Encoding: 163 163 103
Width: 1090
Flags: MW
LayerCount: 2
Fore
SplineSet
159 137 m 1,0,1
 184 167 184 167 209.5 214 c 128,-1,2
 235 261 235 261 255 321 c 128,-1,3
 275 381 275 381 288 452.5 c 128,-1,4
 301 524 301 524 301 603 c 1,5,-1
 104 603 l 1,6,-1
 104 706 l 1,7,-1
 274 706 l 1,8,9
 220 762 220 762 190.5 832 c 128,-1,10
 161 902 161 902 161 992 c 0,11,12
 161 1086 161 1086 196.5 1149 c 128,-1,13
 232 1212 232 1212 294.5 1250.5 c 128,-1,14
 357 1289 357 1289 442.5 1305.5 c 128,-1,15
 528 1322 528 1322 628 1322 c 0,16,17
 725 1322 725 1322 815.5 1295 c 128,-1,18
 906 1268 906 1268 991 1219 c 1,19,-1
 941 1088 l 1,20,21
 856 1128 856 1128 773 1154 c 128,-1,22
 690 1180 690 1180 611 1180 c 0,23,24
 473 1180 473 1180 408 1129 c 128,-1,25
 343 1078 343 1078 343 978 c 0,26,27
 343 931 343 931 350.5 895.5 c 128,-1,28
 358 860 358 860 372.5 829.5 c 128,-1,29
 387 799 387 799 408.5 769.5 c 128,-1,30
 430 740 430 740 459 706 c 1,31,-1
 887 706 l 1,32,-1
 887 603 l 1,33,-1
 459 603 l 1,34,35
 459 534 459 534 450 467 c 128,-1,36
 441 400 441 400 425 340 c 128,-1,37
 409 280 409 280 387 229.5 c 128,-1,38
 365 179 365 179 340 143 c 1,39,-1
 956 143 l 1,40,-1
 956 0 l 1,41,-1
 159 0 l 1,42,-1
 159 137 l 1,0,1
EndSplineSet
EndChar

StartChar: currency
Encoding: 164 164 104
Width: 1302
Flags: MW
LayerCount: 2
Fore
SplineSet
291 742 m 1,0,1
 223 846 223 846 223 970 c 0,2,3
 223 1097 223 1097 298 1208 c 1,4,-1
 104 1402 l 1,5,-1
 228 1526 l 1,6,-1
 422 1333 l 1,7,8
 534 1409 534 1409 661 1409 c 0,9,10
 786 1409 786 1409 890 1341 c 1,11,-1
 1076 1526 l 1,12,-1
 1200 1402 l 1,13,-1
 1013 1215 l 1,14,15
 1074 1118 1074 1118 1074 993 c 0,16,17
 1074 869 1074 869 998 757 c 1,18,-1
 1200 555 l 1,19,-1
 1076 430 l 1,20,-1
 873 633 l 1,21,22
 763 558 763 558 639 558 c 0,23,24
 514 558 514 558 417 619 c 1,25,-1
 228 430 l 1,26,-1
 104 555 l 1,27,-1
 291 742 l 1,0,1
655 1266 m 256,28,29
 598 1266 598 1266 545.5 1242 c 128,-1,30
 493 1218 493 1218 453.5 1177.5 c 128,-1,31
 414 1137 414 1137 390 1084.5 c 128,-1,32
 366 1032 366 1032 366 975 c 256,33,34
 366 918 366 918 388 867.5 c 128,-1,35
 410 817 410 817 448 779.5 c 128,-1,36
 486 742 486 742 536 720.5 c 128,-1,37
 586 699 586 699 642 699 c 0,38,39
 699 699 699 699 751 723 c 128,-1,40
 803 747 803 747 843.5 787 c 128,-1,41
 884 827 884 827 908 879.5 c 128,-1,42
 932 932 932 932 932 989 c 256,43,44
 932 1046 932 1046 910 1096.5 c 128,-1,45
 888 1147 888 1147 850.5 1184.5 c 128,-1,46
 813 1222 813 1222 762.5 1244 c 128,-1,47
 712 1266 712 1266 655 1266 c 256,28,29
EndSplineSet
EndChar

StartChar: yen
Encoding: 165 165 105
Width: 1326
Flags: MW
LayerCount: 2
Fore
SplineSet
1083 1579 m 1,0,-1
 1277 1579 l 1,1,-1
 796 688 l 1,2,-1
 1059 688 l 1,3,-1
 1059 584 l 1,4,-1
 763 584 l 1,5,-1
 763 488 l 1,6,-1
 1059 488 l 1,7,-1
 1059 389 l 1,8,-1
 763 389 l 1,9,-1
 763 0 l 1,10,-1
 573 0 l 1,11,-1
 573 389 l 1,12,-1
 271 389 l 1,13,-1
 271 488 l 1,14,-1
 573 488 l 1,15,-1
 573 584 l 1,16,-1
 271 584 l 1,17,-1
 271 688 l 1,18,-1
 532 688 l 1,19,-1
 49 1579 l 1,20,-1
 243 1579 l 1,21,-1
 663 788 l 1,22,-1
 1083 1579 l 1,0,-1
EndSplineSet
EndChar

StartChar: brokenbar
Encoding: 166 166 106
Width: 488
Flags: MW
LayerCount: 2
Fore
SplineSet
150 1579 m 1,0,-1
 338 1579 l 1,1,-1
 338 889 l 1,2,-1
 150 889 l 1,3,-1
 150 1579 l 1,0,-1
150 690 m 1,4,-1
 338 690 l 1,5,-1
 338 0 l 1,6,-1
 150 0 l 1,7,-1
 150 690 l 1,4,-1
EndSplineSet
EndChar

StartChar: section
Encoding: 167 167 107
Width: 1006
Flags: MW
LayerCount: 2
Fore
SplineSet
502 600 m 0,0,1
 544 600 544 600 586.5 605.5 c 128,-1,2
 629 611 629 611 663 627 c 128,-1,3
 697 643 697 643 718 673 c 128,-1,4
 739 703 739 703 739 751 c 256,5,6
 739 799 739 799 719 829.5 c 128,-1,7
 699 860 699 860 666 877 c 128,-1,8
 633 894 633 894 589.5 900 c 128,-1,9
 546 906 546 906 500 906 c 0,10,11
 447 906 447 906 404 898 c 128,-1,12
 361 890 361 890 330 871.5 c 128,-1,13
 299 853 299 853 282 824 c 128,-1,14
 265 795 265 795 265 753 c 0,15,16
 265 675 265 675 324.5 637.5 c 128,-1,17
 384 600 384 600 502 600 c 0,0,1
792 1316 m 1,18,19
 726 1367 726 1367 654.5 1395.5 c 128,-1,20
 583 1424 583 1424 498 1424 c 0,21,22
 377 1424 377 1424 322 1386.5 c 128,-1,23
 267 1349 267 1349 267 1271 c 0,24,25
 267 1236 267 1236 287.5 1212 c 128,-1,26
 308 1188 308 1188 348 1168.5 c 128,-1,27
 388 1149 388 1149 445.5 1129.5 c 128,-1,28
 503 1110 503 1110 578 1083 c 0,29,30
 649 1057 649 1057 708 1027 c 128,-1,31
 767 997 767 997 809.5 958.5 c 128,-1,32
 852 920 852 920 875.5 870.5 c 128,-1,33
 899 821 899 821 899 756 c 0,34,35
 899 690 899 690 876 647.5 c 128,-1,36
 853 605 853 605 816.5 579 c 128,-1,37
 780 553 780 553 736 540.5 c 128,-1,38
 692 528 692 528 650 522 c 1,39,40
 722 496 722 496 770 465 c 128,-1,41
 818 434 818 434 847 394 c 128,-1,42
 876 354 876 354 888.5 304 c 128,-1,43
 901 254 901 254 901 191 c 0,44,45
 901 132 901 132 872 79.5 c 128,-1,46
 843 27 843 27 791 -13 c 128,-1,47
 739 -53 739 -53 667 -76 c 128,-1,48
 595 -99 595 -99 510 -99 c 0,49,50
 442 -99 442 -99 378.5 -85.5 c 128,-1,51
 315 -72 315 -72 263 -53.5 c 128,-1,52
 211 -35 211 -35 174 -14.5 c 128,-1,53
 137 6 137 6 121 20 c 1,54,-1
 182 158 l 1,55,56
 212 127 212 127 252.5 106 c 128,-1,57
 293 85 293 85 333.5 72.5 c 128,-1,58
 374 60 374 60 410 55 c 128,-1,59
 446 50 446 50 468 50 c 0,60,61
 597 50 597 50 664.5 90 c 128,-1,62
 732 130 732 130 732 223 c 0,63,64
 732 266 732 266 718.5 295 c 128,-1,65
 705 324 705 324 681 344 c 128,-1,66
 657 364 657 364 623.5 377.5 c 128,-1,67
 590 391 590 391 551 405 c 2,68,-1
 391 459 l 2,69,70
 335 478 335 478 284 500.5 c 128,-1,71
 233 523 233 523 194.5 556 c 128,-1,72
 156 589 156 589 133.5 635.5 c 128,-1,73
 111 682 111 682 111 750 c 0,74,75
 111 798 111 798 124 839.5 c 128,-1,76
 137 881 137 881 166.5 913 c 128,-1,77
 196 945 196 945 245 966 c 128,-1,78
 294 987 294 987 366 995 c 1,79,80
 289 1023 289 1023 240 1052 c 128,-1,81
 191 1081 191 1081 162 1116 c 128,-1,82
 133 1151 133 1151 122 1195 c 128,-1,83
 111 1239 111 1239 111 1296 c 0,84,85
 111 1368 111 1368 146.5 1419.5 c 128,-1,86
 182 1471 182 1471 237.5 1504.5 c 128,-1,87
 293 1538 293 1538 361.5 1553.5 c 128,-1,88
 430 1569 430 1569 495 1569 c 0,89,90
 539 1569 539 1569 592.5 1557.5 c 128,-1,91
 646 1546 646 1546 696.5 1528.5 c 128,-1,92
 747 1511 747 1511 788.5 1490.5 c 128,-1,93
 830 1470 830 1470 850 1452 c 1,94,-1
 792 1316 l 1,18,19
EndSplineSet
EndChar

StartChar: dieresis
Encoding: 168 168 108
Width: 896
Flags: MW
LayerCount: 2
Fore
SplineSet
128 1472 m 1,0,-1
 384 1472 l 1,1,-1
 384 1216 l 1,2,-1
 128 1216 l 1,3,-1
 128 1472 l 1,0,-1
512 1472 m 1,4,-1
 768 1472 l 1,5,-1
 768 1216 l 1,6,-1
 512 1216 l 1,7,-1
 512 1472 l 1,4,-1
EndSplineSet
EndChar

StartChar: copyright
Encoding: 169 169 109
Width: 1893
Flags: MW
LayerCount: 2
Fore
SplineSet
947 101 m 256,0,1
 1110 101 1110 101 1244 158 c 128,-1,2
 1378 215 1378 215 1473.5 313.5 c 128,-1,3
 1569 412 1569 412 1621.5 544.5 c 128,-1,4
 1674 677 1674 677 1674 829 c 0,5,6
 1674 942 1674 942 1644 1040.5 c 128,-1,7
 1614 1139 1614 1139 1562.5 1220.5 c 128,-1,8
 1511 1302 1511 1302 1440.5 1365.5 c 128,-1,9
 1370 1429 1370 1429 1289.5 1472.5 c 128,-1,10
 1209 1516 1209 1516 1121.5 1539 c 128,-1,11
 1034 1562 1034 1562 947 1562 c 0,12,13
 859 1562 859 1562 771 1539 c 128,-1,14
 683 1516 683 1516 602 1472 c 128,-1,15
 521 1428 521 1428 451.5 1364.5 c 128,-1,16
 382 1301 382 1301 330.5 1219.5 c 128,-1,17
 279 1138 279 1138 249.5 1040 c 128,-1,18
 220 942 220 942 220 829 c 0,19,20
 220 677 220 677 272.5 544.5 c 128,-1,21
 325 412 325 412 420.5 313.5 c 128,-1,22
 516 215 516 215 650 158 c 128,-1,23
 784 101 784 101 947 101 c 256,0,1
624 831 m 256,24,25
 624 724 624 724 645.5 653 c 128,-1,26
 667 582 667 582 710 540 c 128,-1,27
 753 498 753 498 818 481 c 128,-1,28
 883 464 883 464 970 464 c 0,29,30
 1113 464 1113 464 1264 540 c 1,31,-1
 1264 414 l 1,32,33
 1111 336 1111 336 984 336 c 0,34,35
 828 336 828 336 726.5 378 c 128,-1,36
 625 420 625 420 566.5 489 c 128,-1,37
 508 558 508 558 485 647 c 128,-1,38
 462 736 462 736 462 831 c 0,39,40
 462 894 462 894 471.5 955 c 128,-1,41
 481 1016 481 1016 504.5 1071 c 128,-1,42
 528 1126 528 1126 566.5 1173 c 128,-1,43
 605 1220 605 1220 663 1254 c 128,-1,44
 721 1288 721 1288 800 1307 c 128,-1,45
 879 1326 879 1326 984 1326 c 0,46,47
 1111 1326 1111 1326 1264 1248 c 1,48,-1
 1264 1122 l 1,49,50
 1113 1198 1113 1198 970 1198 c 0,51,52
 883 1198 883 1198 818 1181 c 128,-1,53
 753 1164 753 1164 710 1122 c 128,-1,54
 667 1080 667 1080 645.5 1009 c 128,-1,55
 624 938 624 938 624 831 c 256,24,25
947 -23 m 0,56,57
 836 -23 836 -23 728 4 c 128,-1,58
 620 31 620 31 522.5 82 c 128,-1,59
 425 133 425 133 342.5 207.5 c 128,-1,60
 260 282 260 282 200 377 c 128,-1,61
 140 472 140 472 106 585.5 c 128,-1,62
 72 699 72 699 72 830 c 256,63,64
 72 961 72 961 107 1075 c 128,-1,65
 142 1189 142 1189 204 1284 c 128,-1,66
 266 1379 266 1379 350 1454 c 128,-1,67
 434 1529 434 1529 531 1581 c 128,-1,68
 628 1633 628 1633 734 1660 c 128,-1,69
 840 1687 840 1687 947 1687 c 256,70,71
 1054 1687 1054 1687 1160.5 1659.5 c 128,-1,72
 1267 1632 1267 1632 1364.5 1580 c 128,-1,73
 1462 1528 1462 1528 1545.5 1453 c 128,-1,74
 1629 1378 1629 1378 1690.5 1283 c 128,-1,75
 1752 1188 1752 1188 1787 1074 c 128,-1,76
 1822 960 1822 960 1822 830 c 0,77,78
 1822 702 1822 702 1789 589 c 128,-1,79
 1756 476 1756 476 1696.5 381.5 c 128,-1,80
 1637 287 1637 287 1555 211.5 c 128,-1,81
 1473 136 1473 136 1376 84 c 128,-1,82
 1279 32 1279 32 1170 4.5 c 128,-1,83
 1061 -23 1061 -23 947 -23 c 0,56,57
EndSplineSet
EndChar

StartChar: ordfeminine
Encoding: 170 170 110
Width: 975
Flags: MW
LayerCount: 2
Fore
SplineSet
701 828 m 2,0,1
 700 828 700 828 685 803 c 128,-1,2
 670 778 670 778 636 748 c 128,-1,3
 602 718 602 718 546 693 c 128,-1,4
 490 668 490 668 407 668 c 0,5,6
 333 668 333 668 274.5 687.5 c 128,-1,7
 216 707 216 707 175 744 c 128,-1,8
 134 781 134 781 112 835.5 c 128,-1,9
 90 890 90 890 90 960 c 0,10,11
 90 1032 90 1032 116 1087.5 c 128,-1,12
 142 1143 142 1143 189.5 1181 c 128,-1,13
 237 1219 237 1219 303 1238.5 c 128,-1,14
 369 1258 369 1258 449 1258 c 0,15,16
 492 1258 492 1258 533.5 1253 c 128,-1,17
 575 1248 575 1248 607.5 1241 c 128,-1,18
 640 1234 640 1234 660.5 1227.5 c 128,-1,19
 681 1221 681 1221 683 1218 c 1,20,-1
 683 1276 l 2,21,22
 683 1334 683 1334 676.5 1378.5 c 128,-1,23
 670 1423 670 1423 649.5 1453 c 128,-1,24
 629 1483 629 1483 591.5 1498 c 128,-1,25
 554 1513 554 1513 491 1513 c 0,26,27
 432 1513 432 1513 379.5 1502 c 128,-1,28
 327 1491 327 1491 287.5 1478 c 128,-1,29
 248 1465 248 1465 224.5 1454 c 128,-1,30
 201 1443 201 1443 200 1443 c 2,31,-1
 147 1552 l 2,32,33
 148 1552 148 1552 174 1565.5 c 128,-1,34
 200 1579 200 1579 245 1595 c 128,-1,35
 290 1611 290 1611 351 1624.5 c 128,-1,36
 412 1638 412 1638 483 1638 c 0,37,38
 585 1638 585 1638 654 1616 c 128,-1,39
 723 1594 723 1594 765.5 1545.5 c 128,-1,40
 808 1497 808 1497 826 1420.5 c 128,-1,41
 844 1344 844 1344 844 1235 c 2,42,-1
 844 686 l 1,43,-1
 728 686 l 1,44,-1
 701 828 l 2,0,1
683 1141 m 1,45,46
 632 1149 632 1149 588 1153.5 c 128,-1,47
 544 1158 544 1158 507 1158 c 0,48,49
 251 1158 251 1158 251 971 c 0,50,51
 251 918 251 918 261 882 c 128,-1,52
 271 846 271 846 293.5 823.5 c 128,-1,53
 316 801 316 801 353 791 c 128,-1,54
 390 781 390 781 445 781 c 256,55,56
 500 781 500 781 544 799.5 c 128,-1,57
 588 818 588 818 619 840.5 c 128,-1,58
 650 863 650 863 666.5 882 c 128,-1,59
 683 901 683 901 683 903 c 2,60,-1
 683 1141 l 1,45,46
154 575 m 1,61,-1
 838 575 l 1,62,-1
 838 446 l 1,63,-1
 154 446 l 1,64,-1
 154 575 l 1,61,-1
EndSplineSet
EndChar

StartChar: guillemotleft
Encoding: 171 171 111
Width: 1377
Flags: MW
LayerCount: 2
Fore
SplineSet
831 577 m 1,0,-1
 1268 306 l 1,1,-1
 1268 99 l 1,2,-1
 660 481 l 1,3,-1
 660 666 l 1,4,-1
 1268 1049 l 1,5,-1
 1268 842 l 1,6,-1
 831 577 l 1,0,-1
224 577 m 1,7,-1
 660 306 l 1,8,-1
 660 99 l 1,9,-1
 52 481 l 1,10,-1
 52 666 l 1,11,-1
 660 1049 l 1,12,-1
 660 842 l 1,13,-1
 224 577 l 1,7,-1
EndSplineSet
EndChar

StartChar: logicalnot
Encoding: 172 172 112
Width: 1636
Flags: MW
LayerCount: 2
Fore
SplineSet
92 1018 m 1,0,-1
 92 1169 l 1,1,-1
 1446 1169 l 1,2,-1
 1446 338 l 1,3,-1
 1270 338 l 1,4,-1
 1270 1018 l 1,5,-1
 92 1018 l 1,0,-1
EndSplineSet
EndChar

StartChar: uni00AD
Encoding: 173 173 113
Width: 916
Flags: MW
LayerCount: 2
Fore
SplineSet
224 508 m 1,0,-1
 224 639 l 1,1,-1
 692 639 l 1,2,-1
 692 508 l 1,3,-1
 224 508 l 1,0,-1
EndSplineSet
EndChar

StartChar: registered
Encoding: 174 174 114
Width: 1354
Flags: MW
LayerCount: 2
Fore
SplineSet
88 1108 m 0,0,1
 88 1224 88 1224 133 1327 c 128,-1,2
 178 1430 178 1430 257 1507 c 128,-1,3
 336 1584 336 1584 443.5 1629 c 128,-1,4
 551 1674 551 1674 677 1674 c 0,5,6
 801 1674 801 1674 908.5 1630 c 128,-1,7
 1016 1586 1016 1586 1095.5 1509.5 c 128,-1,8
 1175 1433 1175 1433 1221 1329.5 c 128,-1,9
 1267 1226 1267 1226 1267 1108 c 0,10,11
 1267 989 1267 989 1221.5 886 c 128,-1,12
 1176 783 1176 783 1096.5 706.5 c 128,-1,13
 1017 630 1017 630 909 586 c 128,-1,14
 801 542 801 542 677 542 c 0,15,16
 551 542 551 542 443 586.5 c 128,-1,17
 335 631 335 631 256 708 c 128,-1,18
 177 785 177 785 132.5 888 c 128,-1,19
 88 991 88 991 88 1108 c 0,0,1
676 641 m 0,20,21
 779 641 779 641 865.5 677.5 c 128,-1,22
 952 714 952 714 1014 777 c 128,-1,23
 1076 840 1076 840 1110.5 924.5 c 128,-1,24
 1145 1009 1145 1009 1145 1106 c 0,25,26
 1145 1205 1145 1205 1110 1290 c 128,-1,27
 1075 1375 1075 1375 1013 1438 c 128,-1,28
 951 1501 951 1501 864.5 1536.5 c 128,-1,29
 778 1572 778 1572 676 1572 c 0,30,31
 573 1572 573 1572 487.5 1536 c 128,-1,32
 402 1500 402 1500 340.5 1437.5 c 128,-1,33
 279 1375 279 1375 244.5 1289.5 c 128,-1,34
 210 1204 210 1204 210 1105 c 0,35,36
 210 1007 210 1007 244 922 c 128,-1,37
 278 837 278 837 339.5 774.5 c 128,-1,38
 401 712 401 712 486.5 676.5 c 128,-1,39
 572 641 572 641 676 641 c 0,20,21
802 1244 m 0,40,41
 802 1266 802 1266 794 1281.5 c 128,-1,42
 786 1297 786 1297 764 1307 c 128,-1,43
 742 1317 742 1317 703 1321.5 c 128,-1,44
 664 1326 664 1326 603 1326 c 1,45,-1
 603 1150 l 1,46,47
 624 1150 624 1150 645 1150 c 128,-1,48
 666 1150 666 1150 687 1149 c 1,49,50
 745 1149 745 1149 773.5 1168 c 128,-1,51
 802 1187 802 1187 802 1244 c 0,40,41
802 797 m 1,52,-1
 638 1068 l 1,53,-1
 603 1068 l 1,54,-1
 603 807 l 1,55,-1
 497 807 l 1,56,-1
 497 1408 l 1,57,-1
 635 1408 l 2,58,59
 686 1408 686 1408 734.5 1401.5 c 128,-1,60
 783 1395 783 1395 821.5 1377 c 128,-1,61
 860 1359 860 1359 883 1327 c 128,-1,62
 906 1295 906 1295 906 1244 c 0,63,64
 906 1208 906 1208 898 1179.5 c 128,-1,65
 890 1151 890 1151 871 1131 c 128,-1,66
 852 1111 852 1111 820 1099.5 c 128,-1,67
 788 1088 788 1088 740 1086 c 1,68,-1
 895 847 l 1,69,-1
 802 797 l 1,52,-1
EndSplineSet
EndChar

StartChar: macron
Encoding: 65539 -1 115
Width: 1003
Flags: MW
LayerCount: 2
Fore
SplineSet
98 215 m 1,0,-1
 780 215 l 1,1,-1
 780 98 l 1,2,-1
 98 98 l 1,3,-1
 98 215 l 1,0,-1
EndSplineSet
EndChar

StartChar: degree
Encoding: 176 176 116
Width: 646
Flags: MW
LayerCount: 2
Fore
SplineSet
83 899 m 0,0,1
 83 951 83 951 101 995 c 128,-1,2
 119 1039 119 1039 151.5 1071 c 128,-1,3
 184 1103 184 1103 229 1121 c 128,-1,4
 274 1139 274 1139 327 1139 c 0,5,6
 379 1139 379 1139 422.5 1121 c 128,-1,7
 466 1103 466 1103 497 1070.5 c 128,-1,8
 528 1038 528 1038 545.5 994 c 128,-1,9
 563 950 563 950 563 899 c 256,10,11
 563 848 563 848 546 804 c 128,-1,12
 529 760 529 760 498 728 c 128,-1,13
 467 696 467 696 423.5 678 c 128,-1,14
 380 660 380 660 327 660 c 0,15,16
 273 660 273 660 228 678.5 c 128,-1,17
 183 697 183 697 150.5 729 c 128,-1,18
 118 761 118 761 100.5 804.5 c 128,-1,19
 83 848 83 848 83 899 c 0,0,1
325 1048 m 0,20,21
 293 1048 293 1048 266.5 1036 c 128,-1,22
 240 1024 240 1024 221 1004 c 128,-1,23
 202 984 202 984 191 956.5 c 128,-1,24
 180 929 180 929 180 899 c 0,25,26
 180 868 180 868 191.5 841 c 128,-1,27
 203 814 203 814 222.5 793.5 c 128,-1,28
 242 773 242 773 268.5 761.5 c 128,-1,29
 295 750 295 750 325 750 c 0,30,31
 356 750 356 750 382 761.5 c 128,-1,32
 408 773 408 773 427 793.5 c 128,-1,33
 446 814 446 814 456 841 c 128,-1,34
 466 868 466 868 466 899 c 256,35,36
 466 930 466 930 456 957.5 c 128,-1,37
 446 985 446 985 427 1005 c 128,-1,38
 408 1025 408 1025 382 1036.5 c 128,-1,39
 356 1048 356 1048 325 1048 c 0,20,21
EndSplineSet
EndChar

StartChar: plusminus
Encoding: 177 177 117
Width: 973
Flags: MW
LayerCount: 2
Fore
SplineSet
136 -56 m 1,0,-1
 136 83 l 1,1,-1
 837 83 l 1,2,-1
 837 -56 l 1,3,-1
 136 -56 l 1,0,-1
556 577 m 1,4,-1
 556 233 l 1,5,-1
 415 233 l 1,6,-1
 415 577 l 1,7,-1
 102 577 l 1,8,-1
 102 710 l 1,9,-1
 415 710 l 1,10,-1
 415 1054 l 1,11,-1
 556 1054 l 1,12,-1
 556 710 l 1,13,-1
 870 710 l 1,14,-1
 870 577 l 1,15,-1
 556 577 l 1,4,-1
EndSplineSet
EndChar

StartChar: uni00B2
Encoding: 178 178 118
Width: 848
Flags: MW
LayerCount: 2
Fore
SplineSet
93 805 m 1,0,-1
 364 1045 l 2,1,2
 432 1105 432 1105 475.5 1148 c 128,-1,3
 519 1191 519 1191 543.5 1225 c 128,-1,4
 568 1259 568 1259 577.5 1289 c 128,-1,5
 587 1319 587 1319 587 1354 c 0,6,7
 587 1424 587 1424 539 1462 c 128,-1,8
 491 1500 491 1500 406 1500 c 0,9,10
 358 1500 358 1500 306.5 1492 c 128,-1,11
 255 1484 255 1484 211 1474 c 0,12,13
 160 1463 160 1463 110 1448 c 1,14,-1
 110 1586 l 1,15,16
 146 1601 146 1601 194 1612 c 0,17,18
 235 1622 235 1622 291 1630 c 128,-1,19
 347 1638 347 1638 416 1638 c 0,20,21
 516 1638 516 1638 582 1610 c 128,-1,22
 648 1582 648 1582 687.5 1540 c 128,-1,23
 727 1498 727 1498 743 1448.5 c 128,-1,24
 759 1399 759 1399 759 1357 c 0,25,26
 759 1309 759 1309 747 1266.5 c 128,-1,27
 735 1224 735 1224 707 1180.5 c 128,-1,28
 679 1137 679 1137 632.5 1089 c 128,-1,29
 586 1041 586 1041 516 982 c 2,30,-1
 325 820 l 1,31,-1
 731 820 l 1,32,-1
 731 668 l 1,33,-1
 93 668 l 1,34,-1
 93 805 l 1,0,-1
EndSplineSet
EndChar

StartChar: uni00B3
Encoding: 179 179 119
Width: 862
Flags: MW
LayerCount: 2
Fore
SplineSet
113 745 m 1,0,1
 138 733 138 733 168.5 720 c 128,-1,2
 199 707 199 707 234.5 696.5 c 128,-1,3
 270 686 270 686 310 679 c 128,-1,4
 350 672 350 672 393 672 c 0,5,6
 441 672 441 672 481.5 685 c 128,-1,7
 522 698 522 698 551.5 721.5 c 128,-1,8
 581 745 581 745 597 778.5 c 128,-1,9
 613 812 613 812 613 853 c 0,10,11
 613 947 613 947 550 1002 c 128,-1,12
 487 1057 487 1057 351 1072 c 1,13,-1
 351 1207 l 1,14,15
 397 1207 397 1207 441 1217.5 c 128,-1,16
 485 1228 485 1228 519 1249.5 c 128,-1,17
 553 1271 553 1271 573.5 1304.5 c 128,-1,18
 594 1338 594 1338 594 1383 c 0,19,20
 594 1458 594 1458 539.5 1499.5 c 128,-1,21
 485 1541 485 1541 370 1541 c 0,22,23
 341 1541 341 1541 310 1536.5 c 128,-1,24
 279 1532 279 1532 248 1524 c 128,-1,25
 217 1516 217 1516 188.5 1505.5 c 128,-1,26
 160 1495 160 1495 136 1484 c 1,27,-1
 89 1611 l 1,28,29
 91 1612 91 1612 114.5 1622.5 c 128,-1,30
 138 1633 138 1633 177 1645 c 128,-1,31
 216 1657 216 1657 267 1667 c 128,-1,32
 318 1677 318 1677 375 1677 c 0,33,34
 412 1677 412 1677 454 1671.5 c 128,-1,35
 496 1666 496 1666 537.5 1653.5 c 128,-1,36
 579 1641 579 1641 617 1620 c 128,-1,37
 655 1599 655 1599 684 1567.5 c 128,-1,38
 713 1536 713 1536 730.5 1493 c 128,-1,39
 748 1450 748 1450 748 1394 c 0,40,41
 748 1324 748 1324 720.5 1276 c 128,-1,42
 693 1228 693 1228 654 1198 c 128,-1,43
 615 1168 615 1168 573 1155 c 128,-1,44
 531 1142 531 1142 503 1142 c 1,45,46
 528 1137 528 1137 558.5 1127.5 c 128,-1,47
 589 1118 589 1118 619.5 1102.5 c 128,-1,48
 650 1087 650 1087 679 1063.5 c 128,-1,49
 708 1040 708 1040 730 1007.5 c 128,-1,50
 752 975 752 975 765.5 932.5 c 128,-1,51
 779 890 779 890 779 835 c 0,52,53
 779 758 779 758 744 702 c 128,-1,54
 709 646 709 646 653 610 c 128,-1,55
 597 574 597 574 527.5 557 c 128,-1,56
 458 540 458 540 390 540 c 0,57,58
 299 540 299 540 217.5 559 c 128,-1,59
 136 578 136 578 62 618 c 1,60,-1
 113 745 l 1,0,1
EndSplineSet
EndChar

StartChar: acute
Encoding: 180 180 120
Width: 640
Flags: MW
LayerCount: 2
Fore
SplineSet
160 1200 m 1,0,-1
 320 1728 l 1,1,-1
 576 1600 l 1,2,-1
 256 1152 l 1,3,-1
 160 1200 l 1,0,-1
EndSplineSet
EndChar

StartChar: uni00B5
Encoding: 181 181 121
Width: 1320
Flags: MW
LayerCount: 2
Fore
SplineSet
185 1169 m 1,0,-1
 359 1169 l 1,1,-1
 359 442 l 2,2,3
 359 123 359 123 611 123 c 0,4,5
 681 123 681 123 740 142 c 128,-1,6
 799 161 799 161 844.5 186.5 c 128,-1,7
 890 212 890 212 919 237 c 128,-1,8
 948 262 948 262 958 274 c 1,9,-1
 958 1169 l 1,10,-1
 1166 1169 l 1,11,-1
 1166 16 l 1,12,-1
 1020 16 l 1,13,-1
 996 170 l 1,14,15
 825 -20 825 -20 599 -20 c 0,16,17
 553 -20 553 -20 515 -6.5 c 128,-1,18
 477 7 477 7 447 27.5 c 128,-1,19
 417 48 417 48 395 71 c 128,-1,20
 373 94 373 94 359 113 c 1,21,-1
 359 -291 l 1,22,-1
 185 -291 l 1,23,-1
 185 1169 l 1,0,-1
EndSplineSet
EndChar

StartChar: paragraph
Encoding: 182 182 122
Width: 1243
Flags: MW
LayerCount: 2
Fore
SplineSet
1060 0 m 1,0,-1
 874 0 l 1,1,-1
 874 1436 l 1,2,-1
 739 1436 l 1,3,-1
 739 0 l 1,4,-1
 549 0 l 1,5,-1
 549 905 l 1,6,7
 455 905 455 905 367 921 c 128,-1,8
 279 937 279 937 210.5 976.5 c 128,-1,9
 142 1016 142 1016 101 1082.5 c 128,-1,10
 60 1149 60 1149 60 1250 c 0,11,12
 60 1321 60 1321 80.5 1373 c 128,-1,13
 101 1425 101 1425 137.5 1461.5 c 128,-1,14
 174 1498 174 1498 224 1521 c 128,-1,15
 274 1544 274 1544 333.5 1556.5 c 128,-1,16
 393 1569 393 1569 459 1573.5 c 128,-1,17
 525 1578 525 1578 594 1578 c 2,18,-1
 1060 1578 l 1,19,-1
 1060 0 l 1,0,-1
EndSplineSet
EndChar

StartChar: periodcentered
Encoding: 183 183 123
Width: 442
Flags: MW
LayerCount: 2
Fore
SplineSet
109 650 m 256,0,1
 109 673 109 673 117 694 c 128,-1,2
 125 715 125 715 140 730.5 c 128,-1,3
 155 746 155 746 175.5 755.5 c 128,-1,4
 196 765 196 765 221 765 c 256,5,6
 246 765 246 765 266.5 755.5 c 128,-1,7
 287 746 287 746 302 730.5 c 128,-1,8
 317 715 317 715 325 694 c 128,-1,9
 333 673 333 673 333 650 c 256,10,11
 333 627 333 627 325 606 c 128,-1,12
 317 585 317 585 302 569 c 128,-1,13
 287 553 287 553 266.5 544 c 128,-1,14
 246 535 246 535 221 535 c 256,15,16
 196 535 196 535 175.5 544 c 128,-1,17
 155 553 155 553 140 569 c 128,-1,18
 125 585 125 585 117 606 c 128,-1,19
 109 627 109 627 109 650 c 256,0,1
EndSplineSet
EndChar

StartChar: cedilla
Encoding: 184 184 124
Width: 575
Flags: MW
LayerCount: 2
Fore
SplineSet
196 -423 m 1,0,1
 196 -423 196 -423 218 -430 c 0,2,3
 239 -436 239 -436 266.5 -443.5 c 128,-1,4
 294 -451 294 -451 321 -457.5 c 128,-1,5
 348 -464 348 -464 360 -464 c 0,6,7
 394 -464 394 -464 420 -459.5 c 128,-1,8
 446 -455 446 -455 463.5 -440.5 c 128,-1,9
 481 -426 481 -426 490 -399 c 128,-1,10
 499 -372 499 -372 499 -328 c 0,11,12
 499 -289 499 -289 484.5 -261.5 c 128,-1,13
 470 -234 470 -234 439.5 -217.5 c 128,-1,14
 409 -201 409 -201 361 -193.5 c 128,-1,15
 313 -186 313 -186 246 -186 c 1,16,-1
 246 20 l 1,17,-1
 367 20 l 1,18,-1
 367 -98 l 1,19,20
 427 -98 427 -98 476 -111 c 128,-1,21
 525 -124 525 -124 559.5 -152 c 128,-1,22
 594 -180 594 -180 613 -223 c 128,-1,23
 632 -266 632 -266 632 -327 c 0,24,25
 632 -447 632 -447 571.5 -512.5 c 128,-1,26
 511 -578 511 -578 380 -578 c 0,27,28
 332 -578 332 -578 283.5 -566 c 128,-1,29
 235 -554 235 -554 196 -540 c 1,30,-1
 196 -423 l 1,0,1
EndSplineSet
EndChar

StartChar: uni00B9
Encoding: 185 185 125
Width: 548
Flags: MW
LayerCount: 2
Fore
SplineSet
247 1304 m 1,0,-1
 76 1232 l 1,1,-1
 39 1345 l 1,2,-1
 276 1440 l 1,3,-1
 416 1414 l 1,4,-1
 416 478 l 1,5,-1
 247 478 l 1,6,-1
 247 1304 l 1,0,-1
EndSplineSet
EndChar

StartChar: ordmasculine
Encoding: 186 186 126
Width: 1038
Flags: MW
LayerCount: 2
Fore
SplineSet
518 670 m 0,0,1
 410 670 410 670 330.5 707.5 c 128,-1,2
 251 745 251 745 198.5 810 c 128,-1,3
 146 875 146 875 120 963 c 128,-1,4
 94 1051 94 1051 94 1152 c 0,5,6
 94 1251 94 1251 119.5 1339 c 128,-1,7
 145 1427 145 1427 197.5 1493.5 c 128,-1,8
 250 1560 250 1560 329.5 1599 c 128,-1,9
 409 1638 409 1638 518 1638 c 256,10,11
 627 1638 627 1638 707 1599 c 128,-1,12
 787 1560 787 1560 839.5 1493.5 c 128,-1,13
 892 1427 892 1427 917.5 1339 c 128,-1,14
 943 1251 943 1251 943 1152 c 0,15,16
 943 1052 943 1052 917.5 964.5 c 128,-1,17
 892 877 892 877 839.5 811.5 c 128,-1,18
 787 746 787 746 707 708 c 128,-1,19
 627 670 627 670 518 670 c 0,0,1
518 797 m 256,20,21
 590 797 590 797 640.5 823.5 c 128,-1,22
 691 850 691 850 723 897.5 c 128,-1,23
 755 945 755 945 770 1010.5 c 128,-1,24
 785 1076 785 1076 785 1154 c 0,25,26
 785 1230 785 1230 770 1295.5 c 128,-1,27
 755 1361 755 1361 723 1409 c 128,-1,28
 691 1457 691 1457 640.5 1484.5 c 128,-1,29
 590 1512 590 1512 518 1512 c 256,30,31
 446 1512 446 1512 395.5 1485 c 128,-1,32
 345 1458 345 1458 313 1410 c 128,-1,33
 281 1362 281 1362 266 1296.5 c 128,-1,34
 251 1231 251 1231 251 1154 c 256,35,36
 251 1077 251 1077 266 1011.5 c 128,-1,37
 281 946 281 946 313 898.5 c 128,-1,38
 345 851 345 851 395.5 824 c 128,-1,39
 446 797 446 797 518 797 c 256,20,21
180 575 m 1,40,-1
 864 575 l 1,41,-1
 864 446 l 1,42,-1
 180 446 l 1,43,-1
 180 575 l 1,40,-1
EndSplineSet
EndChar

StartChar: guillemotright
Encoding: 187 187 127
Width: 1377
Flags: MW
LayerCount: 2
Fore
SplineSet
109 1049 m 1,0,-1
 718 666 l 1,1,-1
 718 481 l 1,2,-1
 109 99 l 1,3,-1
 109 306 l 1,4,-1
 556 577 l 1,5,-1
 109 842 l 1,6,-1
 109 1049 l 1,0,-1
716 1049 m 1,7,-1
 1325 666 l 1,8,-1
 1325 481 l 1,9,-1
 716 99 l 1,10,-1
 716 306 l 1,11,-1
 1163 577 l 1,12,-1
 716 842 l 1,13,-1
 716 1049 l 1,7,-1
EndSplineSet
EndChar

StartChar: onequarter
Encoding: 188 188 128
Width: 1663
Flags: MW
LayerCount: 2
Fore
SplineSet
1318 144 m 1,0,-1
 1318 697 l 1,1,-1
 921 144 l 1,2,-1
 1318 144 l 1,0,-1
1454 915 m 1,3,-1
 1454 145 l 1,4,-1
 1605 145 l 1,5,-1
 1605 34 l 1,6,-1
 1454 34 l 1,7,-1
 1454 -227 l 1,8,-1
 1309 -250 l 1,9,-1
 1309 34 l 1,10,-1
 784 34 l 1,11,-1
 762 144 l 1,12,-1
 1326 946 l 1,13,-1
 1454 915 l 1,3,-1
1196 1365 m 1,14,-1
 1318 1272 l 1,15,-1
 277 -123 l 1,16,-1
 157 -30 l 1,17,-1
 1196 1365 l 1,14,-1
269 1413 m 1,18,-1
 99 1341 l 1,19,-1
 61 1434 l 1,20,-1
 299 1529 l 1,21,-1
 429 1503 l 1,22,-1
 429 568 l 1,23,-1
 269 568 l 1,24,-1
 269 1413 l 1,18,-1
EndSplineSet
EndChar

StartChar: onehalf
Encoding: 189 189 129
Width: 1801
Flags: MW
LayerCount: 2
Fore
SplineSet
1564 514 m 0,0,1
 1564 584 1564 584 1512 619.5 c 128,-1,2
 1460 655 1460 655 1375 655 c 0,3,4
 1339 655 1339 655 1293.5 648 c 128,-1,5
 1248 641 1248 641 1206 632 c 128,-1,6
 1164 623 1164 623 1131.5 614.5 c 128,-1,7
 1099 606 1099 606 1087 603 c 1,8,-1
 1087 748 l 1,9,10
 1135 765 1135 765 1208.5 781.5 c 128,-1,11
 1282 798 1282 798 1393 798 c 0,12,13
 1493 798 1493 798 1559 770 c 128,-1,14
 1625 742 1625 742 1664.5 700 c 128,-1,15
 1704 658 1704 658 1720 608.5 c 128,-1,16
 1736 559 1736 559 1736 517 c 0,17,18
 1736 469 1736 469 1724 426.5 c 128,-1,19
 1712 384 1712 384 1684 340.5 c 128,-1,20
 1656 297 1656 297 1609.5 249 c 128,-1,21
 1563 201 1563 201 1493 142 c 2,22,-1
 1302 -20 l 1,23,-1
 1708 -20 l 1,24,-1
 1708 -172 l 1,25,-1
 1070 -172 l 1,26,-1
 1070 -35 l 1,27,28
 1138 25 1138 25 1205.5 85 c 128,-1,29
 1273 145 1273 145 1341 205 c 0,30,31
 1409 266 1409 266 1452.5 308.5 c 128,-1,32
 1496 351 1496 351 1520.5 385 c 128,-1,33
 1545 419 1545 419 1554.5 449 c 128,-1,34
 1564 479 1564 479 1564 514 c 0,0,1
268 1413 m 1,35,-1
 98 1341 l 1,36,-1
 60 1434 l 1,37,-1
 298 1529 l 1,38,-1
 428 1503 l 1,39,-1
 428 568 l 1,40,-1
 268 568 l 1,41,-1
 268 1413 l 1,35,-1
1169 1365 m 1,42,-1
 1291 1272 l 1,43,-1
 268 -123 l 1,44,-1
 130 -30 l 1,45,-1
 1169 1365 l 1,42,-1
EndSplineSet
EndChar

StartChar: threequarters
Encoding: 190 190 130
Width: 1923
Flags: MW
LayerCount: 2
Fore
SplineSet
1579 144 m 1,0,-1
 1579 697 l 1,1,-1
 1182 144 l 1,2,-1
 1579 144 l 1,0,-1
1715 915 m 1,3,-1
 1715 145 l 1,4,-1
 1866 145 l 1,5,-1
 1866 34 l 1,6,-1
 1715 34 l 1,7,-1
 1715 -227 l 1,8,-1
 1570 -250 l 1,9,-1
 1570 34 l 1,10,-1
 1045 34 l 1,11,-1
 1023 144 l 1,12,-1
 1587 946 l 1,13,-1
 1715 915 l 1,3,-1
1448 1365 m 1,14,-1
 1579 1272 l 1,15,-1
 538 -123 l 1,16,-1
 418 -30 l 1,17,-1
 1448 1365 l 1,14,-1
602 1383 m 0,18,19
 602 1458 602 1458 547.5 1499.5 c 128,-1,20
 493 1541 493 1541 378 1541 c 0,21,22
 349 1541 349 1541 318 1536.5 c 128,-1,23
 287 1532 287 1532 256 1524 c 128,-1,24
 225 1516 225 1516 196.5 1505.5 c 128,-1,25
 168 1495 168 1495 144 1484 c 1,26,-1
 97 1611 l 1,27,28
 99 1612 99 1612 122.5 1622.5 c 128,-1,29
 146 1633 146 1633 185 1645 c 128,-1,30
 224 1657 224 1657 275 1667 c 128,-1,31
 326 1677 326 1677 383 1677 c 0,32,33
 420 1677 420 1677 462 1671.5 c 128,-1,34
 504 1666 504 1666 545.5 1653.5 c 128,-1,35
 587 1641 587 1641 625 1620 c 128,-1,36
 663 1599 663 1599 692 1567.5 c 128,-1,37
 721 1536 721 1536 738.5 1493 c 128,-1,38
 756 1450 756 1450 756 1394 c 0,39,40
 756 1324 756 1324 728.5 1276 c 128,-1,41
 701 1228 701 1228 662 1198 c 128,-1,42
 623 1168 623 1168 581 1155 c 128,-1,43
 539 1142 539 1142 511 1142 c 1,44,45
 536 1137 536 1137 566.5 1127.5 c 128,-1,46
 597 1118 597 1118 627.5 1102.5 c 128,-1,47
 658 1087 658 1087 687 1063.5 c 128,-1,48
 716 1040 716 1040 738 1007.5 c 128,-1,49
 760 975 760 975 773.5 932.5 c 128,-1,50
 787 890 787 890 787 835 c 0,51,52
 787 755 787 755 750.5 698.5 c 128,-1,53
 714 642 714 642 656 607 c 128,-1,54
 598 572 598 572 526.5 556 c 128,-1,55
 455 540 455 540 386 540 c 0,56,57
 308 540 308 540 234 560 c 128,-1,58
 160 580 160 580 70 618 c 1,59,-1
 121 745 l 1,60,61
 146 733 146 733 176.5 720 c 128,-1,62
 207 707 207 707 242.5 696.5 c 128,-1,63
 278 686 278 686 318 679 c 128,-1,64
 358 672 358 672 401 672 c 0,65,66
 449 672 449 672 489.5 685 c 128,-1,67
 530 698 530 698 559.5 721.5 c 128,-1,68
 589 745 589 745 605 778.5 c 128,-1,69
 621 812 621 812 621 853 c 0,70,71
 621 948 621 948 558 1002.5 c 128,-1,72
 495 1057 495 1057 359 1072 c 1,73,-1
 359 1207 l 1,74,75
 405 1207 405 1207 449 1217.5 c 128,-1,76
 493 1228 493 1228 527 1249.5 c 128,-1,77
 561 1271 561 1271 581.5 1304.5 c 128,-1,78
 602 1338 602 1338 602 1383 c 0,18,19
EndSplineSet
EndChar

StartChar: questiondown
Encoding: 191 191 131
Width: 1012
Flags: MW
LayerCount: 2
Fore
SplineSet
586 1361 m 1,0,-1
 586 1579 l 1,1,-1
 786 1579 l 1,2,-1
 786 1361 l 1,3,-1
 586 1361 l 1,0,-1
253 384 m 0,4,5
 253 267 253 267 327 214 c 128,-1,6
 401 161 401 161 547 161 c 0,7,8
 619 161 619 161 681.5 174 c 128,-1,9
 744 187 744 187 791 204 c 1,10,11
 846 222 846 222 892 247 c 1,12,-1
 953 102 l 1,13,14
 898 73 898 73 833 51 c 0,15,16
 777 31 777 31 703.5 15.5 c 128,-1,17
 630 0 630 0 545 0 c 0,18,19
 442 0 442 0 354 22.5 c 128,-1,20
 266 45 266 45 201 92 c 128,-1,21
 136 139 136 139 99 211 c 128,-1,22
 62 283 62 283 62 382 c 0,23,24
 62 466 62 466 86.5 532.5 c 128,-1,25
 111 599 111 599 152 650.5 c 128,-1,26
 193 702 193 702 247 741 c 128,-1,27
 301 780 301 780 360.5 810 c 128,-1,28
 420 840 420 840 480.5 862.5 c 128,-1,29
 541 885 541 885 596 904 c 1,30,-1
 596 1283 l 1,31,-1
 776 1283 l 1,32,-1
 776 802 l 1,33,34
 643 757 643 757 544.5 714.5 c 128,-1,35
 446 672 446 672 381.5 624 c 128,-1,36
 317 576 317 576 285 518 c 128,-1,37
 253 460 253 460 253 384 c 0,4,5
EndSplineSet
EndChar

StartChar: AE
Encoding: 198 198 138
Width: 1868
Flags: MW
LayerCount: 2
Fore
SplineSet
933 1459 m 1,0,-1
 443 493 l 1,1,-1
 933 493 l 1,2,-1
 933 1459 l 1,0,-1
1746 1436 m 1,3,-1
 1098 1436 l 1,4,-1
 1098 891 l 1,5,-1
 1703 891 l 1,6,-1
 1703 764 l 1,7,-1
 1100 764 l 1,8,-1
 1100 143 l 1,9,-1
 1774 143 l 1,10,-1
 1774 0 l 1,11,-1
 935 0 l 1,12,-1
 935 371 l 1,13,-1
 383 371 l 1,14,-1
 191 0 l 1,15,-1
 -18 0 l 1,16,-1
 808 1579 l 1,17,-1
 1746 1579 l 1,18,-1
 1746 1436 l 1,3,-1
EndSplineSet
EndChar

StartChar: Eth
Encoding: 208 208 148
Width: 1497
Flags: MW
LayerCount: 2
Fore
SplineSet
1194 789 m 0,0,1
 1194 932 1194 932 1172.5 1051 c 128,-1,2
 1151 1170 1151 1170 1098.5 1255.5 c 128,-1,3
 1046 1341 1046 1341 957.5 1388.5 c 128,-1,4
 869 1436 869 1436 736 1436 c 2,5,-1
 377 1436 l 1,6,-1
 377 895 l 1,7,-1
 611 895 l 1,8,-1
 611 764 l 1,9,-1
 377 764 l 1,10,-1
 377 143 l 1,11,-1
 736 143 l 2,12,13
 874 143 874 143 963 192 c 128,-1,14
 1052 241 1052 241 1103 327.5 c 128,-1,15
 1154 414 1154 414 1174 532.5 c 128,-1,16
 1194 651 1194 651 1194 789 c 0,0,1
1395 788 m 0,17,18
 1395 680 1395 680 1379 579.5 c 128,-1,19
 1363 479 1363 479 1329.5 391.5 c 128,-1,20
 1296 304 1296 304 1243.5 232 c 128,-1,21
 1191 160 1191 160 1117.5 108.5 c 128,-1,22
 1044 57 1044 57 949 28.5 c 128,-1,23
 854 0 854 0 736 0 c 2,24,-1
 183 0 l 1,25,-1
 183 764 l 1,26,-1
 21 764 l 1,27,-1
 21 895 l 1,28,-1
 183 895 l 1,29,-1
 183 1579 l 1,30,-1
 736 1579 l 2,31,32
 913 1579 913 1579 1038 1522.5 c 128,-1,33
 1163 1466 1163 1466 1242.5 1362 c 128,-1,34
 1322 1258 1322 1258 1358.5 1112 c 128,-1,35
 1395 966 1395 966 1395 788 c 0,17,18
EndSplineSet
EndChar

StartChar: multiply
Encoding: 215 215 155
Width: 1055
Flags: MW
LayerCount: 2
Fore
SplineSet
210 965 m 1,0,-1
 527 648 l 1,1,-1
 844 965 l 1,2,-1
 946 863 l 1,3,-1
 629 546 l 1,4,-1
 946 229 l 1,5,-1
 844 127 l 1,6,-1
 527 444 l 1,7,-1
 210 127 l 1,8,-1
 108 229 l 1,9,-1
 425 546 l 1,10,-1
 108 863 l 1,11,-1
 210 965 l 1,0,-1
EndSplineSet
EndChar

StartChar: Oslash
Encoding: 216 216 156
Width: 1522
Flags: MW
LayerCount: 2
Fore
SplineSet
406 49 m 1,0,1
 345 90 345 90 290.5 149.5 c 128,-1,2
 236 209 236 209 195.5 296 c 128,-1,3
 155 383 155 383 131 503 c 128,-1,4
 107 623 107 623 107 784 c 0,5,6
 107 965 107 965 138.5 1096.5 c 128,-1,7
 170 1228 170 1228 221.5 1320 c 128,-1,8
 273 1412 273 1412 340 1468.5 c 128,-1,9
 407 1525 407 1525 478 1556.5 c 128,-1,10
 549 1588 549 1588 619.5 1599 c 128,-1,11
 690 1610 690 1610 748 1610 c 0,12,13
 845 1610 845 1610 928 1592.5 c 128,-1,14
 1011 1575 1011 1575 1080 1538 c 1,15,-1
 1158 1710 l 1,16,-1
 1259 1668 l 1,17,-1
 1173 1477 l 1,18,19
 1239 1424 1239 1424 1285.5 1351 c 128,-1,20
 1332 1278 1332 1278 1361.5 1189 c 128,-1,21
 1391 1100 1391 1100 1404.5 997.5 c 128,-1,22
 1418 895 1418 895 1418 784 c 0,23,24
 1418 609 1418 609 1383.5 458.5 c 128,-1,25
 1349 308 1349 308 1271.5 197 c 128,-1,26
 1194 86 1194 86 1068.5 22.5 c 128,-1,27
 943 -41 943 -41 762 -41 c 0,28,29
 705 -41 705 -41 640 -33 c 128,-1,30
 575 -25 575 -25 506 0 c 1,31,-1
 434 -159 l 1,32,-1
 333 -113 l 1,33,-1
 406 49 l 1,0,1
572 147 m 1,34,35
 593 137 593 137 622 129 c 0,36,37
 647 122 647 122 682.5 116.5 c 128,-1,38
 718 111 718 111 763 111 c 0,39,40
 856 111 856 111 926 136.5 c 128,-1,41
 996 162 996 162 1046 208 c 128,-1,42
 1096 254 1096 254 1129.5 317 c 128,-1,43
 1163 380 1163 380 1182 454.5 c 128,-1,44
 1201 529 1201 529 1209 613 c 128,-1,45
 1217 697 1217 697 1217 784 c 0,46,47
 1217 971 1217 971 1186 1099 c 128,-1,48
 1155 1227 1155 1227 1096 1307 c 1,49,-1
 572 147 l 1,34,35
308 784 m 0,50,51
 308 726 308 726 312 650.5 c 128,-1,52
 316 575 316 575 332.5 496 c 128,-1,53
 349 417 349 417 383.5 341.5 c 128,-1,54
 418 266 418 266 479 209 c 1,55,-1
 1013 1390 l 1,56,57
 964 1429 964 1429 899.5 1443.5 c 128,-1,58
 835 1458 835 1458 770 1458 c 0,59,60
 676 1458 676 1458 605 1434 c 128,-1,61
 534 1410 534 1410 483 1366 c 128,-1,62
 432 1322 432 1322 398 1260.5 c 128,-1,63
 364 1199 364 1199 344 1124 c 128,-1,64
 324 1049 324 1049 316 963 c 128,-1,65
 308 877 308 877 308 784 c 0,50,51
EndSplineSet
EndChar

StartChar: Thorn
Encoding: 222 222 162
Width: 1310
Flags: MW
LayerCount: 2
Fore
SplineSet
1067 959 m 0,0,1
 1067 1061 1067 1061 1044.5 1127.5 c 128,-1,2
 1022 1194 1022 1194 959 1232 c 128,-1,3
 896 1270 896 1270 783.5 1285 c 128,-1,4
 671 1300 671 1300 491 1300 c 2,5,-1
 354 1300 l 1,6,-1
 354 649 l 1,7,8
 448 649 448 649 525.5 650.5 c 128,-1,9
 603 652 603 652 666.5 656.5 c 128,-1,10
 730 661 730 661 781.5 669 c 128,-1,11
 833 677 833 677 874 691 c 0,12,13
 935 711 935 711 973 739 c 128,-1,14
 1011 767 1011 767 1032 801.5 c 128,-1,15
 1053 836 1053 836 1060 875.5 c 128,-1,16
 1067 915 1067 915 1067 959 c 0,0,1
354 504 m 1,17,-1
 354 0 l 1,18,-1
 160 0 l 1,19,-1
 160 1579 l 1,20,-1
 354 1579 l 1,21,-1
 354 1444 l 1,22,23
 413 1444 413 1444 473.5 1444 c 128,-1,24
 534 1444 534 1444 592 1442.5 c 128,-1,25
 650 1441 650 1441 703 1438 c 128,-1,26
 756 1435 756 1435 801 1429 c 0,27,28
 936 1411 936 1411 1023 1371.5 c 128,-1,29
 1110 1332 1110 1332 1160 1274 c 128,-1,30
 1210 1216 1210 1216 1229.5 1140 c 128,-1,31
 1249 1064 1249 1064 1249 973 c 0,32,33
 1249 868 1249 868 1215 781.5 c 128,-1,34
 1181 695 1181 695 1097 633.5 c 128,-1,35
 1013 572 1013 572 871.5 538 c 128,-1,36
 730 504 730 504 516 504 c 2,37,-1
 354 504 l 1,17,-1
EndSplineSet
EndChar

StartChar: germandbls
Encoding: 223 223 163
Width: 1353
Flags: MW
LayerCount: 2
Fore
SplineSet
486 905 m 1,0,1
 569 905 569 905 635 906 c 128,-1,2
 701 907 701 907 751.5 915 c 128,-1,3
 802 923 802 923 837.5 940.5 c 128,-1,4
 873 958 873 958 895 990.5 c 128,-1,5
 917 1023 917 1023 927.5 1074 c 128,-1,6
 938 1125 938 1125 938 1200 c 0,7,8
 938 1268 938 1268 916 1313.5 c 128,-1,9
 894 1359 894 1359 852.5 1386 c 128,-1,10
 811 1413 811 1413 751.5 1424.5 c 128,-1,11
 692 1436 692 1436 617 1436 c 0,12,13
 530 1436 530 1436 476 1407.5 c 128,-1,14
 422 1379 422 1379 392 1322 c 128,-1,15
 362 1265 362 1265 352 1180.5 c 128,-1,16
 342 1096 342 1096 342 984 c 2,17,-1
 342 0 l 1,18,-1
 148 0 l 1,19,-1
 148 991 l 2,20,21
 148 1126 148 1126 170 1234.5 c 128,-1,22
 192 1343 192 1343 246 1419.5 c 128,-1,23
 300 1496 300 1496 390.5 1537.5 c 128,-1,24
 481 1579 481 1579 617 1579 c 0,25,26
 859 1579 859 1579 984.5 1475.5 c 128,-1,27
 1110 1372 1110 1372 1110 1176 c 0,28,29
 1110 1107 1110 1107 1093 1049 c 128,-1,30
 1076 991 1076 991 1043.5 947.5 c 128,-1,31
 1011 904 1011 904 964 876.5 c 128,-1,32
 917 849 917 849 857 842 c 1,33,34
 949 832 949 832 1028.5 802 c 128,-1,35
 1108 772 1108 772 1166.5 718 c 128,-1,36
 1225 664 1225 664 1258.5 585 c 128,-1,37
 1292 506 1292 506 1292 399 c 256,38,39
 1292 292 1292 292 1259.5 211 c 128,-1,40
 1227 130 1227 130 1170.5 71.5 c 128,-1,41
 1114 13 1114 13 1038 -26 c 128,-1,42
 962 -65 962 -65 876 -87.5 c 128,-1,43
 790 -110 790 -110 698.5 -119.5 c 128,-1,44
 607 -129 607 -129 518 -129 c 1,45,-1
 518 27 l 1,46,47
 528 26 528 26 538 26 c 2,48,-1
 571 26 l 2,49,50
 673 26 673 26 770 43.5 c 128,-1,51
 867 61 867 61 942.5 106 c 128,-1,52
 1018 151 1018 151 1064 230 c 128,-1,53
 1110 309 1110 309 1110 432 c 0,54,55
 1110 509 1110 509 1079.5 572 c 128,-1,56
 1049 635 1049 635 976.5 680 c 128,-1,57
 904 725 904 725 784 749.5 c 128,-1,58
 664 774 664 774 486 774 c 1,59,-1
 486 905 l 1,0,1
EndSplineSet
EndChar

StartChar: ae
Encoding: 230 230 170
Width: 1855
Flags: MW
LayerCount: 2
Fore
SplineSet
1609 682 m 1,0,1
 1609 803 1609 803 1583.5 877 c 128,-1,2
 1558 951 1558 951 1518 991 c 128,-1,3
 1478 1031 1478 1031 1429.5 1044 c 128,-1,4
 1381 1057 1381 1057 1335 1057 c 0,5,6
 1303 1057 1303 1057 1267 1051.5 c 128,-1,7
 1231 1046 1231 1046 1194.5 1031 c 128,-1,8
 1158 1016 1158 1016 1124.5 989.5 c 128,-1,9
 1091 963 1091 963 1065.5 921 c 128,-1,10
 1040 879 1040 879 1024.5 820.5 c 128,-1,11
 1009 762 1009 762 1009 682 c 1,12,-1
 1609 682 l 1,0,1
1723 99 m 1,13,14
 1685 71 1685 71 1634.5 48.5 c 128,-1,15
 1584 26 1584 26 1531.5 10 c 128,-1,16
 1479 -6 1479 -6 1429.5 -14.5 c 128,-1,17
 1380 -23 1380 -23 1343 -23 c 0,18,19
 1188 -23 1188 -23 1081 36 c 128,-1,20
 974 95 974 95 910 207 c 1,21,22
 877 163 877 163 830.5 121.5 c 128,-1,23
 784 80 784 80 727 48 c 128,-1,24
 670 16 670 16 603.5 -3.5 c 128,-1,25
 537 -23 537 -23 463 -23 c 0,26,27
 370 -23 370 -23 297 0.5 c 128,-1,28
 224 24 224 24 174 70 c 128,-1,29
 124 116 124 116 97.5 183.5 c 128,-1,30
 71 251 71 251 71 339 c 0,31,32
 71 429 71 429 102.5 499 c 128,-1,33
 134 569 134 569 192 617 c 128,-1,34
 250 665 250 665 332 690 c 128,-1,35
 414 715 414 715 515 715 c 0,36,37
 549 715 549 715 591.5 711 c 128,-1,38
 634 707 634 707 676.5 700 c 128,-1,39
 719 693 719 693 757 684 c 128,-1,40
 795 675 795 675 819 665 c 1,41,42
 819 775 819 775 811.5 848.5 c 128,-1,43
 804 922 804 922 778.5 966 c 128,-1,44
 753 1010 753 1010 702.5 1028.5 c 128,-1,45
 652 1047 652 1047 567 1047 c 0,46,47
 512 1047 512 1047 456 1035 c 128,-1,48
 400 1023 400 1023 350.5 1005.5 c 128,-1,49
 301 988 301 988 262.5 968.5 c 128,-1,50
 224 949 224 949 204 934 c 1,51,-1
 137 1059 l 1,52,53
 168 1086 168 1086 219.5 1109.5 c 128,-1,54
 271 1133 271 1133 330 1151 c 128,-1,55
 389 1169 389 1169 449 1179.5 c 128,-1,56
 509 1190 509 1190 557 1190 c 0,57,58
 638 1190 638 1190 701 1178 c 128,-1,59
 764 1166 764 1166 811 1140 c 128,-1,60
 858 1114 858 1114 889.5 1072 c 128,-1,61
 921 1030 921 1030 939 970 c 1,62,63
 966 1025 966 1025 1007.5 1066.5 c 128,-1,64
 1049 1108 1049 1108 1100.5 1135.5 c 128,-1,65
 1152 1163 1152 1163 1211.5 1176.5 c 128,-1,66
 1271 1190 1271 1190 1334 1190 c 0,67,68
 1442 1190 1442 1190 1524.5 1153 c 128,-1,69
 1607 1116 1607 1116 1663 1048.5 c 128,-1,70
 1719 981 1719 981 1748 886 c 128,-1,71
 1777 791 1777 791 1777 676 c 0,72,73
 1777 652 1777 652 1775 625 c 128,-1,74
 1773 598 1773 598 1769 567 c 1,75,-1
 1009 567 l 1,76,77
 1009 468 1009 468 1025 386.5 c 128,-1,78
 1041 305 1041 305 1081 247.5 c 128,-1,79
 1121 190 1121 190 1187.5 158.5 c 128,-1,80
 1254 127 1254 127 1355 127 c 0,81,82
 1524 127 1524 127 1661 244 c 1,83,-1
 1723 99 l 1,13,14
262 356 m 0,84,85
 262 292 262 292 276.5 247 c 128,-1,86
 291 202 291 202 321.5 173.5 c 128,-1,87
 352 145 352 145 398.5 132 c 128,-1,88
 445 119 445 119 510 119 c 0,89,90
 655 119 655 119 819 271 c 1,91,-1
 819 569 l 1,92,93
 753 579 753 579 695 584.5 c 128,-1,94
 637 590 637 590 584 590 c 0,95,96
 487 590 487 590 424.5 573 c 128,-1,97
 362 556 362 556 326 525.5 c 128,-1,98
 290 495 290 495 276 451.5 c 128,-1,99
 262 408 262 408 262 356 c 0,84,85
EndSplineSet
EndChar

StartChar: igrave
Encoding: 236 236 176
Width: 480
Flags: MW
LayerCount: 2
Fore
SplineSet
-144 1936 m 1,0,-1
 98 2025 l 1,1,-1
 251 1407 l 1,2,-1
 184 1381 l 1,3,-1
 -144 1936 l 1,0,-1
149 0 m 1,4,-1
 149 1169 l 1,5,-1
 331 1169 l 1,6,-1
 331 0 l 1,7,-1
 149 0 l 1,4,-1
EndSplineSet
EndChar

StartChar: iacute
Encoding: 237 237 177
Width: 480
Flags: MW
LayerCount: 2
Fore
SplineSet
39 1406 m 1,0,-1
 198 2017 l 1,1,-1
 430 1926 l 1,2,-1
 96 1380 l 1,3,-1
 39 1406 l 1,0,-1
149 0 m 1,4,-1
 149 1169 l 1,5,-1
 331 1169 l 1,6,-1
 331 0 l 1,7,-1
 149 0 l 1,4,-1
EndSplineSet
EndChar

StartChar: icircumflex
Encoding: 238 238 178
Width: 480
Flags: MW
LayerCount: 2
Fore
SplineSet
293 1982 m 1,0,-1
 585 1481 l 1,1,-1
 457 1403 l 1,2,-1
 245 1780 l 1,3,-1
 33 1403 l 1,4,-1
 -95 1481 l 1,5,-1
 197 1982 l 1,6,-1
 293 1982 l 1,0,-1
149 0 m 1,7,-1
 149 1169 l 1,8,-1
 331 1169 l 1,9,-1
 331 0 l 1,10,-1
 149 0 l 1,7,-1
EndSplineSet
EndChar

StartChar: idieresis
Encoding: 239 239 179
Width: 479
Flags: MW
LayerCount: 2
Fore
SplineSet
-148 1500 m 256,0,1
 -148 1523 -148 1523 -140 1544 c 128,-1,2
 -132 1565 -132 1565 -117 1580.5 c 128,-1,3
 -102 1596 -102 1596 -81.5 1606 c 128,-1,4
 -61 1616 -61 1616 -36 1615 c 0,5,6
 -11 1615 -11 1615 9.5 1605.5 c 128,-1,7
 30 1596 30 1596 45 1580.5 c 128,-1,8
 60 1565 60 1565 68 1544 c 128,-1,9
 76 1523 76 1523 76 1500 c 256,10,11
 76 1477 76 1477 68 1456 c 128,-1,12
 60 1435 60 1435 45 1419 c 128,-1,13
 30 1403 30 1403 9.5 1394 c 128,-1,14
 -11 1385 -11 1385 -36 1385 c 256,15,16
 -61 1385 -61 1385 -81.5 1394 c 128,-1,17
 -102 1403 -102 1403 -117 1419 c 128,-1,18
 -132 1435 -132 1435 -140 1456 c 128,-1,19
 -148 1477 -148 1477 -148 1500 c 256,0,1
341 1500 m 256,20,21
 341 1523 341 1523 349 1544 c 128,-1,22
 357 1565 357 1565 372 1580.5 c 128,-1,23
 387 1596 387 1596 407.5 1606 c 128,-1,24
 428 1616 428 1616 453 1615 c 0,25,26
 478 1615 478 1615 498.5 1605.5 c 128,-1,27
 519 1596 519 1596 534 1580.5 c 128,-1,28
 549 1565 549 1565 557 1544 c 128,-1,29
 565 1523 565 1523 565 1500 c 256,30,31
 565 1477 565 1477 557 1456 c 128,-1,32
 549 1435 549 1435 534 1419 c 128,-1,33
 519 1403 519 1403 498.5 1394 c 128,-1,34
 478 1385 478 1385 453 1385 c 256,35,36
 428 1385 428 1385 407.5 1394 c 128,-1,37
 387 1403 387 1403 372 1419 c 128,-1,38
 357 1435 357 1435 349 1456 c 128,-1,39
 341 1477 341 1477 341 1500 c 256,20,21
149 0 m 1,40,-1
 149 1169 l 1,41,-1
 331 1169 l 1,42,-1
 331 0 l 1,43,-1
 149 0 l 1,40,-1
EndSplineSet
EndChar

StartChar: eth
Encoding: 240 240 180
Width: 1218
Flags: MW
LayerCount: 2
Fore
SplineSet
1107 690 m 0,0,1
 1107 -20 1107 -20 574 -20 c 0,2,3
 445 -20 445 -20 353.5 29 c 128,-1,4
 262 78 262 78 203.5 161 c 128,-1,5
 145 244 145 244 117.5 353.5 c 128,-1,6
 90 463 90 463 90 584 c 0,7,8
 90 708 90 708 119.5 818 c 128,-1,9
 149 928 149 928 207 1010.5 c 128,-1,10
 265 1093 265 1093 351.5 1141.5 c 128,-1,11
 438 1190 438 1190 552 1190 c 0,12,13
 610 1190 610 1190 665.5 1175.5 c 128,-1,14
 721 1161 721 1161 769 1138 c 128,-1,15
 817 1115 817 1115 855.5 1086 c 128,-1,16
 894 1057 894 1057 917 1028 c 1,17,18
 888 1116 888 1116 834 1204 c 128,-1,19
 780 1292 780 1292 708 1380 c 1,20,-1
 473 1311 l 1,21,-1
 431 1401 l 1,22,-1
 634 1461 l 1,23,24
 580 1515 580 1515 525.5 1559.5 c 128,-1,25
 471 1604 471 1604 413 1641 c 1,26,-1
 497 1743 l 1,27,28
 563 1706 563 1706 636.5 1650 c 128,-1,29
 710 1594 710 1594 792 1508 c 1,30,-1
 1079 1593 l 1,31,-1
 1121 1503 l 1,32,-1
 861 1426 l 1,33,34
 917 1353 917 1353 962.5 1272.5 c 128,-1,35
 1008 1192 1008 1192 1040 1101.5 c 128,-1,36
 1072 1011 1072 1011 1089.5 908.5 c 128,-1,37
 1107 806 1107 806 1107 690 c 0,0,1
272 587 m 0,38,39
 272 123 272 123 570 123 c 0,40,41
 655 123 655 123 720.5 150.5 c 128,-1,42
 786 178 786 178 831 241.5 c 128,-1,43
 876 305 876 305 899.5 409 c 128,-1,44
 923 513 923 513 923 666 c 0,45,46
 923 742 923 742 907.5 800 c 128,-1,47
 892 858 892 858 865.5 900 c 128,-1,48
 839 942 839 942 805.5 970.5 c 128,-1,49
 772 999 772 999 735.5 1016 c 128,-1,50
 699 1033 699 1033 663 1040 c 128,-1,51
 627 1047 627 1047 596 1047 c 0,52,53
 558 1047 558 1047 519 1041 c 128,-1,54
 480 1035 480 1035 444 1017.5 c 128,-1,55
 408 1000 408 1000 376.5 968.5 c 128,-1,56
 345 937 345 937 322 886 c 128,-1,57
 299 835 299 835 285.5 761.5 c 128,-1,58
 272 688 272 688 272 587 c 0,38,39
EndSplineSet
EndChar

StartChar: divide
Encoding: 247 247 187
Width: 882
Flags: MW
LayerCount: 2
Fore
SplineSet
327 835 m 256,0,1
 327 858 327 858 335 879 c 128,-1,2
 343 900 343 900 358 915.5 c 128,-1,3
 373 931 373 931 393.5 940.5 c 128,-1,4
 414 950 414 950 439 950 c 0,5,6
 487 950 487 950 517 916.5 c 128,-1,7
 547 883 547 883 547 835 c 256,8,9
 547 787 547 787 517 753.5 c 128,-1,10
 487 720 487 720 439 720 c 0,11,12
 414 720 414 720 393.5 729 c 128,-1,13
 373 738 373 738 358 754 c 128,-1,14
 343 770 343 770 335 791 c 128,-1,15
 327 812 327 812 327 835 c 256,0,1
325 300 m 256,16,17
 325 323 325 323 333 344 c 128,-1,18
 341 365 341 365 356 380.5 c 128,-1,19
 371 396 371 396 391.5 405.5 c 128,-1,20
 412 415 412 415 437 415 c 0,21,22
 485 415 485 415 515 381.5 c 128,-1,23
 545 348 545 348 545 300 c 256,24,25
 545 252 545 252 515 218.5 c 128,-1,26
 485 185 485 185 437 185 c 0,27,28
 412 185 412 185 391.5 194 c 128,-1,29
 371 203 371 203 356 219 c 128,-1,30
 341 235 341 235 333 256 c 128,-1,31
 325 277 325 277 325 300 c 256,16,17
100 508 m 1,32,-1
 100 639 l 1,33,-1
 782 639 l 1,34,-1
 782 508 l 1,35,-1
 100 508 l 1,32,-1
EndSplineSet
EndChar

StartChar: oslash
Encoding: 248 248 188
Width: 1241
Flags: MW
LayerCount: 2
Fore
SplineSet
732 1035 m 1,0,1
 687 1051 687 1051 621 1051 c 0,2,3
 519 1051 519 1051 452 1011 c 128,-1,4
 385 971 385 971 345.5 905 c 128,-1,5
 306 839 306 839 289.5 754.5 c 128,-1,6
 273 670 273 670 273 582 c 0,7,8
 273 444 273 444 310 336.5 c 128,-1,9
 347 229 347 229 433 169 c 1,10,-1
 732 1035 l 1,0,1
405 -198 m 1,11,-1
 317 -168 l 1,12,-1
 384 28 l 1,13,14
 310 63 310 63 255.5 117.5 c 128,-1,15
 201 172 201 172 164 243 c 128,-1,16
 127 314 127 314 109 399.5 c 128,-1,17
 91 485 91 485 91 582 c 0,18,19
 91 703 91 703 122.5 813.5 c 128,-1,20
 154 924 154 924 219 1007.5 c 128,-1,21
 284 1091 284 1091 384 1140.5 c 128,-1,22
 484 1190 484 1190 621 1190 c 0,23,24
 702 1190 702 1190 779 1170 c 1,25,-1
 846 1365 l 1,26,-1
 927 1335 l 1,27,-1
 860 1140 l 1,28,29
 936 1101 936 1101 991 1043.5 c 128,-1,30
 1046 986 1046 986 1082 914.5 c 128,-1,31
 1118 843 1118 843 1135 759 c 128,-1,32
 1152 675 1152 675 1152 582 c 0,33,34
 1152 458 1152 458 1120.5 348.5 c 128,-1,35
 1089 239 1089 239 1023.5 157 c 128,-1,36
 958 75 958 75 858 27.5 c 128,-1,37
 758 -20 758 -20 621 -20 c 0,38,39
 540 -20 540 -20 471 -2 c 1,40,-1
 405 -198 l 1,11,-1
621 117 m 0,41,42
 717 117 717 117 783.5 153.5 c 128,-1,43
 850 190 850 190 891.5 253 c 128,-1,44
 933 316 933 316 951 400.5 c 128,-1,45
 969 485 969 485 969 582 c 0,46,47
 969 718 969 718 932 826.5 c 128,-1,48
 895 935 895 935 811 996 c 1,49,-1
 516 130 l 1,50,51
 558 117 558 117 621 117 c 0,41,42
EndSplineSet
EndChar

StartChar: thorn
Encoding: 254 254 194
Width: 1252
Flags: MW
LayerCount: 2
Fore
SplineSet
980 543 m 0,0,1
 980 597 980 597 976 655 c 128,-1,2
 972 713 972 713 960.5 769 c 128,-1,3
 949 825 949 825 929 875.5 c 128,-1,4
 909 926 909 926 877 964 c 128,-1,5
 845 1002 845 1002 800 1024.5 c 128,-1,6
 755 1047 755 1047 693 1047 c 0,7,8
 633 1047 633 1047 578 1028 c 128,-1,9
 523 1009 523 1009 476.5 983 c 128,-1,10
 430 957 430 957 394.5 931 c 128,-1,11
 359 905 359 905 338 890 c 1,12,-1
 338 244 l 1,13,14
 369 218 369 218 411.5 196 c 128,-1,15
 454 174 454 174 502 157.5 c 128,-1,16
 550 141 550 141 601 132 c 128,-1,17
 652 123 652 123 701 123 c 0,18,19
 755 123 755 123 797 141.5 c 128,-1,20
 839 160 839 160 870 191 c 128,-1,21
 901 222 901 222 922 264 c 128,-1,22
 943 306 943 306 956 352.5 c 128,-1,23
 969 399 969 399 974.5 448 c 128,-1,24
 980 497 980 497 980 543 c 0,0,1
693 -20 m 0,25,26
 444 -20 444 -20 334 117 c 1,27,-1
 334 -465 l 1,28,-1
 148 -487 l 1,29,-1
 148 1565 l 1,30,-1
 332 1565 l 1,31,-1
 332 1004 l 1,32,33
 364 1044 364 1044 404 1078 c 128,-1,34
 444 1112 444 1112 490.5 1137 c 128,-1,35
 537 1162 537 1162 588 1176 c 128,-1,36
 639 1190 639 1190 693 1190 c 0,37,38
 778 1190 778 1190 845.5 1166 c 128,-1,39
 913 1142 913 1142 965 1100 c 128,-1,40
 1017 1058 1017 1058 1054.5 1000 c 128,-1,41
 1092 942 1092 942 1116 875 c 128,-1,42
 1140 808 1140 808 1151 733.5 c 128,-1,43
 1162 659 1162 659 1162 584 c 0,44,45
 1162 468 1162 468 1135 359.5 c 128,-1,46
 1108 251 1108 251 1051 166.5 c 128,-1,47
 994 82 994 82 905 31 c 128,-1,48
 816 -20 816 -20 693 -20 c 0,25,26
EndSplineSet
EndChar

StartChar: dotlessi
Encoding: 305 305 196
Width: 480
Flags: MW
LayerCount: 2
Fore
SplineSet
149 1169 m 1,0,-1
 331 1169 l 1,1,-1
 331 0 l 1,2,-1
 149 0 l 1,3,-1
 149 1169 l 1,0,-1
EndSplineSet
EndChar

StartChar: OE
Encoding: 338 338 197
Width: 2296
Flags: MW
LayerCount: 2
Fore
SplineSet
1221 0 m 1,0,-1
 1221 1579 l 1,1,-1
 2191 1579 l 1,2,-1
 2191 1436 l 1,3,-1
 1415 1436 l 1,4,-1
 1415 891 l 1,5,-1
 2093 891 l 1,6,-1
 2093 776 l 1,7,-1
 1415 776 l 1,8,-1
 1415 143 l 1,9,-1
 2204 143 l 1,10,-1
 2204 0 l 1,11,-1
 1221 0 l 1,0,-1
1418 806 m 0,12,13
 1418 696 1418 696 1406 590.5 c 128,-1,14
 1394 485 1394 485 1365.5 390.5 c 128,-1,15
 1337 296 1337 296 1288.5 216.5 c 128,-1,16
 1240 137 1240 137 1167 79.5 c 128,-1,17
 1094 22 1094 22 993.5 -10.5 c 128,-1,18
 893 -43 893 -43 761 -43 c 0,19,20
 628 -43 628 -43 527 -9.5 c 128,-1,21
 426 24 426 24 353.5 84 c 128,-1,22
 281 144 281 144 233 226 c 128,-1,23
 185 308 185 308 156.5 405 c 128,-1,24
 128 502 128 502 116.5 609.5 c 128,-1,25
 105 717 105 717 105 829 c 0,26,27
 105 1010 105 1010 147.5 1154.5 c 128,-1,28
 190 1299 190 1299 273 1400 c 128,-1,29
 356 1501 356 1501 478.5 1554.5 c 128,-1,30
 601 1608 601 1608 761 1608 c 0,31,32
 922 1608 922 1608 1045 1554 c 128,-1,33
 1168 1500 1168 1500 1251 1397 c 128,-1,34
 1334 1294 1334 1294 1376 1145 c 128,-1,35
 1418 996 1418 996 1418 806 c 0,12,13
306 775 m 0,36,37
 306 439 306 439 422.5 275.5 c 128,-1,38
 539 112 539 112 761 112 c 0,39,40
 865 112 865 112 949 147.5 c 128,-1,41
 1033 183 1033 183 1092.5 262 c 128,-1,42
 1152 341 1152 341 1184 467.5 c 128,-1,43
 1216 594 1216 594 1216 775 c 256,44,45
 1216 956 1216 956 1186 1085.5 c 128,-1,46
 1156 1215 1156 1215 1098.5 1298 c 128,-1,47
 1041 1381 1041 1381 957.5 1420 c 128,-1,48
 874 1459 874 1459 768 1459 c 0,49,50
 658 1459 658 1459 572 1421.5 c 128,-1,51
 486 1384 486 1384 427 1302 c 128,-1,52
 368 1220 368 1220 337 1090 c 128,-1,53
 306 960 306 960 306 775 c 0,36,37
EndSplineSet
EndChar

StartChar: oe
Encoding: 339 339 198
Width: 2005
Flags: MW
LayerCount: 2
Fore
SplineSet
1759 682 m 1,0,1
 1759 861 1759 861 1689.5 957 c 128,-1,2
 1620 1053 1620 1053 1489 1053 c 0,3,4
 1415 1053 1415 1053 1356.5 1026 c 128,-1,5
 1298 999 1298 999 1256 950 c 128,-1,6
 1214 901 1214 901 1189.5 832.5 c 128,-1,7
 1165 764 1165 764 1159 682 c 1,8,-1
 1759 682 l 1,0,1
620 97 m 0,9,10
 723 97 723 97 790.5 139.5 c 128,-1,11
 858 182 858 182 897.5 250 c 128,-1,12
 937 318 937 318 952.5 401.5 c 128,-1,13
 968 485 968 485 968 568 c 0,14,15
 968 623 968 623 961.5 679.5 c 128,-1,16
 955 736 955 736 939 788 c 128,-1,17
 923 840 923 840 897.5 886 c 128,-1,18
 872 932 872 932 833 966 c 128,-1,19
 794 1000 794 1000 741.5 1019.5 c 128,-1,20
 689 1039 689 1039 620 1039 c 256,21,22
 551 1039 551 1039 498.5 1019.5 c 128,-1,23
 446 1000 446 1000 407 966 c 128,-1,24
 368 932 368 932 342.5 886 c 128,-1,25
 317 840 317 840 301 788 c 128,-1,26
 285 736 285 736 278.5 679.5 c 128,-1,27
 272 623 272 623 272 568 c 256,28,29
 272 513 272 513 278.5 456.5 c 128,-1,30
 285 400 285 400 301 348 c 128,-1,31
 317 296 317 296 342.5 250 c 128,-1,32
 368 204 368 204 407 170 c 128,-1,33
 446 136 446 136 498.5 116.5 c 128,-1,34
 551 97 551 97 620 97 c 0,9,10
1873 101 m 1,35,36
 1833 72 1833 72 1782 49.5 c 128,-1,37
 1731 27 1731 27 1678.5 11.5 c 128,-1,38
 1626 -4 1626 -4 1577 -12 c 128,-1,39
 1528 -20 1528 -20 1493 -20 c 0,40,41
 1398 -20 1398 -20 1326.5 0.5 c 128,-1,42
 1255 21 1255 21 1203.5 57 c 128,-1,43
 1152 93 1152 93 1118 141 c 128,-1,44
 1084 189 1084 189 1065 243 c 1,45,46
 1040 166 1040 166 994.5 112 c 128,-1,47
 949 58 949 58 890 24.5 c 128,-1,48
 831 -9 831 -9 761.5 -24.5 c 128,-1,49
 692 -40 692 -40 620 -40 c 0,50,51
 487 -40 487 -40 387.5 6 c 128,-1,52
 288 52 288 52 221.5 133.5 c 128,-1,53
 155 215 155 215 122 326 c 128,-1,54
 89 437 89 437 89 568 c 0,55,56
 89 634 89 634 98 704.5 c 128,-1,57
 107 775 107 775 130 842.5 c 128,-1,58
 153 910 153 910 191.5 970.5 c 128,-1,59
 230 1031 230 1031 289 1076.5 c 128,-1,60
 348 1122 348 1122 429.5 1149 c 128,-1,61
 511 1176 511 1176 620 1176 c 0,62,63
 783 1176 783 1176 895 1106.5 c 128,-1,64
 1007 1037 1007 1037 1058 888 c 1,65,66
 1112 1037 1112 1037 1211 1113.5 c 128,-1,67
 1310 1190 1310 1190 1462 1190 c 0,68,69
 1572 1190 1572 1190 1658.5 1157 c 128,-1,70
 1745 1124 1745 1124 1804.5 1060 c 128,-1,71
 1864 996 1864 996 1895.5 901.5 c 128,-1,72
 1927 807 1927 807 1927 684 c 0,73,74
 1927 652 1927 652 1925 622.5 c 128,-1,75
 1923 593 1923 593 1919 567 c 1,76,-1
 1159 567 l 1,77,78
 1159 441 1159 441 1183 355 c 128,-1,79
 1207 269 1207 269 1252.5 216 c 128,-1,80
 1298 163 1298 163 1363 140 c 128,-1,81
 1428 117 1428 117 1509 117 c 0,82,83
 1556 117 1556 117 1596 124 c 128,-1,84
 1636 131 1636 131 1672 145.5 c 128,-1,85
 1708 160 1708 160 1741.5 182 c 128,-1,86
 1775 204 1775 204 1811 234 c 1,87,-1
 1873 101 l 1,35,36
EndSplineSet
EndChar

StartChar: florin
Encoding: 402 402 204
Width: 824
Flags: MW
LayerCount: 2
Fore
SplineSet
667 1516 m 0,0,1
 608 1516 608 1516 575 1491.5 c 128,-1,2
 542 1467 542 1467 524 1413 c 128,-1,3
 506 1359 506 1359 497.5 1272.5 c 128,-1,4
 489 1186 489 1186 479 1062 c 1,5,-1
 786 1062 l 1,6,-1
 776 957 l 1,7,-1
 469 957 l 1,8,-1
 404 216 l 2,9,10
 393 90 393 90 365 2.5 c 128,-1,11
 337 -85 337 -85 293 -140 c 128,-1,12
 249 -195 249 -195 188 -220 c 128,-1,13
 127 -245 127 -245 49 -245 c 0,14,15
 -6 -245 -6 -245 -53 -232.5 c 128,-1,16
 -100 -220 -100 -220 -135 -205 c 0,17,18
 -175 -187 -175 -187 -209 -165 c 1,19,-1
 -135 -40 l 1,20,21
 -106 -58 -106 -58 -76 -71 c 0,22,23
 -50 -83 -50 -83 -20 -92.5 c 128,-1,24
 10 -102 10 -102 38 -102 c 0,25,26
 73 -102 73 -102 101.5 -92.5 c 128,-1,27
 130 -83 130 -83 151 -60 c 128,-1,28
 172 -37 172 -37 185.5 1.5 c 128,-1,29
 199 40 199 40 204 98 c 2,30,-1
 279 957 l 1,31,-1
 46 957 l 1,32,-1
 56 1062 l 1,33,-1
 289 1062 l 1,34,35
 304 1226 304 1226 327.5 1339.5 c 128,-1,36
 351 1453 351 1453 392.5 1524 c 128,-1,37
 434 1595 434 1595 497.5 1627 c 128,-1,38
 561 1659 561 1659 656 1659 c 0,39,40
 711 1659 711 1659 758.5 1646.5 c 128,-1,41
 806 1634 806 1634 841 1619 c 0,42,43
 881 1601 881 1601 915 1579 c 1,44,-1
 848 1458 l 1,45,46
 817 1474 817 1474 785 1487 c 0,47,48
 758 1498 758 1498 726.5 1507 c 128,-1,49
 695 1516 695 1516 667 1516 c 0,0,1
EndSplineSet
EndChar

StartChar: circumflex
Encoding: 710 710 205
Width: 768
Flags: MW
LayerCount: 2
Fore
SplineSet
512 1152 m 1,0,-1
 383 1472 l 1,1,-1
 256 1152 l 1,2,-1
 63 1152 l 1,3,-1
 320 1664 l 1,4,-1
 447 1664 l 1,5,-1
 704 1152 l 1,6,-1
 512 1152 l 1,0,-1
EndSplineSet
EndChar

StartChar: caron
Encoding: 711 711 206
Width: 1428
Flags: MW
LayerCount: 2
Fore
SplineSet
666 61 m 1,0,-1
 374 562 l 1,1,-1
 502 640 l 1,2,-1
 714 263 l 1,3,-1
 926 640 l 1,4,-1
 1054 562 l 1,5,-1
 762 61 l 1,6,-1
 666 61 l 1,0,-1
EndSplineSet
EndChar

StartChar: ring
Encoding: 730 730 207
Width: 1707
Flags: MW
LayerCount: 2
Fore
SplineSet
709 311 m 256,0,1
 709 280 709 280 719.5 253 c 128,-1,2
 730 226 730 226 749.5 205.5 c 128,-1,3
 769 185 769 185 795 173.5 c 128,-1,4
 821 162 821 162 853 162 c 256,5,6
 885 162 885 162 911.5 173.5 c 128,-1,7
 938 185 938 185 957.5 205.5 c 128,-1,8
 977 226 977 226 988 253 c 128,-1,9
 999 280 999 280 999 311 c 256,10,11
 999 342 999 342 988 369 c 128,-1,12
 977 396 977 396 957.5 416.5 c 128,-1,13
 938 437 938 437 911.5 448.5 c 128,-1,14
 885 460 885 460 853 460 c 256,15,16
 821 460 821 460 795 448.5 c 128,-1,17
 769 437 769 437 749.5 416.5 c 128,-1,18
 730 396 730 396 719.5 369 c 128,-1,19
 709 342 709 342 709 311 c 256,0,1
854 551 m 0,20,21
 906 551 906 551 950.5 532.5 c 128,-1,22
 995 514 995 514 1027.5 481.5 c 128,-1,23
 1060 449 1060 449 1078 405 c 128,-1,24
 1096 361 1096 361 1096 310 c 0,25,26
 1096 260 1096 260 1078 216.5 c 128,-1,27
 1060 173 1060 173 1027.5 140.5 c 128,-1,28
 995 108 995 108 950.5 89.5 c 128,-1,29
 906 71 906 71 854 71 c 0,30,31
 801 71 801 71 756.5 89.5 c 128,-1,32
 712 108 712 108 679.5 140.5 c 128,-1,33
 647 173 647 173 629 216.5 c 128,-1,34
 611 260 611 260 611 310 c 0,35,36
 611 361 611 361 629 405 c 128,-1,37
 647 449 647 449 679.5 481.5 c 128,-1,38
 712 514 712 514 756.5 532.5 c 128,-1,39
 801 551 801 551 854 551 c 0,20,21
EndSplineSet
EndChar

StartChar: tilde
Encoding: 732 732 208
Width: 1024
Flags: MW
LayerCount: 2
Fore
SplineSet
704 1200 m 256,0,1
 656 1200 656 1200 610 1212.5 c 128,-1,2
 564 1225 564 1225 523 1240 c 128,-1,3
 482 1255 482 1255 446.5 1267.5 c 128,-1,4
 411 1280 411 1280 384 1280 c 0,5,6
 360 1280 360 1280 347 1270 c 128,-1,7
 334 1260 334 1260 328 1248 c 0,8,9
 321 1234 321 1234 320 1216 c 1,10,-1
 128 1216 l 1,11,12
 128 1347 128 1347 175.5 1417.5 c 128,-1,13
 223 1488 223 1488 320 1488 c 0,14,15
 368 1488 368 1488 408 1475.5 c 128,-1,16
 448 1463 448 1463 485.5 1448 c 128,-1,17
 523 1433 523 1433 560.5 1420.5 c 128,-1,18
 598 1408 598 1408 640 1408 c 0,19,20
 664 1408 664 1408 677 1418 c 128,-1,21
 690 1428 690 1428 696 1440 c 0,22,23
 703 1454 703 1454 704 1472 c 1,24,-1
 896 1472 l 1,25,26
 896 1415 896 1415 884 1365.5 c 128,-1,27
 872 1316 872 1316 848 1279.5 c 128,-1,28
 824 1243 824 1243 788 1221.5 c 128,-1,29
 752 1200 752 1200 704 1200 c 256,0,1
EndSplineSet
EndChar

StartChar: acutecomb
Encoding: 769 769 209
Width: 640
Flags: MW
LayerCount: 2
Fore
SplineSet
160 1200 m 1,0,-1
 320 1728 l 1,1,-1
 576 1600 l 1,2,-1
 256 1152 l 1,3,-1
 160 1200 l 1,0,-1
EndSplineSet
EndChar

StartChar: uni0306
Encoding: 774 774 210
Width: 780
Flags: MW
LayerCount: 2
Fore
SplineSet
643 308 m 1,0,1
 643 197 643 197 581.5 133 c 128,-1,2
 520 69 520 69 385 69 c 0,3,4
 316 69 316 69 266.5 86.5 c 128,-1,5
 217 104 217 104 185 136 c 128,-1,6
 153 168 153 168 138 211.5 c 128,-1,7
 123 255 123 255 123 308 c 1,8,-1
 240 308 l 1,9,10
 240 248 240 248 279.5 213.5 c 128,-1,11
 319 179 319 179 385 179 c 256,12,13
 451 179 451 179 488.5 213.5 c 128,-1,14
 526 248 526 248 526 308 c 1,15,-1
 643 308 l 1,0,1
EndSplineSet
EndChar

StartChar: afii10051
Encoding: 1026 1026 213
Width: 1586
Flags: MW
LayerCount: 2
Fore
SplineSet
873 -97 m 1,0,1
 971 -94 971 -94 1048 -78 c 128,-1,2
 1125 -62 1125 -62 1178 -19 c 128,-1,3
 1231 24 1231 24 1259 100.5 c 128,-1,4
 1287 177 1287 177 1287 300 c 2,5,-1
 1287 727 l 2,6,7
 1287 894 1287 894 1232 970.5 c 128,-1,8
 1177 1047 1177 1047 1065 1047 c 0,9,10
 1002 1047 1002 1047 943 1031 c 128,-1,11
 884 1015 884 1015 834 991.5 c 128,-1,12
 784 968 784 968 745 940 c 128,-1,13
 706 912 706 912 683 888 c 1,14,-1
 683 0 l 1,15,-1
 489 0 l 1,16,-1
 489 1436 l 1,17,-1
 33 1436 l 1,18,-1
 33 1579 l 1,19,-1
 1141 1579 l 1,20,-1
 1141 1436 l 1,21,-1
 683 1436 l 1,22,-1
 683 1024 l 1,23,24
 730 1076 730 1076 776.5 1108.5 c 128,-1,25
 823 1141 823 1141 871 1159 c 128,-1,26
 919 1177 919 1177 969.5 1183.5 c 128,-1,27
 1020 1190 1020 1190 1075 1190 c 0,28,29
 1481 1190 1481 1190 1481 727 c 2,30,-1
 1481 270 l 2,31,32
 1481 149 1481 149 1442 55.5 c 128,-1,33
 1403 -38 1403 -38 1326 -102 c 128,-1,34
 1249 -166 1249 -166 1135.5 -199 c 128,-1,35
 1022 -232 1022 -232 873 -232 c 1,36,-1
 873 -97 l 1,0,1
EndSplineSet
EndChar

StartChar: afii10053
Encoding: 1028 1028 215
Width: 1265
Flags: MW
LayerCount: 2
Fore
SplineSet
103 767 m 0,0,1
 103 1186 103 1186 273.5 1398 c 128,-1,2
 444 1610 444 1610 783 1610 c 0,3,4
 820 1610 820 1610 856.5 1607 c 128,-1,5
 893 1604 893 1604 938.5 1595 c 128,-1,6
 984 1586 984 1586 1043 1570.5 c 128,-1,7
 1102 1555 1102 1555 1185 1530 c 1,8,-1
 1140 1385 l 1,9,10
 1077 1407 1077 1407 1027 1421 c 128,-1,11
 977 1435 977 1435 935.5 1443.5 c 128,-1,12
 894 1452 894 1452 858 1455 c 128,-1,13
 822 1458 822 1458 788 1458 c 0,14,15
 677 1458 677 1458 589.5 1425 c 128,-1,16
 502 1392 502 1392 440.5 1318.5 c 128,-1,17
 379 1245 379 1245 344.5 1127 c 128,-1,18
 310 1009 310 1009 305 840 c 1,19,-1
 1003 840 l 1,20,-1
 1003 726 l 1,21,-1
 305 726 l 1,22,23
 311 575 311 575 340 460 c 128,-1,24
 369 345 369 345 423.5 267.5 c 128,-1,25
 478 190 478 190 559.5 150.5 c 128,-1,26
 641 111 641 111 753 111 c 0,27,28
 859 111 859 111 956.5 139 c 128,-1,29
 1054 167 1054 167 1157 218 c 1,30,-1
 1213 79 l 1,31,32
 1174 59 1174 59 1121.5 37.5 c 128,-1,33
 1069 16 1069 16 1010.5 -1.5 c 128,-1,34
 952 -19 952 -19 889.5 -30 c 128,-1,35
 827 -41 827 -41 767 -41 c 0,36,37
 601 -41 601 -41 476.5 13.5 c 128,-1,38
 352 68 352 68 269 172 c 128,-1,39
 186 276 186 276 144.5 426 c 128,-1,40
 103 576 103 576 103 767 c 0,0,1
EndSplineSet
EndChar

StartChar: afii10058
Encoding: 1033 1033 220
Width: 2554
Flags: MW
LayerCount: 2
Fore
SplineSet
2318 491 m 0,0,1
 2318 582 2318 582 2289 640.5 c 128,-1,2
 2260 699 2260 699 2194.5 733.5 c 128,-1,3
 2129 768 2129 768 2024 781.5 c 128,-1,4
 1919 795 1919 795 1767 795 c 2,5,-1
 1607 795 l 1,6,-1
 1607 143 l 1,7,-1
 1812 143 l 2,8,9
 1931 143 1931 143 2015 153.5 c 128,-1,10
 2099 164 2099 164 2155 185 c 128,-1,11
 2211 206 2211 206 2243.5 236 c 128,-1,12
 2276 266 2276 266 2292.5 304.5 c 128,-1,13
 2309 343 2309 343 2313.5 390 c 128,-1,14
 2318 437 2318 437 2318 491 c 0,0,1
1413 0 m 1,15,-1
 1413 1436 l 1,16,-1
 658 1436 l 1,17,-1
 623 842 l 1,18,-1
 599 446 l 2,19,20
 591 318 591 318 551.5 229.5 c 128,-1,21
 512 141 512 141 437.5 85.5 c 128,-1,22
 363 30 363 30 251 5 c 128,-1,23
 139 -20 139 -20 -12 -20 c 1,24,-1
 -8 123 l 1,25,26
 96 128 96 128 167 144.5 c 128,-1,27
 238 161 238 161 283.5 191.5 c 128,-1,28
 329 222 329 222 353.5 267 c 128,-1,29
 378 312 378 312 391 373.5 c 128,-1,30
 404 435 404 435 408.5 515 c 128,-1,31
 413 595 413 595 419 696 c 2,32,-1
 468 1580 l 1,33,-1
 1607 1580 l 1,34,-1
 1607 940 l 1,35,-1
 1767 940 l 2,36,37
 1970 940 1970 940 2110 909.5 c 128,-1,38
 2250 879 2250 879 2336.5 820 c 128,-1,39
 2423 761 2423 761 2461.5 673.5 c 128,-1,40
 2500 586 2500 586 2500 472 c 0,41,42
 2500 334 2500 334 2455.5 243 c 128,-1,43
 2411 152 2411 152 2323.5 98 c 128,-1,44
 2236 44 2236 44 2105 22 c 128,-1,45
 1974 0 1974 0 1800 0 c 2,46,-1
 1413 0 l 1,15,-1
EndSplineSet
EndChar

StartChar: afii10059
Encoding: 1034 1034 221
Width: 2341
Flags: MW
LayerCount: 2
Fore
SplineSet
2105 491 m 0,0,1
 2105 582 2105 582 2076 640.5 c 128,-1,2
 2047 699 2047 699 1981.5 733.5 c 128,-1,3
 1916 768 1916 768 1811 781.5 c 128,-1,4
 1706 795 1706 795 1554 795 c 2,5,-1
 1394 795 l 1,6,-1
 1394 143 l 1,7,-1
 1599 143 l 2,8,9
 1718 143 1718 143 1802 153.5 c 128,-1,10
 1886 164 1886 164 1942 185 c 128,-1,11
 1998 206 1998 206 2030.5 236 c 128,-1,12
 2063 266 2063 266 2079.5 304.5 c 128,-1,13
 2096 343 2096 343 2100.5 390 c 128,-1,14
 2105 437 2105 437 2105 491 c 0,0,1
1200 764 m 1,15,-1
 368 764 l 1,16,-1
 368 0 l 1,17,-1
 174 0 l 1,18,-1
 174 1579 l 1,19,-1
 368 1579 l 1,20,-1
 368 879 l 1,21,-1
 1200 879 l 1,22,-1
 1200 1579 l 1,23,-1
 1394 1579 l 1,24,-1
 1394 940 l 1,25,-1
 1554 940 l 2,26,27
 1757 940 1757 940 1897 909.5 c 128,-1,28
 2037 879 2037 879 2123.5 820 c 128,-1,29
 2210 761 2210 761 2248.5 673.5 c 128,-1,30
 2287 586 2287 586 2287 472 c 0,31,32
 2287 334 2287 334 2242.5 243 c 128,-1,33
 2198 152 2198 152 2110.5 98 c 128,-1,34
 2023 44 2023 44 1892 22 c 128,-1,35
 1761 0 1761 0 1587 0 c 2,36,-1
 1200 0 l 1,37,-1
 1200 764 l 1,15,-1
EndSplineSet
EndChar

StartChar: afii10060
Encoding: 1035 1035 222
Width: 1568
Flags: MW
LayerCount: 2
Fore
SplineSet
683 0 m 1,0,-1
 489 0 l 1,1,-1
 489 1436 l 1,2,-1
 33 1436 l 1,3,-1
 33 1579 l 1,4,-1
 1141 1579 l 1,5,-1
 1141 1436 l 1,6,-1
 683 1436 l 1,7,-1
 683 940 l 1,8,-1
 1075 940 l 2,9,10
 1171 940 1171 940 1246.5 912.5 c 128,-1,11
 1322 885 1322 885 1373.5 828.5 c 128,-1,12
 1425 772 1425 772 1452.5 684.5 c 128,-1,13
 1480 597 1480 597 1480 477 c 2,14,-1
 1480 0 l 1,15,-1
 1286 0 l 1,16,-1
 1286 477 l 2,17,18
 1286 577 1286 577 1268.5 640 c 128,-1,19
 1251 703 1251 703 1220.5 737.5 c 128,-1,20
 1190 772 1190 772 1148.5 784.5 c 128,-1,21
 1107 797 1107 797 1058 797 c 2,22,-1
 683 797 l 1,23,-1
 683 0 l 1,0,-1
EndSplineSet
EndChar

StartChar: afii10145
Encoding: 1039 1039 226
Width: 1567
Flags: MW
LayerCount: 2
Fore
SplineSet
174 1579 m 1,0,-1
 368 1579 l 1,1,-1
 368 143 l 1,2,-1
 1200 143 l 1,3,-1
 1200 1579 l 1,4,-1
 1394 1579 l 1,5,-1
 1394 0 l 1,6,-1
 884 0 l 1,7,-1
 884 -418 l 1,8,-1
 712 -418 l 1,9,-1
 712 0 l 1,10,-1
 174 0 l 1,11,-1
 174 1579 l 1,0,-1
EndSplineSet
EndChar

StartChar: afii10018
Encoding: 1041 1041 228
Width: 1343
Flags: MW
LayerCount: 2
Fore
SplineSet
369 143 m 1,0,-1
 583 143 l 2,1,2
 745 143 745 143 844.5 155.5 c 128,-1,3
 944 168 944 168 998 205.5 c 128,-1,4
 1052 243 1052 243 1070.5 311 c 128,-1,5
 1089 379 1089 379 1089 490 c 0,6,7
 1089 562 1089 562 1065 613 c 128,-1,8
 1041 664 1041 664 1000 698 c 128,-1,9
 959 732 959 732 904.5 751.5 c 128,-1,10
 850 771 850 771 789 780.5 c 128,-1,11
 728 790 728 790 663.5 792.5 c 128,-1,12
 599 795 599 795 538 795 c 2,13,-1
 369 795 l 1,14,-1
 369 143 l 1,0,-1
1271 466 m 0,15,16
 1271 344 1271 344 1234.5 256 c 128,-1,17
 1198 168 1198 168 1115.5 111 c 128,-1,18
 1033 54 1033 54 899 27 c 128,-1,19
 765 0 765 0 571 0 c 2,20,-1
 174 0 l 1,21,-1
 174 1579 l 1,22,-1
 1136 1579 l 1,23,-1
 1136 1436 l 1,24,-1
 369 1436 l 1,25,-1
 369 940 l 1,26,-1
 538 940 l 2,27,28
 739 940 739 940 878.5 911 c 128,-1,29
 1018 882 1018 882 1105.5 823 c 128,-1,30
 1193 764 1193 764 1232 675 c 128,-1,31
 1271 586 1271 586 1271 466 c 0,15,16
EndSplineSet
EndChar

StartChar: afii10020
Encoding: 1043 1043 230
Width: 1220
Flags: MW
LayerCount: 2
Fore
SplineSet
368 1436 m 1,0,-1
 368 0 l 1,1,-1
 174 0 l 1,2,-1
 174 1579 l 1,3,-1
 1200 1579 l 1,4,-1
 1200 1436 l 1,5,-1
 368 1436 l 1,0,-1
EndSplineSet
EndChar

StartChar: afii10021
Encoding: 1044 1044 231
Width: 1594
Flags: MW
LayerCount: 2
Fore
SplineSet
1207 95 m 1,0,-1
 1207 1436 l 1,1,-1
 529 1436 l 1,2,-1
 529 1069 l 2,3,4
 529 946 529 946 524.5 822 c 128,-1,5
 520 698 520 698 500.5 575 c 128,-1,6
 481 452 481 452 442 331.5 c 128,-1,7
 403 211 403 211 335 95 c 1,8,-1
 1207 95 l 1,0,-1
107 95 m 1,9,10
 159 168 159 168 196.5 241.5 c 128,-1,11
 234 315 234 315 259 393.5 c 128,-1,12
 284 472 284 472 299 558.5 c 128,-1,13
 314 645 314 645 322 742.5 c 128,-1,14
 330 840 330 840 332.5 951 c 128,-1,15
 335 1062 335 1062 335 1191 c 2,16,-1
 335 1561 l 1,17,-1
 1401 1561 l 1,18,-1
 1401 95 l 1,19,-1
 1502 95 l 1,20,-1
 1502 -389 l 1,21,-1
 1317 -389 l 1,22,-1
 1317 -22 l 1,23,-1
 230 -22 l 1,24,-1
 230 -389 l 1,25,-1
 37 -389 l 1,26,-1
 37 95 l 1,27,-1
 107 95 l 1,9,10
EndSplineSet
EndChar

StartChar: afii10024
Encoding: 1046 1046 233
Width: 1928
Flags: MW
LayerCount: 2
Fore
SplineSet
866 747 m 1,0,-1
 680 747 l 1,1,-1
 186 0 l 1,2,-1
 -18 0 l 1,3,-1
 372 570 l 2,4,5
 403 615 403 615 429 652.5 c 128,-1,6
 455 690 455 690 481 719 c 128,-1,7
 507 748 507 748 535 768 c 128,-1,8
 563 788 563 788 598 798 c 1,9,10
 560 810 560 810 530.5 833 c 128,-1,11
 501 856 501 856 474.5 888 c 128,-1,12
 448 920 448 920 422.5 960.5 c 128,-1,13
 397 1001 397 1001 369 1049 c 2,14,-1
 50 1579 l 1,15,-1
 242 1579 l 1,16,-1
 672 854 l 1,17,-1
 866 854 l 1,18,-1
 866 1579 l 1,19,-1
 1060 1579 l 1,20,-1
 1060 854 l 1,21,-1
 1252 854 l 1,22,-1
 1682 1579 l 1,23,-1
 1895 1579 l 1,24,-1
 1557 1052 l 2,25,26
 1527 1006 1527 1006 1501.5 965 c 128,-1,27
 1476 924 1476 924 1450 891 c 128,-1,28
 1424 858 1424 858 1394 834 c 128,-1,29
 1364 810 1364 810 1326 798 c 1,30,31
 1360 788 1360 788 1388.5 769 c 128,-1,32
 1417 750 1417 750 1443.5 721.5 c 128,-1,33
 1470 693 1470 693 1496.5 655.5 c 128,-1,34
 1523 618 1523 618 1555 572 c 2,35,-1
 1942 0 l 1,36,-1
 1740 0 l 1,37,-1
 1244 747 l 1,38,-1
 1060 747 l 1,39,-1
 1060 0 l 1,40,-1
 866 0 l 1,41,-1
 866 747 l 1,0,-1
EndSplineSet
EndChar

StartChar: afii10025
Encoding: 1047 1047 234
Width: 1018
Flags: MW
LayerCount: 2
Fore
SplineSet
530 803 m 1,0,1
 624 793 624 793 696.5 757.5 c 128,-1,2
 769 722 769 722 818 667.5 c 128,-1,3
 867 613 867 613 892 542.5 c 128,-1,4
 917 472 917 472 917 392 c 0,5,6
 917 292 917 292 878 212 c 128,-1,7
 839 132 839 132 774 75.5 c 128,-1,8
 709 19 709 19 625 -11.5 c 128,-1,9
 541 -42 541 -42 451 -42 c 0,10,11
 399 -42 399 -42 350 -37 c 128,-1,12
 301 -32 301 -32 252 -21 c 128,-1,13
 203 -10 203 -10 151.5 8.5 c 128,-1,14
 100 27 100 27 44 54 c 1,15,-1
 98 187 l 1,16,17
 132 170 132 170 177 156 c 128,-1,18
 222 142 222 142 270 132 c 128,-1,19
 318 122 318 122 364.5 116.5 c 128,-1,20
 411 111 411 111 448 111 c 0,21,22
 519 111 519 111 568 129.5 c 128,-1,23
 617 148 617 148 649 177 c 128,-1,24
 681 206 681 206 699 241 c 128,-1,25
 717 276 717 276 725.5 309 c 128,-1,26
 734 342 734 342 735.5 369 c 128,-1,27
 737 396 737 396 737 408 c 0,28,29
 737 486 737 486 707.5 546 c 128,-1,30
 678 606 678 606 622.5 647.5 c 128,-1,31
 567 689 567 689 488 710 c 128,-1,32
 409 731 409 731 310 731 c 2,33,-1
 243 731 l 1,34,-1
 243 875 l 1,35,-1
 310 875 l 2,36,37
 514 875 514 875 613.5 962.5 c 128,-1,38
 713 1050 713 1050 713 1203 c 0,39,40
 713 1260 713 1260 697 1307 c 128,-1,41
 681 1354 681 1354 646.5 1387.5 c 128,-1,42
 612 1421 612 1421 558.5 1439.5 c 128,-1,43
 505 1458 505 1458 429 1458 c 0,44,45
 354 1458 354 1458 274 1439.5 c 128,-1,46
 194 1421 194 1421 127 1389 c 1,47,-1
 77 1529 l 1,48,49
 108 1544 108 1544 150.5 1558.5 c 128,-1,50
 193 1573 193 1573 240.5 1584.5 c 128,-1,51
 288 1596 288 1596 337 1603 c 128,-1,52
 386 1610 386 1610 430 1610 c 0,53,54
 522 1610 522 1610 603.5 1581.5 c 128,-1,55
 685 1553 685 1553 746 1500.5 c 128,-1,56
 807 1448 807 1448 842.5 1373.5 c 128,-1,57
 878 1299 878 1299 878 1206 c 0,58,59
 878 858 878 858 530 803 c 1,0,1
EndSplineSet
EndChar

StartChar: afii10026
Encoding: 1048 1048 235
Width: 1600
Flags: MW
LayerCount: 2
Fore
SplineSet
336 1579 m 1,0,-1
 336 330 l 1,1,-1
 1165 1579 l 1,2,-1
 1427 1579 l 1,3,-1
 1427 0 l 1,4,-1
 1265 0 l 1,5,-1
 1265 1434 l 1,6,-1
 336 74 l 1,7,-1
 336 0 l 1,8,-1
 174 0 l 1,9,-1
 174 1579 l 1,10,-1
 336 1579 l 1,0,-1
EndSplineSet
EndChar

StartChar: afii10028
Encoding: 1050 1050 237
Width: 1314
Flags: MW
LayerCount: 2
Fore
SplineSet
368 0 m 1,0,-1
 174 0 l 1,1,-1
 174 1579 l 1,2,-1
 368 1579 l 1,3,-1
 368 854 l 1,4,-1
 591 854 l 1,5,-1
 1081 1579 l 1,6,-1
 1274 1579 l 1,7,-1
 920 1052 l 2,8,9
 882 995 882 995 853 952.5 c 128,-1,10
 824 910 824 910 798 879.5 c 128,-1,11
 772 849 772 849 745.5 829.5 c 128,-1,12
 719 810 719 810 685 798 c 1,13,14
 721 788 721 788 753.5 762.5 c 128,-1,15
 786 737 786 737 816.5 702.5 c 128,-1,16
 847 668 847 668 876 627.5 c 128,-1,17
 905 587 905 587 935 547 c 2,18,-1
 1341 0 l 1,19,-1
 1138 0 l 1,20,-1
 583 747 l 1,21,-1
 368 747 l 1,22,-1
 368 0 l 1,0,-1
EndSplineSet
EndChar

StartChar: afii10029
Encoding: 1051 1051 238
Width: 1780
Flags: MW
LayerCount: 2
Fore
SplineSet
1607 0 m 1,0,-1
 1413 0 l 1,1,-1
 1413 1436 l 1,2,-1
 658 1436 l 1,3,-1
 614 693 l 2,4,5
 607 571 607 571 596.5 470.5 c 128,-1,6
 586 370 586 370 563 291 c 128,-1,7
 540 212 540 212 500 153.5 c 128,-1,8
 460 95 460 95 393 56.5 c 128,-1,9
 326 18 326 18 227 -1 c 128,-1,10
 128 -20 128 -20 -12 -20 c 1,11,-1
 -8 123 l 1,12,13
 84 127 84 127 149.5 138.5 c 128,-1,14
 215 150 215 150 260.5 174.5 c 128,-1,15
 306 199 306 199 334 239.5 c 128,-1,16
 362 280 362 280 378.5 342.5 c 128,-1,17
 395 405 395 405 403.5 491.5 c 128,-1,18
 412 578 412 578 419 696 c 2,19,-1
 468 1579 l 1,20,-1
 1607 1579 l 1,21,-1
 1607 0 l 1,0,-1
EndSplineSet
EndChar

StartChar: afii10033
Encoding: 1055 1055 242
Width: 1567
Flags: MW
LayerCount: 2
Fore
SplineSet
1394 0 m 1,0,-1
 1200 0 l 1,1,-1
 1200 1436 l 1,2,-1
 368 1436 l 1,3,-1
 368 0 l 1,4,-1
 174 0 l 1,5,-1
 174 1579 l 1,6,-1
 1394 1579 l 1,7,-1
 1394 0 l 1,0,-1
EndSplineSet
EndChar

StartChar: afii10037
Encoding: 1059 1059 246
Width: 1039
Flags: MW
LayerCount: 2
Fore
SplineSet
833 1579 m 1,0,-1
 1028 1579 l 1,1,-1
 598 435 l 1,2,-1
 598 201 l 2,3,4
 598 35 598 35 503 -42 c 128,-1,5
 408 -119 408 -119 210 -119 c 1,6,-1
 159 6 l 1,7,8
 220 7 220 7 273 11 c 128,-1,9
 326 15 326 15 364 34 c 128,-1,10
 402 53 402 53 424 93 c 128,-1,11
 446 133 446 133 446 207 c 2,12,-1
 446 433 l 1,13,-1
 -5 1579 l 1,14,-1
 177 1579 l 1,15,-1
 522 614 l 1,16,-1
 833 1579 l 1,0,-1
EndSplineSet
EndChar

StartChar: afii10038
Encoding: 1060 1060 247
Width: 1449
Flags: MW
LayerCount: 2
Fore
SplineSet
812 0 m 1,0,-1
 622 0 l 1,1,-1
 622 153 l 1,2,3
 75 201 75 201 75 786 c 256,4,5
 75 1371 75 1371 622 1419 c 1,6,-1
 622 1579 l 1,7,-1
 812 1579 l 1,8,-1
 812 1420 l 1,9,10
 950 1415 950 1415 1055.5 1366 c 128,-1,11
 1161 1317 1161 1317 1232.5 1233 c 128,-1,12
 1304 1149 1304 1149 1341 1035.5 c 128,-1,13
 1378 922 1378 922 1378 788 c 0,14,15
 1378 655 1378 655 1344.5 543 c 128,-1,16
 1311 431 1311 431 1241.5 347.5 c 128,-1,17
 1172 264 1172 264 1065.5 213 c 128,-1,18
 959 162 959 162 812 152 c 1,19,-1
 812 0 l 1,0,-1
622 1267 m 1,20,21
 271 1219 271 1219 271 788 c 0,22,23
 271 573 271 573 359.5 452 c 128,-1,24
 448 331 448 331 622 305 c 1,25,-1
 622 1267 l 1,20,21
812 302 m 1,26,27
 1000 323 1000 323 1090.5 443 c 128,-1,28
 1181 563 1181 563 1181 787 c 0,29,30
 1181 1229 1181 1229 812 1270 c 1,31,-1
 812 302 l 1,26,27
EndSplineSet
EndChar

StartChar: afii10040
Encoding: 1062 1062 249
Width: 1580
Flags: MW
LayerCount: 2
Fore
SplineSet
174 1579 m 1,0,-1
 368 1579 l 1,1,-1
 368 143 l 1,2,-1
 1200 143 l 1,3,-1
 1200 1579 l 1,4,-1
 1394 1579 l 1,5,-1
 1394 0 l 1,6,-1
 1501 0 l 1,7,-1
 1501 -418 l 1,8,-1
 1329 -418 l 1,9,-1
 1329 0 l 1,10,-1
 174 0 l 1,11,-1
 174 1579 l 1,0,-1
EndSplineSet
EndChar

StartChar: afii10041
Encoding: 1063 1063 250
Width: 1274
Flags: MW
LayerCount: 2
Fore
SplineSet
907 590 m 1,0,1
 850 528 850 528 802 489 c 128,-1,2
 754 450 754 450 708 427.5 c 128,-1,3
 662 405 662 405 615.5 397 c 128,-1,4
 569 389 569 389 515 389 c 0,5,6
 419 389 419 389 343.5 416 c 128,-1,7
 268 443 268 443 215.5 499.5 c 128,-1,8
 163 556 163 556 135.5 643.5 c 128,-1,9
 108 731 108 731 108 852 c 2,10,-1
 108 1579 l 1,11,-1
 302 1579 l 1,12,-1
 302 852 l 2,13,14
 302 767 302 767 316 706.5 c 128,-1,15
 330 646 330 646 358.5 607 c 128,-1,16
 387 568 387 568 430 550 c 128,-1,17
 473 532 473 532 532 532 c 0,18,19
 592 532 592 532 649.5 548 c 128,-1,20
 707 564 707 564 756.5 588 c 128,-1,21
 806 612 806 612 845 639.5 c 128,-1,22
 884 667 884 667 907 691 c 1,23,-1
 907 1579 l 1,24,-1
 1101 1579 l 1,25,-1
 1101 0 l 1,26,-1
 907 0 l 1,27,-1
 907 590 l 1,0,1
EndSplineSet
EndChar

StartChar: afii10042
Encoding: 1064 1064 251
Width: 2353
Flags: MW
LayerCount: 2
Fore
SplineSet
1274 143 m 1,0,-1
 1986 143 l 1,1,-1
 1986 1579 l 1,2,-1
 2180 1579 l 1,3,-1
 2180 0 l 1,4,-1
 174 0 l 1,5,-1
 174 1579 l 1,6,-1
 368 1579 l 1,7,-1
 368 143 l 1,8,-1
 1080 143 l 1,9,-1
 1080 1579 l 1,10,-1
 1274 1579 l 1,11,-1
 1274 143 l 1,0,-1
EndSplineSet
EndChar

StartChar: afii10043
Encoding: 1065 1065 252
Width: 2365
Flags: MW
LayerCount: 2
Fore
SplineSet
1274 143 m 1,0,-1
 1986 143 l 1,1,-1
 1986 1579 l 1,2,-1
 2180 1579 l 1,3,-1
 2180 8 l 1,4,-1
 2287 8 l 1,5,-1
 2287 -410 l 1,6,-1
 2115 -410 l 1,7,-1
 2115 0 l 1,8,-1
 174 0 l 1,9,-1
 174 1579 l 1,10,-1
 368 1579 l 1,11,-1
 368 143 l 1,12,-1
 1080 143 l 1,13,-1
 1080 1579 l 1,14,-1
 1274 1579 l 1,15,-1
 1274 143 l 1,0,-1
EndSplineSet
EndChar

StartChar: afii10044
Encoding: 1066 1066 253
Width: 1523
Flags: MW
LayerCount: 2
Fore
SplineSet
564 143 m 1,0,-1
 779 143 l 2,1,2
 917 143 917 143 1013 155.5 c 128,-1,3
 1109 168 1109 168 1169.5 205.5 c 128,-1,4
 1230 243 1230 243 1257.5 311 c 128,-1,5
 1285 379 1285 379 1285 490 c 0,6,7
 1285 562 1285 562 1261 613 c 128,-1,8
 1237 664 1237 664 1196 698 c 128,-1,9
 1155 732 1155 732 1100.5 751.5 c 128,-1,10
 1046 771 1046 771 985 780.5 c 128,-1,11
 924 790 924 790 859.5 792.5 c 128,-1,12
 795 795 795 795 734 795 c 2,13,-1
 564 795 l 1,14,-1
 564 143 l 1,0,-1
564 940 m 1,15,-1
 734 940 l 2,16,17
 935 940 935 940 1074.5 911 c 128,-1,18
 1214 882 1214 882 1301.5 823 c 128,-1,19
 1389 764 1389 764 1428 675 c 128,-1,20
 1467 586 1467 586 1467 466 c 0,21,22
 1467 344 1467 344 1430.5 256 c 128,-1,23
 1394 168 1394 168 1311.5 111 c 128,-1,24
 1229 54 1229 54 1095 27 c 128,-1,25
 961 0 961 0 767 0 c 2,26,-1
 370 0 l 1,27,-1
 370 1436 l 1,28,-1
 37 1436 l 1,29,-1
 37 1579 l 1,30,-1
 564 1579 l 1,31,-1
 564 940 l 1,15,-1
EndSplineSet
EndChar

StartChar: afii10045
Encoding: 1067 1067 254
Width: 1907
Flags: MW
LayerCount: 2
Fore
SplineSet
1734 0 m 1,0,-1
 1540 0 l 1,1,-1
 1540 1579 l 1,2,-1
 1734 1614 l 1,3,-1
 1734 0 l 1,0,-1
1270 466 m 0,4,5
 1270 344 1270 344 1233.5 256 c 128,-1,6
 1197 168 1197 168 1114.5 111 c 128,-1,7
 1032 54 1032 54 898 27 c 128,-1,8
 764 0 764 0 570 0 c 2,9,-1
 173 0 l 1,10,-1
 173 1579 l 1,11,-1
 367 1579 l 1,12,-1
 367 940 l 1,13,-1
 537 940 l 2,14,15
 738 940 738 940 877.5 911 c 128,-1,16
 1017 882 1017 882 1104.5 823 c 128,-1,17
 1192 764 1192 764 1231 675 c 128,-1,18
 1270 586 1270 586 1270 466 c 0,4,5
367 143 m 1,19,-1
 582 143 l 2,20,21
 724 143 724 143 821 155.5 c 128,-1,22
 918 168 918 168 977 205.5 c 128,-1,23
 1036 243 1036 243 1062 311 c 128,-1,24
 1088 379 1088 379 1088 490 c 0,25,26
 1088 562 1088 562 1064 613 c 128,-1,27
 1040 664 1040 664 999 698 c 128,-1,28
 958 732 958 732 903.5 751.5 c 128,-1,29
 849 771 849 771 788 780.5 c 128,-1,30
 727 790 727 790 662.5 792.5 c 128,-1,31
 598 795 598 795 537 795 c 2,32,-1
 367 795 l 1,33,-1
 367 143 l 1,19,-1
EndSplineSet
EndChar

StartChar: afii10046
Encoding: 1068 1068 255
Width: 1326
Flags: MW
LayerCount: 2
Fore
SplineSet
1270 466 m 0,0,1
 1270 344 1270 344 1233.5 256 c 128,-1,2
 1197 168 1197 168 1114.5 111 c 128,-1,3
 1032 54 1032 54 898 27 c 128,-1,4
 764 0 764 0 570 0 c 2,5,-1
 173 0 l 1,6,-1
 173 1579 l 1,7,-1
 367 1579 l 1,8,-1
 367 940 l 1,9,-1
 537 940 l 2,10,11
 738 940 738 940 877.5 911 c 128,-1,12
 1017 882 1017 882 1104.5 823 c 128,-1,13
 1192 764 1192 764 1231 675 c 128,-1,14
 1270 586 1270 586 1270 466 c 0,0,1
367 143 m 1,15,-1
 582 143 l 2,16,17
 724 143 724 143 821 155.5 c 128,-1,18
 918 168 918 168 977 205.5 c 128,-1,19
 1036 243 1036 243 1062 311 c 128,-1,20
 1088 379 1088 379 1088 490 c 0,21,22
 1088 562 1088 562 1064 613 c 128,-1,23
 1040 664 1040 664 999 698 c 128,-1,24
 958 732 958 732 903.5 751.5 c 128,-1,25
 849 771 849 771 788 780.5 c 128,-1,26
 727 790 727 790 662.5 792.5 c 128,-1,27
 598 795 598 795 537 795 c 2,28,-1
 367 795 l 1,29,-1
 367 143 l 1,15,-1
EndSplineSet
EndChar

StartChar: afii10047
Encoding: 1069 1069 256
Width: 1254
Flags: MW
LayerCount: 2
Fore
SplineSet
1151 767 m 0,0,1
 1151 576 1151 576 1109.5 426 c 128,-1,2
 1068 276 1068 276 985 172 c 128,-1,3
 902 68 902 68 777.5 13.5 c 128,-1,4
 653 -41 653 -41 487 -41 c 0,5,6
 393 -41 393 -41 312.5 -22.5 c 128,-1,7
 232 -4 232 -4 171 19 c 0,8,9
 100 45 100 45 41 79 c 1,10,-1
 97 218 l 1,11,12
 146 188 146 188 209 164 c 0,13,14
 263 144 263 144 339.5 127.5 c 128,-1,15
 416 111 416 111 512 111 c 0,16,17
 596 111 596 111 660 136 c 128,-1,18
 724 161 724 161 772 204 c 128,-1,19
 820 247 820 247 852 305 c 128,-1,20
 884 363 884 363 905 430 c 128,-1,21
 926 497 926 497 936 568.5 c 128,-1,22
 946 640 946 640 949 711 c 1,23,-1
 372 711 l 1,24,-1
 372 845 l 1,25,-1
 949 845 l 1,26,27
 943 1002 943 1002 911.5 1117.5 c 128,-1,28
 880 1233 880 1233 820.5 1309 c 128,-1,29
 761 1385 761 1385 672 1421.5 c 128,-1,30
 583 1458 583 1458 462 1458 c 0,31,32
 385 1458 385 1458 321 1446.5 c 128,-1,33
 257 1435 257 1435 211 1421 c 0,34,35
 156 1405 156 1405 114 1385 c 1,36,-1
 69 1530 l 1,37,38
 126 1552 126 1552 191 1570 c 0,39,40
 247 1585 247 1585 319.5 1597.5 c 128,-1,41
 392 1610 392 1610 470 1610 c 0,42,43
 810 1610 810 1610 980.5 1398 c 128,-1,44
 1151 1186 1151 1186 1151 767 c 0,0,1
EndSplineSet
EndChar

StartChar: afii10048
Encoding: 1070 1070 257
Width: 2009
Flags: MW
LayerCount: 2
Fore
SplineSet
595 858 m 1,0,1
 595 1032 595 1032 638 1171 c 128,-1,2
 681 1310 681 1310 763 1407.5 c 128,-1,3
 845 1505 845 1505 963.5 1557.5 c 128,-1,4
 1082 1610 1082 1610 1233 1610 c 0,5,6
 1422 1610 1422 1610 1550.5 1552.5 c 128,-1,7
 1679 1495 1679 1495 1757 1388.5 c 128,-1,8
 1835 1282 1835 1282 1869 1131.5 c 128,-1,9
 1903 981 1903 981 1903 795 c 0,10,11
 1903 577 1903 577 1858.5 419.5 c 128,-1,12
 1814 262 1814 262 1729.5 159.5 c 128,-1,13
 1645 57 1645 57 1523 8 c 128,-1,14
 1401 -41 1401 -41 1247 -41 c 0,15,16
 1097 -41 1097 -41 976 9 c 128,-1,17
 855 59 855 59 770 157.5 c 128,-1,18
 685 256 685 256 639 402.5 c 128,-1,19
 593 549 593 549 593 743 c 1,20,-1
 368 743 l 1,21,-1
 368 0 l 1,22,-1
 174 0 l 1,23,-1
 174 1579 l 1,24,-1
 368 1579 l 1,25,-1
 368 858 l 1,26,-1
 595 858 l 1,0,1
1703 813 m 0,27,28
 1703 899 1703 899 1695 980 c 128,-1,29
 1687 1061 1687 1061 1667 1132.5 c 128,-1,30
 1647 1204 1647 1204 1613 1264 c 128,-1,31
 1579 1324 1579 1324 1528 1367 c 128,-1,32
 1477 1410 1477 1410 1406 1434 c 128,-1,33
 1335 1458 1335 1458 1242 1458 c 0,34,35
 1129 1458 1129 1458 1045 1415 c 128,-1,36
 961 1372 961 1372 905 1291 c 128,-1,37
 849 1210 849 1210 821 1092.5 c 128,-1,38
 793 975 793 975 793 826 c 1,39,40
 794 722 794 722 800.5 628.5 c 128,-1,41
 807 535 807 535 825 455.5 c 128,-1,42
 843 376 843 376 874 312 c 128,-1,43
 905 248 905 248 955.5 203.5 c 128,-1,44
 1006 159 1006 159 1078 135 c 128,-1,45
 1150 111 1150 111 1249 111 c 0,46,47
 1479 111 1479 111 1591 282.5 c 128,-1,48
 1703 454 1703 454 1703 813 c 0,27,28
EndSplineSet
EndChar

StartChar: afii10049
Encoding: 1071 1071 258
Width: 1410
Flags: MW
LayerCount: 2
Fore
SplineSet
557 797 m 1,0,1
 465 797 465 797 389 823 c 128,-1,2
 313 849 313 849 258.5 896.5 c 128,-1,3
 204 944 204 944 174 1011 c 128,-1,4
 144 1078 144 1078 144 1160 c 0,5,6
 144 1281 144 1281 189 1362 c 128,-1,7
 234 1443 234 1443 324 1491 c 128,-1,8
 414 1539 414 1539 548 1559 c 128,-1,9
 682 1579 682 1579 861 1579 c 2,10,-1
 1237 1579 l 1,11,-1
 1237 0 l 1,12,-1
 1043 0 l 1,13,-1
 1043 733 l 1,14,-1
 863 733 l 2,15,16
 726 733 726 733 625.5 719 c 128,-1,17
 525 705 525 705 459 669 c 128,-1,18
 393 633 393 633 360.5 570.5 c 128,-1,19
 328 508 328 508 328 412 c 2,20,-1
 328 0 l 1,21,-1
 134 0 l 1,22,-1
 134 397 l 2,23,24
 134 496 134 496 164.5 567 c 128,-1,25
 195 638 195 638 250.5 685 c 128,-1,26
 306 732 306 732 384 759 c 128,-1,27
 462 786 462 786 557 797 c 1,0,1
1043 862 m 1,28,-1
 1043 1436 l 1,29,-1
 861 1436 l 2,30,31
 747 1436 747 1436 647.5 1428.5 c 128,-1,32
 548 1421 548 1421 473.5 1392.5 c 128,-1,33
 399 1364 399 1364 356.5 1309 c 128,-1,34
 314 1254 314 1254 314 1158 c 0,35,36
 314 1094 314 1094 339.5 1047 c 128,-1,37
 365 1000 365 1000 408 967.5 c 128,-1,38
 451 935 451 935 507 914 c 128,-1,39
 563 893 563 893 624 881.5 c 128,-1,40
 685 870 685 870 746.5 866 c 128,-1,41
 808 862 808 862 862 862 c 2,42,-1
 1043 862 l 1,28,-1
EndSplineSet
EndChar

StartChar: afii10066
Encoding: 1073 1073 260
Width: 1193
Flags: MW
LayerCount: 2
Fore
SplineSet
294 610 m 0,0,1
 294 560 294 560 298 504 c 128,-1,2
 302 448 302 448 313.5 393 c 128,-1,3
 325 338 325 338 345.5 288 c 128,-1,4
 366 238 366 238 401 200 c 128,-1,5
 436 162 436 162 487 139.5 c 128,-1,6
 538 117 538 117 610 117 c 0,7,8
 694 117 694 117 753 146.5 c 128,-1,9
 812 176 812 176 850 232.5 c 128,-1,10
 888 289 888 289 905.5 370.5 c 128,-1,11
 923 452 923 452 923 557 c 0,12,13
 923 666 923 666 901 742.5 c 128,-1,14
 879 819 879 819 839 867 c 128,-1,15
 799 915 799 915 742 936.5 c 128,-1,16
 685 958 685 958 615 958 c 0,17,18
 534 958 534 958 473.5 930 c 128,-1,19
 413 902 413 902 373.5 854 c 128,-1,20
 334 806 334 806 314 743 c 128,-1,21
 294 680 294 680 294 610 c 0,0,1
604 -20 m 0,22,23
 483 -20 483 -20 392 25.5 c 128,-1,24
 301 71 301 71 240 156 c 128,-1,25
 179 241 179 241 148.5 363.5 c 128,-1,26
 118 486 118 486 118 639 c 0,27,28
 118 859 118 859 151.5 1020 c 128,-1,29
 185 1181 185 1181 250 1287 c 128,-1,30
 315 1393 315 1393 410.5 1444.5 c 128,-1,31
 506 1496 506 1496 630 1496 c 2,32,-1
 765 1496 l 2,33,34
 799 1496 799 1496 819.5 1500 c 128,-1,35
 840 1504 840 1504 851 1513.5 c 128,-1,36
 862 1523 862 1523 865.5 1538.5 c 128,-1,37
 869 1554 869 1554 869 1578 c 1,38,-1
 1021 1578 l 1,39,40
 1021 1524 1021 1524 1008 1482 c 128,-1,41
 995 1440 995 1440 965 1411.5 c 128,-1,42
 935 1383 935 1383 885.5 1368.5 c 128,-1,43
 836 1354 836 1354 763 1354 c 2,44,-1
 694 1354 l 2,45,46
 615 1354 615 1354 545 1337.5 c 128,-1,47
 475 1321 475 1321 420.5 1272 c 128,-1,48
 366 1223 366 1223 329 1135 c 128,-1,49
 292 1047 292 1047 279 904 c 1,50,51
 298 940 298 940 333.5 973.5 c 128,-1,52
 369 1007 369 1007 416.5 1033.5 c 128,-1,53
 464 1060 464 1060 520 1076 c 128,-1,54
 576 1092 576 1092 636 1092 c 0,55,56
 747 1092 747 1092 833 1057 c 128,-1,57
 919 1022 919 1022 978 953 c 128,-1,58
 1037 884 1037 884 1068 782.5 c 128,-1,59
 1099 681 1099 681 1099 548 c 0,60,61
 1099 431 1099 431 1068 327.5 c 128,-1,62
 1037 224 1037 224 975 146.5 c 128,-1,63
 913 69 913 69 820 24.5 c 128,-1,64
 727 -20 727 -20 604 -20 c 0,22,23
EndSplineSet
EndChar

StartChar: afii10067
Encoding: 1074 1074 261
Width: 1152
Flags: MW
LayerCount: 2
Fore
SplineSet
491 115 m 2,0,1
 591 115 591 115 662.5 126.5 c 128,-1,2
 734 138 734 138 780 163 c 128,-1,3
 826 188 826 188 848 228 c 128,-1,4
 870 268 870 268 870 325 c 0,5,6
 870 406 870 406 837.5 453.5 c 128,-1,7
 805 501 805 501 751.5 525.5 c 128,-1,8
 698 550 698 550 628.5 556.5 c 128,-1,9
 559 563 559 563 486 563 c 0,10,11
 448 563 448 563 411 562.5 c 128,-1,12
 374 562 374 562 339 562 c 1,13,-1
 339 115 l 1,14,-1
 491 115 l 2,0,1
339 666 m 1,15,16
 457 666 457 666 551.5 668 c 128,-1,17
 646 670 646 670 712.5 688 c 128,-1,18
 779 706 779 706 814.5 748 c 128,-1,19
 850 790 850 790 850 870 c 0,20,21
 850 915 850 915 830.5 949.5 c 128,-1,22
 811 984 811 984 768 1007.5 c 128,-1,23
 725 1031 725 1031 656 1043 c 128,-1,24
 587 1055 587 1055 487 1055 c 2,25,-1
 339 1055 l 1,26,-1
 339 666 l 1,15,16
148 1168 m 1,27,-1
 521 1168 l 2,28,29
 658 1168 658 1168 754.5 1147 c 128,-1,30
 851 1126 851 1126 912 1087.5 c 128,-1,31
 973 1049 973 1049 1001 994 c 128,-1,32
 1029 939 1029 939 1029 871 c 0,33,34
 1029 818 1029 818 1013.5 773 c 128,-1,35
 998 728 998 728 965 694.5 c 128,-1,36
 932 661 932 661 879.5 640 c 128,-1,37
 827 619 827 619 752 614 c 1,38,39
 817 609 817 609 873 590.5 c 128,-1,40
 929 572 929 572 970.5 537 c 128,-1,41
 1012 502 1012 502 1035.5 450.5 c 128,-1,42
 1059 399 1059 399 1059 328 c 0,43,44
 1059 166 1059 166 930.5 83 c 128,-1,45
 802 0 802 0 526 0 c 2,46,-1
 148 0 l 1,47,-1
 148 1168 l 1,27,-1
EndSplineSet
EndChar

StartChar: afii10068
Encoding: 1075 1075 262
Width: 952
Flags: MW
LayerCount: 2
Fore
SplineSet
148 0 m 1,0,-1
 148 1169 l 1,1,-1
 924 1169 l 1,2,-1
 924 1036 l 1,3,-1
 338 1036 l 1,4,-1
 338 0 l 1,5,-1
 148 0 l 1,0,-1
EndSplineSet
EndChar

StartChar: afii10069
Encoding: 1076 1076 263
Width: 1358
Flags: MW
LayerCount: 2
Fore
SplineSet
39 99 m 1,0,-1
 151 99 l 1,1,2
 204 151 204 151 234.5 211.5 c 128,-1,3
 265 272 265 272 273 342 c 0,4,5
 296 550 296 550 320 755.5 c 128,-1,6
 344 961 344 961 368 1169 c 1,7,-1
 1100 1169 l 1,8,-1
 1100 109 l 1,9,-1
 1308 109 l 1,10,-1
 1308 -379 l 1,11,-1
 1124 -379 l 1,12,-1
 1124 0 l 1,13,-1
 229 0 l 1,14,-1
 229 -379 l 1,15,-1
 39 -379 l 1,16,-1
 39 99 l 1,0,-1
910 1036 m 1,17,-1
 539 1036 l 1,18,-1
 460 458 l 2,19,20
 453 410 453 410 447.5 365.5 c 128,-1,21
 442 321 442 321 433.5 277.5 c 128,-1,22
 425 234 425 234 411.5 190 c 128,-1,23
 398 146 398 146 376 99 c 1,24,-1
 910 113 l 1,25,-1
 910 1036 l 1,17,-1
EndSplineSet
EndChar

StartChar: afii10072
Encoding: 1078 1078 265
Width: 1558
Flags: MW
LayerCount: 2
Fore
SplineSet
691 0 m 1,0,-1
 691 529 l 1,1,-1
 514 529 l 1,2,-1
 253 0 l 1,3,-1
 41 0 l 1,4,-1
 308 468 l 1,5,6
 369 577 369 577 460 584 c 1,7,8
 425 587 425 587 398.5 602.5 c 128,-1,9
 372 618 372 618 349 645 c 128,-1,10
 326 672 326 672 302.5 710.5 c 128,-1,11
 279 749 279 749 251 798 c 2,12,-1
 37 1169 l 1,13,-1
 253 1169 l 1,14,-1
 504 646 l 1,15,-1
 691 646 l 1,16,-1
 691 1169 l 1,17,-1
 867 1169 l 1,18,-1
 867 647 l 1,19,-1
 1053 647 l 1,20,-1
 1305 1169 l 1,21,-1
 1521 1169 l 1,22,-1
 1307 798 l 2,23,24
 1278 749 1278 749 1255 710.5 c 128,-1,25
 1232 672 1232 672 1209 645 c 128,-1,26
 1186 618 1186 618 1159.5 602.5 c 128,-1,27
 1133 587 1133 587 1098 584 c 1,28,29
 1189 576 1189 576 1250 468 c 2,30,-1
 1517 0 l 1,31,-1
 1289 0 l 1,32,-1
 1050 531 l 1,33,-1
 867 531 l 1,34,-1
 867 0 l 1,35,-1
 691 0 l 1,0,-1
EndSplineSet
EndChar

StartChar: afii10073
Encoding: 1079 1079 266
Width: 968
Flags: MW
LayerCount: 2
Fore
SplineSet
200 674 m 1,0,1
 261 674 261 674 320.5 674 c 128,-1,2
 380 674 380 674 434.5 679.5 c 128,-1,3
 489 685 489 685 535.5 697 c 128,-1,4
 582 709 582 709 615.5 733 c 128,-1,5
 649 757 649 757 668.5 795 c 128,-1,6
 688 833 688 833 688 890 c 0,7,8
 688 945 688 945 661.5 977.5 c 128,-1,9
 635 1010 635 1010 593 1027 c 128,-1,10
 551 1044 551 1044 499.5 1049.5 c 128,-1,11
 448 1055 448 1055 398 1055 c 0,12,13
 353 1055 353 1055 303 1048.5 c 128,-1,14
 253 1042 253 1042 211 1034 c 0,15,16
 162 1025 162 1025 115 1014 c 1,17,-1
 79 1142 l 1,18,19
 131 1155 131 1155 188 1166 c 0,20,21
 237 1175 237 1175 297 1182.5 c 128,-1,22
 357 1190 357 1190 419 1190 c 0,23,24
 511 1190 511 1190 589.5 1175 c 128,-1,25
 668 1160 668 1160 725 1125.5 c 128,-1,26
 782 1091 782 1091 814.5 1036 c 128,-1,27
 847 981 847 981 847 902 c 0,28,29
 847 770 847 770 784.5 699 c 128,-1,30
 722 628 722 628 611 602 c 1,31,32
 666 592 666 592 714 570 c 128,-1,33
 762 548 762 548 798 511.5 c 128,-1,34
 834 475 834 475 855 423.5 c 128,-1,35
 876 372 876 372 876 305 c 0,36,37
 876 226 876 226 846.5 165.5 c 128,-1,38
 817 105 817 105 761.5 64 c 128,-1,39
 706 23 706 23 627.5 2 c 128,-1,40
 549 -19 549 -19 451 -19 c 0,41,42
 377 -19 377 -19 307 -9.5 c 128,-1,43
 237 0 237 0 180 11 c 0,44,45
 114 24 114 24 55 41 c 1,46,-1
 94 168 l 1,47,48
 154 152 154 152 215 140 c 0,49,50
 267 129 267 129 327 120.5 c 128,-1,51
 387 112 387 112 441 112 c 256,52,53
 495 112 495 112 541.5 121.5 c 128,-1,54
 588 131 588 131 623 153.5 c 128,-1,55
 658 176 658 176 680 213 c 128,-1,56
 702 250 702 250 706 306 c 1,57,58
 706 385 706 385 673.5 430 c 128,-1,59
 641 475 641 475 577 497 c 128,-1,60
 513 519 513 519 418.5 524 c 128,-1,61
 324 529 324 529 200 529 c 1,62,-1
 200 674 l 1,0,1
EndSplineSet
EndChar

StartChar: afii10074
Encoding: 1080 1080 267
Width: 1361
Flags: MW
LayerCount: 2
Fore
SplineSet
1212 0 m 1,0,-1
 1044 0 l 1,1,-1
 1044 1025 l 1,2,-1
 324 106 l 1,3,-1
 324 0 l 1,4,-1
 148 0 l 1,5,-1
 148 1169 l 1,6,-1
 319 1169 l 1,7,-1
 319 303 l 1,8,-1
 980 1169 l 1,9,-1
 1212 1169 l 1,10,-1
 1212 0 l 1,0,-1
EndSplineSet
EndChar

StartChar: afii10076
Encoding: 1082 1082 269
Width: 1113
Flags: MW
LayerCount: 2
Fore
SplineSet
338 1169 m 1,0,-1
 338 642 l 1,1,-1
 469 642 l 1,2,-1
 885 1169 l 1,3,-1
 1111 1169 l 1,4,-1
 818 821 l 2,5,6
 795 794 795 794 764.5 754.5 c 128,-1,7
 734 715 734 715 697 678 c 128,-1,8
 660 641 660 641 617 613.5 c 128,-1,9
 574 586 574 586 528 584 c 1,10,11
 551 579 551 579 578.5 568.5 c 128,-1,12
 606 558 606 558 633.5 543 c 128,-1,13
 661 528 661 528 686 509 c 128,-1,14
 711 490 711 490 729 468 c 2,15,-1
 1105 0 l 1,16,-1
 885 0 l 1,17,-1
 458 531 l 1,18,-1
 338 531 l 1,19,-1
 338 0 l 1,20,-1
 148 0 l 1,21,-1
 148 1169 l 1,22,-1
 338 1169 l 1,0,-1
EndSplineSet
EndChar

StartChar: afii10077
Encoding: 1083 1083 270
Width: 1323
Flags: MW
LayerCount: 2
Fore
SplineSet
1174 0 m 1,0,-1
 984 0 l 1,1,-1
 984 1036 l 1,2,-1
 461 1036 l 1,3,-1
 438 571 l 1,4,5
 429 418 429 418 407.5 306.5 c 128,-1,6
 386 195 386 195 339.5 122.5 c 128,-1,7
 293 50 293 50 216 15 c 128,-1,8
 139 -20 139 -20 18 -20 c 1,9,-1
 18 117 l 1,10,11
 73 117 73 117 114.5 140 c 128,-1,12
 156 163 156 163 184.5 205.5 c 128,-1,13
 213 248 213 248 228.5 308.5 c 128,-1,14
 244 369 244 369 248 445 c 2,15,-1
 283 1169 l 1,16,-1
 1174 1169 l 1,17,-1
 1174 0 l 1,0,-1
EndSplineSet
EndChar

StartChar: afii10078
Encoding: 1084 1084 271
Width: 1599
Flags: MW
LayerCount: 2
Fore
SplineSet
1450 1169 m 1,0,-1
 1450 0 l 1,1,-1
 1287 0 l 1,2,-1
 1287 1060 l 1,3,-1
 900 0 l 1,4,-1
 704 0 l 1,5,-1
 311 1060 l 1,6,-1
 311 0 l 1,7,-1
 148 0 l 1,8,-1
 148 1169 l 1,9,-1
 427 1169 l 1,10,-1
 802 158 l 1,11,-1
 1171 1169 l 1,12,-1
 1450 1169 l 1,0,-1
EndSplineSet
EndChar

StartChar: afii10079
Encoding: 1085 1085 272
Width: 1324
Flags: MW
LayerCount: 2
Fore
SplineSet
338 685 m 1,0,-1
 985 685 l 1,1,-1
 985 1169 l 1,2,-1
 1175 1169 l 1,3,-1
 1175 0 l 1,4,-1
 985 0 l 1,5,-1
 985 570 l 1,6,-1
 338 570 l 1,7,-1
 338 0 l 1,8,-1
 148 0 l 1,9,-1
 148 1169 l 1,10,-1
 338 1169 l 1,11,-1
 338 685 l 1,0,-1
EndSplineSet
EndChar

StartChar: afii10081
Encoding: 1087 1087 274
Width: 1323
Flags: MW
LayerCount: 2
Fore
SplineSet
1174 0 m 1,0,-1
 983 0 l 1,1,-1
 983 1036 l 1,2,-1
 338 1036 l 1,3,-1
 338 0 l 1,4,-1
 148 0 l 1,5,-1
 148 1169 l 1,6,-1
 1174 1169 l 1,7,-1
 1174 0 l 1,0,-1
EndSplineSet
EndChar

StartChar: afii10084
Encoding: 1090 1090 277
Width: 1053
Flags: MW
LayerCount: 2
Fore
SplineSet
1018 1036 m 1,0,-1
 611 1036 l 1,1,-1
 611 0 l 1,2,-1
 421 0 l 1,3,-1
 421 1036 l 1,4,-1
 35 1036 l 1,5,-1
 35 1169 l 1,6,-1
 1018 1169 l 1,7,-1
 1018 1036 l 1,0,-1
EndSplineSet
EndChar

StartChar: afii10086
Encoding: 1092 1092 279
Width: 1288
Flags: MW
LayerCount: 2
Fore
SplineSet
564 1191 m 1,0,-1
 724 1191 l 1,1,-1
 724 1076 l 1,2,3
 836 1076 836 1076 928.5 1040.5 c 128,-1,4
 1021 1005 1021 1005 1086.5 940 c 128,-1,5
 1152 875 1152 875 1188 782.5 c 128,-1,6
 1224 690 1224 690 1224 576 c 0,7,8
 1224 464 1224 464 1186 373.5 c 128,-1,9
 1148 283 1148 283 1080.5 219 c 128,-1,10
 1013 155 1013 155 921.5 120.5 c 128,-1,11
 830 86 830 86 724 86 c 1,12,-1
 724 -20 l 1,13,-1
 564 -20 l 1,14,-1
 564 86 l 1,15,16
 453 86 453 86 361 121.5 c 128,-1,17
 269 157 269 157 203 221.5 c 128,-1,18
 137 286 137 286 100.5 377.5 c 128,-1,19
 64 469 64 469 64 581 c 0,20,21
 64 694 64 694 101 785.5 c 128,-1,22
 138 877 138 877 204.5 941.5 c 128,-1,23
 271 1006 271 1006 363 1041 c 128,-1,24
 455 1076 455 1076 564 1076 c 1,25,-1
 564 1191 l 1,0,-1
564 937 m 1,26,27
 485 937 485 937 425.5 912.5 c 128,-1,28
 366 888 366 888 326 842 c 128,-1,29
 286 796 286 796 266 730 c 128,-1,30
 246 664 246 664 246 582 c 0,31,32
 246 405 246 405 325.5 315 c 128,-1,33
 405 225 405 225 564 225 c 1,34,-1
 564 937 l 1,26,27
724 225 m 1,35,36
 874 226 874 226 958 314.5 c 128,-1,37
 1042 403 1042 403 1042 582 c 0,38,39
 1042 660 1042 660 1022.5 725.5 c 128,-1,40
 1003 791 1003 791 964 838 c 128,-1,41
 925 885 925 885 865 911 c 128,-1,42
 805 937 805 937 724 937 c 1,43,-1
 724 225 l 1,35,36
EndSplineSet
EndChar

StartChar: afii10088
Encoding: 1094 1094 281
Width: 1302
Flags: MW
LayerCount: 2
Fore
SplineSet
148 1169 m 1,0,-1
 338 1169 l 1,1,-1
 338 114 l 1,2,-1
 927 114 l 1,3,-1
 927 1169 l 1,4,-1
 1117 1169 l 1,5,-1
 1117 80 l 1,6,-1
 1236 80 l 1,7,-1
 1236 -378 l 1,8,-1
 1064 -378 l 1,9,-1
 1064 0 l 1,10,-1
 148 0 l 1,11,-1
 148 1169 l 1,0,-1
EndSplineSet
EndChar

StartChar: afii10089
Encoding: 1095 1095 282
Width: 1212
Flags: MW
LayerCount: 2
Fore
SplineSet
874 573 m 1,0,1
 843 517 843 517 798 478.5 c 128,-1,2
 753 440 753 440 701 416.5 c 128,-1,3
 649 393 649 393 592.5 382.5 c 128,-1,4
 536 372 536 372 482 372 c 0,5,6
 386 372 386 372 310.5 400 c 128,-1,7
 235 428 235 428 183.5 485 c 128,-1,8
 132 542 132 542 104.5 629 c 128,-1,9
 77 716 77 716 77 835 c 2,10,-1
 77 1169 l 1,11,-1
 267 1169 l 1,12,-1
 267 835 l 2,13,14
 267 668 267 668 324 591.5 c 128,-1,15
 381 515 381 515 499 515 c 0,16,17
 559 515 559 515 616.5 531 c 128,-1,18
 674 547 674 547 723.5 571 c 128,-1,19
 773 595 773 595 812 622.5 c 128,-1,20
 851 650 851 650 874 674 c 1,21,-1
 874 1169 l 1,22,-1
 1064 1169 l 1,23,-1
 1064 0 l 1,24,-1
 874 0 l 1,25,-1
 874 573 l 1,0,1
EndSplineSet
EndChar

StartChar: afii10090
Encoding: 1096 1096 283
Width: 1722
Flags: MW
LayerCount: 2
Fore
SplineSet
148 1169 m 1,0,-1
 338 1169 l 1,1,-1
 338 115 l 1,2,-1
 773 115 l 1,3,-1
 773 1169 l 1,4,-1
 959 1169 l 1,5,-1
 959 115 l 1,6,-1
 1385 115 l 1,7,-1
 1385 1169 l 1,8,-1
 1573 1169 l 1,9,-1
 1573 0 l 1,10,-1
 148 0 l 1,11,-1
 148 1169 l 1,0,-1
EndSplineSet
EndChar

StartChar: afii10091
Encoding: 1097 1097 284
Width: 1755
Flags: MW
LayerCount: 2
Fore
SplineSet
1679 -301 m 1,0,-1
 1489 -301 l 1,1,-1
 1489 0 l 1,2,-1
 148 0 l 1,3,-1
 148 1169 l 1,4,-1
 339 1169 l 1,5,-1
 339 118 l 1,6,-1
 771 118 l 1,7,-1
 771 1169 l 1,8,-1
 957 1169 l 1,9,-1
 957 118 l 1,10,-1
 1378 118 l 1,11,-1
 1378 1169 l 1,12,-1
 1566 1169 l 1,13,-1
 1566 120 l 1,14,-1
 1679 120 l 1,15,-1
 1679 -301 l 1,0,-1
EndSplineSet
EndChar

StartChar: afii10092
Encoding: 1098 1098 285
Width: 1351
Flags: MW
LayerCount: 2
Fore
SplineSet
365 0 m 1,0,-1
 365 1036 l 1,1,-1
 29 1036 l 1,2,-1
 29 1169 l 1,3,-1
 556 1169 l 1,4,-1
 556 778 l 1,5,6
 767 778 767 778 909 755 c 128,-1,7
 1051 732 1051 732 1137 684.5 c 128,-1,8
 1223 637 1223 637 1259.5 563.5 c 128,-1,9
 1296 490 1296 490 1296 389 c 0,10,11
 1296 302 1296 302 1269.5 239.5 c 128,-1,12
 1243 177 1243 177 1197.5 133.5 c 128,-1,13
 1152 90 1152 90 1090 64 c 128,-1,14
 1028 38 1028 38 956.5 23.5 c 128,-1,15
 885 9 885 9 807.5 4.5 c 128,-1,16
 730 0 730 0 653 0 c 2,17,-1
 365 0 l 1,0,-1
1096 393 m 0,18,19
 1096 441 1096 441 1088 478 c 128,-1,20
 1080 515 1080 515 1058 541.5 c 128,-1,21
 1036 568 1036 568 998 586 c 128,-1,22
 960 604 960 604 900 615 c 128,-1,23
 840 626 840 626 755 630.5 c 128,-1,24
 670 635 670 635 556 635 c 1,25,-1
 556 143 l 1,26,-1
 614 143 l 2,27,28
 658 143 658 143 711.5 144.5 c 128,-1,29
 765 146 765 146 818.5 153 c 128,-1,30
 872 160 872 160 922 175.5 c 128,-1,31
 972 191 972 191 1010.5 218.5 c 128,-1,32
 1049 246 1049 246 1072.5 288.5 c 128,-1,33
 1096 331 1096 331 1096 393 c 0,18,19
EndSplineSet
EndChar

StartChar: afii10093
Encoding: 1099 1099 286
Width: 1660
Flags: MW
LayerCount: 2
Fore
SplineSet
1329 0 m 1,0,-1
 1329 1169 l 1,1,-1
 1511 1169 l 1,2,-1
 1511 0 l 1,3,-1
 1329 0 l 1,0,-1
879 393 m 0,4,5
 879 441 879 441 871 478 c 128,-1,6
 863 515 863 515 841 541.5 c 128,-1,7
 819 568 819 568 781 586 c 128,-1,8
 743 604 743 604 683 615 c 128,-1,9
 623 626 623 626 538 630.5 c 128,-1,10
 453 635 453 635 339 635 c 1,11,-1
 339 143 l 1,12,13
 452 143 452 143 536 146.5 c 128,-1,14
 620 150 620 150 680 159.5 c 128,-1,15
 740 169 740 169 778.5 186.5 c 128,-1,16
 817 204 817 204 839.5 232 c 128,-1,17
 862 260 862 260 870.5 299.5 c 128,-1,18
 879 339 879 339 879 393 c 0,4,5
148 0 m 1,19,-1
 148 1169 l 1,20,-1
 339 1169 l 1,21,-1
 339 778 l 1,22,23
 549 778 549 778 691 755 c 128,-1,24
 833 732 833 732 919.5 684.5 c 128,-1,25
 1006 637 1006 637 1042.5 563.5 c 128,-1,26
 1079 490 1079 490 1079 389 c 0,27,28
 1079 307 1079 307 1052.5 246 c 128,-1,29
 1026 185 1026 185 980.5 141.5 c 128,-1,30
 935 98 935 98 873 70.5 c 128,-1,31
 811 43 811 43 739.5 27.5 c 128,-1,32
 668 12 668 12 590.5 6 c 128,-1,33
 513 0 513 0 436 0 c 2,34,-1
 148 0 l 1,19,-1
EndSplineSet
EndChar

StartChar: afii10094
Encoding: 1100 1100 287
Width: 1132
Flags: MW
LayerCount: 2
Fore
SplineSet
879 393 m 0,0,1
 879 441 879 441 871 478 c 128,-1,2
 863 515 863 515 841 541.5 c 128,-1,3
 819 568 819 568 781 586 c 128,-1,4
 743 604 743 604 683 615 c 128,-1,5
 623 626 623 626 538 630.5 c 128,-1,6
 453 635 453 635 339 635 c 1,7,-1
 339 143 l 1,8,9
 452 143 452 143 536 146.5 c 128,-1,10
 620 150 620 150 680 159.5 c 128,-1,11
 740 169 740 169 778.5 186.5 c 128,-1,12
 817 204 817 204 839.5 232 c 128,-1,13
 862 260 862 260 870.5 299.5 c 128,-1,14
 879 339 879 339 879 393 c 0,0,1
148 0 m 1,15,-1
 148 1169 l 1,16,-1
 339 1169 l 1,17,-1
 339 778 l 1,18,19
 549 778 549 778 691 755 c 128,-1,20
 833 732 833 732 919.5 684.5 c 128,-1,21
 1006 637 1006 637 1042.5 563.5 c 128,-1,22
 1079 490 1079 490 1079 389 c 0,23,24
 1079 307 1079 307 1052.5 246 c 128,-1,25
 1026 185 1026 185 980.5 141.5 c 128,-1,26
 935 98 935 98 873 70.5 c 128,-1,27
 811 43 811 43 739.5 27.5 c 128,-1,28
 668 12 668 12 590.5 6 c 128,-1,29
 513 0 513 0 436 0 c 2,30,-1
 148 0 l 1,15,-1
EndSplineSet
EndChar

StartChar: afii10095
Encoding: 1101 1101 288
Width: 1044
Flags: MW
LayerCount: 2
Fore
SplineSet
461 -20 m 0,0,1
 380 -20 380 -20 316.5 -8 c 128,-1,2
 253 4 253 4 204.5 21.5 c 128,-1,3
 156 39 156 39 120.5 60 c 128,-1,4
 85 81 85 81 59 99 c 1,5,-1
 115 233 l 1,6,7
 139 211 139 211 171.5 190.5 c 128,-1,8
 204 170 204 170 245.5 153.5 c 128,-1,9
 287 137 287 137 337 127 c 128,-1,10
 387 117 387 117 445 117 c 0,11,12
 517 117 517 117 575.5 144.5 c 128,-1,13
 634 172 634 172 676 225.5 c 128,-1,14
 718 279 718 279 741.5 358 c 128,-1,15
 765 437 765 437 767 539 c 1,16,-1
 364 539 l 1,17,-1
 364 654 l 1,18,-1
 765 654 l 1,19,20
 759 747 759 747 735 821 c 128,-1,21
 711 895 711 895 671 946.5 c 128,-1,22
 631 998 631 998 575.5 1025.5 c 128,-1,23
 520 1053 520 1053 450 1053 c 0,24,25
 410 1053 410 1053 365.5 1046.5 c 128,-1,26
 321 1040 321 1040 277 1026 c 128,-1,27
 233 1012 233 1012 191 990 c 128,-1,28
 149 968 149 968 115 937 c 1,29,-1
 59 1070 l 1,30,31
 85 1089 85 1089 119.5 1110 c 128,-1,32
 154 1131 154 1131 202 1149 c 128,-1,33
 250 1167 250 1167 314 1178.5 c 128,-1,34
 378 1190 378 1190 462 1190 c 0,35,36
 569 1190 569 1190 659.5 1147.5 c 128,-1,37
 750 1105 750 1105 816 1025.5 c 128,-1,38
 882 946 882 946 919 833.5 c 128,-1,39
 956 721 956 721 956 580 c 0,40,41
 956 440 956 440 920 328.5 c 128,-1,42
 884 217 884 217 818.5 139.5 c 128,-1,43
 753 62 753 62 662 21 c 128,-1,44
 571 -20 571 -20 461 -20 c 0,0,1
EndSplineSet
EndChar

StartChar: afii10096
Encoding: 1102 1102 289
Width: 1708
Flags: MW
LayerCount: 2
Fore
SplineSet
1090 117 m 0,0,1
 1264 117 1264 117 1351 238 c 128,-1,2
 1438 359 1438 359 1438 582 c 0,3,4
 1438 677 1438 677 1419 762.5 c 128,-1,5
 1400 848 1400 848 1357 912.5 c 128,-1,6
 1314 977 1314 977 1246 1015 c 128,-1,7
 1178 1053 1178 1053 1080 1053 c 0,8,9
 988 1053 988 1053 924 1014.5 c 128,-1,10
 860 976 860 976 819.5 911.5 c 128,-1,11
 779 847 779 847 760.5 761.5 c 128,-1,12
 742 676 742 676 742 582 c 0,13,14
 742 360 742 360 829.5 238.5 c 128,-1,15
 917 117 917 117 1090 117 c 0,0,1
1621 593 m 0,16,17
 1621 450 1621 450 1584 336.5 c 128,-1,18
 1547 223 1547 223 1479.5 143.5 c 128,-1,19
 1412 64 1412 64 1316.5 22 c 128,-1,20
 1221 -20 1221 -20 1103 -20 c 0,21,22
 981 -20 981 -20 884 15.5 c 128,-1,23
 787 51 787 51 717.5 121.5 c 128,-1,24
 648 192 648 192 608 297 c 128,-1,25
 568 402 568 402 561 541 c 1,26,-1
 338 541 l 1,27,-1
 338 0 l 1,28,-1
 148 0 l 1,29,-1
 148 1169 l 1,30,-1
 338 1169 l 1,31,-1
 338 656 l 1,32,-1
 562 656 l 1,33,34
 571 771 571 771 609.5 868.5 c 128,-1,35
 648 966 648 966 714 1037.5 c 128,-1,36
 780 1109 780 1109 871.5 1149.5 c 128,-1,37
 963 1190 963 1190 1077 1190 c 0,38,39
 1221 1190 1221 1190 1324 1142.5 c 128,-1,40
 1427 1095 1427 1095 1493 1013 c 128,-1,41
 1559 931 1559 931 1590 822.5 c 128,-1,42
 1621 714 1621 714 1621 593 c 0,16,17
EndSplineSet
EndChar

StartChar: afii10097
Encoding: 1103 1103 290
Width: 1151
Flags: MW
LayerCount: 2
Fore
SplineSet
1003 1169 m 1,0,-1
 1003 0 l 1,1,-1
 811 0 l 1,2,-1
 811 390 l 1,3,4
 730 390 730 390 659.5 393 c 128,-1,5
 589 396 589 396 528 403 c 1,6,-1
 327 0 l 1,7,-1
 105 0 l 1,8,-1
 369 434 l 1,9,10
 301 453 301 453 246 485 c 128,-1,11
 191 517 191 517 152.5 561.5 c 128,-1,12
 114 606 114 606 93 664 c 128,-1,13
 72 722 72 722 72 794 c 0,14,15
 72 878 72 878 108.5 947 c 128,-1,16
 145 1016 145 1016 220.5 1065.5 c 128,-1,17
 296 1115 296 1115 412 1142 c 128,-1,18
 528 1169 528 1169 686 1169 c 2,19,-1
 1003 1169 l 1,0,-1
267 794 m 0,20,21
 267 717 267 717 291.5 666 c 128,-1,22
 316 615 316 615 378 585 c 128,-1,23
 440 555 440 555 545.5 542.5 c 128,-1,24
 651 530 651 530 812 530 c 1,25,-1
 812 1028 l 1,26,-1
 687 1028 l 2,27,28
 588 1028 588 1028 510 1016.5 c 128,-1,29
 432 1005 432 1005 378 978 c 128,-1,30
 324 951 324 951 295.5 906 c 128,-1,31
 267 861 267 861 267 794 c 0,20,21
EndSplineSet
EndChar

StartChar: afii10099
Encoding: 1106 1106 293
Width: 1273
Flags: MW
LayerCount: 2
Fore
SplineSet
338 1381 m 1,0,-1
 1007 1381 l 1,1,-1
 1007 1265 l 1,2,-1
 338 1265 l 1,3,-1
 338 989 l 1,4,5
 395 1050 395 1050 443 1089 c 128,-1,6
 491 1128 491 1128 536.5 1150.5 c 128,-1,7
 582 1173 582 1173 628.5 1181.5 c 128,-1,8
 675 1190 675 1190 730 1190 c 0,9,10
 836 1190 836 1190 913 1158.5 c 128,-1,11
 990 1127 990 1127 1039.5 1067.5 c 128,-1,12
 1089 1008 1089 1008 1112.5 922.5 c 128,-1,13
 1136 837 1136 837 1136 729 c 2,14,-1
 1136 300 l 2,15,16
 1136 203 1136 203 1132.5 123 c 128,-1,17
 1129 43 1129 43 1115 -22 c 128,-1,18
 1101 -87 1101 -87 1073.5 -137.5 c 128,-1,19
 1046 -188 1046 -188 998.5 -227 c 128,-1,20
 951 -266 951 -266 880 -293.5 c 128,-1,21
 809 -321 809 -321 709 -340 c 1,22,-1
 662 -197 l 1,23,24
 727 -191 727 -191 773 -178.5 c 128,-1,25
 819 -166 819 -166 850 -142.5 c 128,-1,26
 881 -119 881 -119 899.5 -83 c 128,-1,27
 918 -47 918 -47 927.5 6 c 128,-1,28
 937 59 937 59 940 131.5 c 128,-1,29
 943 204 943 204 943 300 c 2,30,-1
 943 727 l 2,31,32
 943 796 943 796 932.5 856 c 128,-1,33
 922 916 922 916 896 959.5 c 128,-1,34
 870 1003 870 1003 827 1028 c 128,-1,35
 784 1053 784 1053 720 1053 c 0,36,37
 657 1053 657 1053 598 1036 c 128,-1,38
 539 1019 539 1019 489 994.5 c 128,-1,39
 439 970 439 970 400 941 c 128,-1,40
 361 912 361 912 338 888 c 1,41,-1
 338 0 l 1,42,-1
 148 0 l 1,43,-1
 148 1265 l 1,44,-1
 -10 1265 l 1,45,-1
 -10 1380 l 1,46,-1
 148 1380 l 1,47,-1
 148 1579 l 1,48,-1
 338 1616 l 1,49,-1
 338 1381 l 1,0,-1
EndSplineSet
EndChar

StartChar: afii10100
Encoding: 1107 1107 294
Width: 952
Flags: MW
LayerCount: 2
Fore
SplineSet
148 0 m 1,0,-1
 148 1169 l 1,1,-1
 924 1169 l 1,2,-1
 924 1036 l 1,3,-1
 338 1036 l 1,4,-1
 338 0 l 1,5,-1
 148 0 l 1,0,-1
541 1339 m 1,6,-1
 700 1950 l 1,7,-1
 932 1859 l 1,8,-1
 598 1313 l 1,9,-1
 541 1339 l 1,6,-1
EndSplineSet
EndChar

StartChar: afii10101
Encoding: 1108 1108 295
Width: 1046
Flags: MW
LayerCount: 2
Fore
SplineSet
639 119 m 0,0,1
 705 119 705 119 758 137 c 128,-1,2
 811 155 811 155 849 177 c 0,3,4
 894 203 894 203 929 235 c 1,5,-1
 985 102 l 1,6,7
 946 67 946 67 891 41 c 0,8,9
 844 18 844 18 776 -1 c 128,-1,10
 708 -20 708 -20 619 -20 c 0,11,12
 509 -20 509 -20 412.5 20.5 c 128,-1,13
 316 61 316 61 244 138.5 c 128,-1,14
 172 216 172 216 130 327.5 c 128,-1,15
 88 439 88 439 88 580 c 0,16,17
 88 750 88 750 130 867 c 128,-1,18
 172 984 172 984 244 1056 c 128,-1,19
 316 1128 316 1128 412.5 1160 c 128,-1,20
 509 1192 509 1192 619 1192 c 0,21,22
 708 1192 708 1192 776 1173 c 128,-1,23
 844 1154 844 1154 891 1131 c 0,24,25
 946 1104 946 1104 985 1070 c 1,26,-1
 929 937 l 1,27,28
 894 969 894 969 849 995 c 0,29,30
 811 1017 811 1017 758 1035 c 128,-1,31
 705 1053 705 1053 639 1053 c 0,32,33
 546 1053 546 1053 478.5 1027 c 128,-1,34
 411 1001 411 1001 367.5 950.5 c 128,-1,35
 324 900 324 900 302.5 825.5 c 128,-1,36
 281 751 281 751 279 654 c 1,37,-1
 681 654 l 1,38,-1
 681 539 l 1,39,-1
 277 539 l 1,40,41
 279 437 279 437 301 358.5 c 128,-1,42
 323 280 323 280 367.5 226.5 c 128,-1,43
 412 173 412 173 479.5 146 c 128,-1,44
 547 119 547 119 639 119 c 0,0,1
EndSplineSet
EndChar

StartChar: afii10106
Encoding: 1113 1113 300
Width: 2027
Flags: MW
LayerCount: 2
Fore
SplineSet
1234 1169 m 1,0,-1
 1234 778 l 1,1,2
 1444 778 1444 778 1586 755 c 128,-1,3
 1728 732 1728 732 1814 684.5 c 128,-1,4
 1900 637 1900 637 1936.5 563.5 c 128,-1,5
 1973 490 1973 490 1973 389 c 256,6,7
 1973 288 1973 288 1934.5 214.5 c 128,-1,8
 1896 141 1896 141 1811.5 93.5 c 128,-1,9
 1727 46 1727 46 1593 23 c 128,-1,10
 1459 0 1459 0 1268 0 c 2,11,-1
 1041 0 l 1,12,-1
 1041 1036 l 1,13,-1
 508 1036 l 1,14,-1
 508 571 l 2,15,16
 508 423 508 423 490.5 312 c 128,-1,17
 473 201 473 201 421 127.5 c 128,-1,18
 369 54 369 54 275.5 17 c 128,-1,19
 182 -20 182 -20 30 -20 c 1,20,21
 30 16 30 16 30.5 51.5 c 128,-1,22
 31 87 31 87 31 123 c 1,23,24
 107 124 107 124 161.5 141 c 128,-1,25
 216 158 216 158 250.5 195.5 c 128,-1,26
 285 233 285 233 301 294 c 128,-1,27
 317 355 317 355 317 445 c 2,28,-1
 317 1169 l 1,29,-1
 1234 1169 l 1,0,-1
1778 389 m 0,30,31
 1778 466 1778 466 1752.5 514 c 128,-1,32
 1727 562 1727 562 1664.5 589 c 128,-1,33
 1602 616 1602 616 1497.5 625.5 c 128,-1,34
 1393 635 1393 635 1234 635 c 1,35,-1
 1234 143 l 1,36,-1
 1268 143 l 2,37,38
 1400 143 1400 143 1496 146.5 c 128,-1,39
 1592 150 1592 150 1654.5 173 c 128,-1,40
 1717 196 1717 196 1747.5 246 c 128,-1,41
 1778 296 1778 296 1778 389 c 0,30,31
EndSplineSet
EndChar

StartChar: afii10107
Encoding: 1114 1114 301
Width: 1932
Flags: MW
LayerCount: 2
Fore
SplineSet
1683 389 m 0,0,1
 1683 459 1683 459 1664 506.5 c 128,-1,2
 1645 554 1645 554 1587 582.5 c 128,-1,3
 1529 611 1529 611 1421.5 623 c 128,-1,4
 1314 635 1314 635 1138 635 c 1,5,-1
 1138 143 l 1,6,7
 1258 143 1258 143 1345.5 148 c 128,-1,8
 1433 153 1433 153 1493.5 164.5 c 128,-1,9
 1554 176 1554 176 1591 194.5 c 128,-1,10
 1628 213 1628 213 1648.5 240.5 c 128,-1,11
 1669 268 1669 268 1676 304.5 c 128,-1,12
 1683 341 1683 341 1683 389 c 0,0,1
340 685 m 1,13,-1
 947 685 l 1,14,-1
 947 1169 l 1,15,-1
 1138 1169 l 1,16,17
 1138 1071 1138 1071 1138.5 973.5 c 128,-1,18
 1139 876 1139 876 1139 778 c 1,19,20
 1349 778 1349 778 1491 755 c 128,-1,21
 1633 732 1633 732 1719 684.5 c 128,-1,22
 1805 637 1805 637 1841.5 563.5 c 128,-1,23
 1878 490 1878 490 1878 389 c 256,24,25
 1878 288 1878 288 1842 214.5 c 128,-1,26
 1806 141 1806 141 1721.5 93.5 c 128,-1,27
 1637 46 1637 46 1496 23 c 128,-1,28
 1355 0 1355 0 1145 0 c 2,29,-1
 947 0 l 1,30,-1
 947 570 l 1,31,-1
 340 570 l 1,32,-1
 340 0 l 1,33,-1
 148 0 l 1,34,-1
 148 1169 l 1,35,-1
 340 1169 l 1,36,-1
 340 685 l 1,13,-1
EndSplineSet
EndChar

StartChar: afii10108
Encoding: 1115 1115 302
Width: 1274
Flags: MW
LayerCount: 2
Fore
SplineSet
338 1380 m 1,0,-1
 1005 1380 l 1,1,-1
 1005 1265 l 1,2,-1
 338 1265 l 1,3,-1
 338 989 l 1,4,5
 395 1050 395 1050 443 1089 c 128,-1,6
 491 1128 491 1128 536.5 1150.5 c 128,-1,7
 582 1173 582 1173 628.5 1181.5 c 128,-1,8
 675 1190 675 1190 730 1190 c 0,9,10
 826 1190 826 1190 901.5 1162.5 c 128,-1,11
 977 1135 977 1135 1028.5 1078.5 c 128,-1,12
 1080 1022 1080 1022 1107.5 934.5 c 128,-1,13
 1135 847 1135 847 1135 727 c 2,14,-1
 1135 0 l 1,15,-1
 945 0 l 1,16,-1
 945 727 l 2,17,18
 945 896 945 896 888.5 974.5 c 128,-1,19
 832 1053 832 1053 714 1053 c 0,20,21
 649 1053 649 1053 589.5 1035 c 128,-1,22
 530 1017 530 1017 480.5 991.5 c 128,-1,23
 431 966 431 966 394 937.5 c 128,-1,24
 357 909 357 909 338 888 c 1,25,-1
 338 0 l 1,26,-1
 148 0 l 1,27,-1
 148 1265 l 1,28,-1
 -12 1265 l 1,29,-1
 -12 1380 l 1,30,-1
 148 1380 l 1,31,-1
 148 1579 l 1,32,-1
 338 1616 l 1,33,-1
 338 1380 l 1,0,-1
EndSplineSet
EndChar

